<?xml version="1.0" encoding="UTF-8"?>
<svg viewBox="0 0 453.54 453.54" xmlns="http://www.w3.org/2000/svg">
 <g transform="matrix(2.4 0 0 2.4 -470.26 -1331.4)" stroke-linecap="round" stroke-width="3.543">
  <path d="m373.11 643.35a88.583 88.583 0 1 1 -177.17 0 88.583 88.583 0 1 1 177.17 0z" fill="none"/>
  <path d="m284.53 595.5c-11.508 0-21.93 4.2502-30.188 11.031 1.831 3.7688 4.3005 7.1244 7.3438 9.9375 6.1843-5.262 14.095-8.5625 22.844-8.5625 8.7486 0 16.66 3.3005 22.844 8.5625 3.0434-2.8094 5.5413-6.1437 7.375-9.9062-8.2575-6.8025-18.69-11.062-30.219-11.062zm-35.531 16.094c-4.3291 4.8415-7.6364 10.539-9.7188 16.844 4.2143-0.0448 8.3696 0.60992 12.375 1.8438 1.2805-3.213 3.0738-6.1416 5.1875-8.8125-3.1043-2.8695-5.7607-6.1685-7.8438-9.875zm71.062 0.0312c-2.0803 3.6874-4.7513 6.9862-7.8438 9.8438 2.1197 2.6785 3.906 5.6202 5.1875 8.8438 3.9963-1.2278 8.1393-1.9194 12.344-1.875-2.0771-6.2974-5.3703-11.975-9.6875-16.812zm-78.25 23.812c-1.4389-0.080872-2.8958 0.04895-4.3438 0.15625-0.41759 2.5402-0.78125 5.0924-0.78125 7.75 0 20.458 12.922 37.822 31 44.656 2.376-3.4849 4.0427-7.3402 4.9688-11.406-13.691-4.9053-23.562-17.88-23.562-33.25 0-2.188 0.27592-4.2962 0.65625-6.375-2.5847-0.79285-5.2288-1.379-7.9375-1.5312zm85.438 0c-2.7087 0.15008-5.3529 0.74072-7.9375 1.5312 0.38031 2.0788 0.65625 4.187 0.65625 6.375 0 15.38-9.888 28.352-23.594 33.25 0.91849 4.0678 2.6006 7.9192 4.9688 11.406 18.084-6.8272 31-24.188 31-44.656 0-2.6576-0.36423-5.2098-0.78125-7.75-1.4373-0.10614-2.8842-0.23541-4.3125-0.15625zm-47.781 42.844c-0.9516 4.1796-2.5307 8.1769-4.75 11.875 3.1738 0.66412 6.4427 1.0312 9.8125 1.0312 3.3594 0 6.6175-0.37116 9.7812-1.0312-2.2108-3.6987-3.7741-7.6962-4.7188-11.875-1.6702 0.24188-3.3257 0.5-5.0625 0.5s-3.3923-0.25812-5.0625-0.5z"/>
  <path d="m277.47 555.31c-25.995 3.4627-46.094 25.656-46.094 52.594 0 1.6596 0.12906 3.2866 0.28125 4.9062-1.4814 0.67865-2.9664 1.3874-4.4062 2.2188-23.322 13.465-32.486 41.948-22.5 66.188l0.1562-0.0938c-5.7027-16.507 0.84872-35.258 16.531-44.312 17.264-9.9675 39.147-4.4084 49.812 12.188l3.4062-2c-0.42761-1.1516-0.75-2.3559-0.75-3.6562 0-5.2335 3.8623-9.3708 8.8438-10.25v-4.0938c-19.692-0.95056-35.406-17.104-35.406-37.031 1.5e-5 -18.119 12.969-33.166 30.125-36.469v-0.1875zm14.156 0v0.1875c17.147 3.3147 30.125 18.36 30.125 36.469 0 19.938-15.76 36.096-35.469 37.031v4.0625c4.9995 0.86426 8.875 5.0348 8.875 10.281 0 1.3004-0.32239 2.5046-0.75 3.6562l3.4062 2c10.665-16.594 32.548-22.124 49.812-12.156 15.692 9.0596 22.218 27.804 16.5 44.312l0.1875 0.0938c9.9988-24.244 0.82849-52.75-22.5-66.219-1.4429-0.83307-2.9216-1.5396-4.4062-2.2188 0.15219-1.6197 0.28125-3.2466 0.28125-4.9062 0-26.93-20.078-49.122-46.062-52.594zm-15.156 94.719l-3.4688 2c9.0511 17.536 2.895 39.248-14.375 49.219-15.692 9.0596-35.187 5.3309-46.625-7.875l-0.1875 0.0938c15.996 20.781 45.265 27.094 68.594 13.625 1.4442-0.8338 2.7922-1.7718 4.125-2.7188 1.3358 0.94745 2.6789 1.8838 4.125 2.7188 23.322 13.465 52.563 7.1739 68.562-13.594l-0.1562-0.0938c-11.444 13.192-30.974 16.929-46.656 7.875-17.262-9.9659-23.377-31.686-14.344-49.219l-3.5-2.0312c-1.949 2.3402-4.7479 3.9375-8.0312 3.9375-3.2897 0-6.1135-1.5895-8.0625-3.9375z"/>
 </g>
</svg>
