<?xml version="1.0" encoding="UTF-8"?>
<svg viewBox="0 0 972 1029" xmlns="http://www.w3.org/2000/svg">
 <g fill-rule="evenodd" stroke-width=".5">
  <path d="m378 0.2v-0.2h41l23.5 3.8q23.5 3.7 40.5 9.7t26.5 10.3q9.5 4.2 9.5 5.2t9.8 7.5q9.7 6.5 12 8 2.2 1.5 2.7 2.7 0.5 1.3 1.5 1.6 1 0.2 1.5 1.4 0.5 1.3 1.5 1.6 1 0.2 6.5 9 5.5 8.7 5.7 9l0.3 0.2 0.5 1.5 0.5 1.5 0.5 1 0.5 1 0.3 0.2 0.2 0.3 0.2 0.3 0.3 0.2 0.5 1q0.5 1 0.8 2 0.2 1-0.8 1t-1-1-1-1.2l-1-0.3-0.2-0.3-0.3-0.2-0.3-0.2-0.2-0.3-0.2-0.3-0.3-0.2-0.3-0.2-0.2-0.3-0.2-0.3-0.3-0.2-0.3-0.2-0.2-0.3-0.2-0.3-0.3-0.2-0.3-0.2-0.2-0.3-0.2-0.3-0.3-0.2-8.3-6.2q-8.2-6.3-18.7-9.8t-15-4.5-22-0.5-31 5-28.7 13.8q-15.3 9.2-31.6 18.4-16.2 9.3-34.7 15.8t-39.5 9.5-49.5 5-40 5.5-17 6.2q-5.5 2.8-5.5 3.8t-6.8 6q-6.7 5-11.7 12t-8 14.5-2.5 15.5 3.8 11.2q3.2 3.3 12.7 2.8t20-5 33.5-16 46-21 43.5-16.5 55-14.5 63-10.5 54-2.5 43.5 2.5 38 6 39.8 10.3q19.7 6.2 39 15 19.2 8.7 36.2 19 17 10.2 19 12.4 2 2.3 6 4.6 4 2.2 7.5 6 3.5 3.7 13.5 12 10 8.2 13.5 12 3.5 3.7 22 22.2t19.5 18.8q1 0.2 4 3.4 3 3.3 16.5 11.8t24.5 12 25.5 4.5 18 0.5 8.5-0.5h5l-0.2 0.3-0.3 0.2-0.3 0.2-0.2 0.3-1 0.5-1 0.5-0.2 0.3-0.3 0.2-0.3 1-0.2 1-1 0.2-1 0.3-2 2.7q-2 2.8-3.2 3.3-1.3 0.5-1.6 1.5-0.2 1-3 3.5-2.7 2.5-8.7 15t-7.5 19-1 20.5 5 27.5 11.5 26 7.3 13.5q0.2 1 1.2 1t8.2 17q7.3 17 10.3 30.5t2.5 33-3.5 31-13.5 34.5-18.5 41-11 30-2.5 26 4.2 22q3.8 8 9.8 10.2 6 2.3 12.5 1.3t9.5-2.3q3-1.2 3-2.2t3.8-4.5q3.7-3.5 8.7-9.5t12.5-20 8-15.5 1-3.5l0.5-2h0.5v-0.5h2l2 0.5 2 0.5 0.2 0.3 0.3 0.2 0.3 1 0.2 1 1 0.2 1 0.3v0.5l-0.2 1.5-0.3 1.5-0.5 2q-0.5 2-5 16.5t-9.5 26.5-14 29-21.5 34-23.2 27.8q-10.8 10.7-13.3 13.4-2.5 2.8-8.5 6.3t-6 4.5-1.5 1.2q-1.5 0.3-2 1.6-0.5 1.2-5 3.4-4.5 2.3-13.5 6.8t-18 7.5-22 4.5l-13 1.5-3-0.5-3-0.5-1-0.5-1-0.5 1.5-0.5 1.5-0.5 3-0.5q3-0.5 15-6.5t14.5-8.7q2.5-2.8 4.7-4.3 2.3-1.5 9-9.7 6.8-8.3 11-15.6 4.3-7.2 8.3-22.2t5-60.5 3.5-56 7.5-25.5 17.7-41.2q12.8-26.3 17.6-39 4.7-12.8 5.7-26.8t-0.5-21-6.5-18-11.3-17.2q-6.2-6.3-14.2-6.8t-10 1-5.2 9.2q-3.3 7.8-5.8 45.3t-5.5 60-9 49-13.5 51.5-16 45-16.5 36.5-16 29.5-21.3 32q-13.2 19-14.2 19t-6 7.5-6 7.7q-1 0.3-1.5 1.6-0.5 1.2-1.5 1.4-1 0.3-1.5 1.6-0.5 1.2-1.5 1.2t-6 6.5-6 6.7q-1 0.3-1.5 1.6-0.5 1.2-1.5 1.4-1 0.3-1.5 1.6-0.5 1.2-1.5 1.4-1 0.3-1.5 1.6-0.5 1.2-9 7.4-8.5 6.3-11 9-2.5 2.8-14.7 10.8-12.3 8-18 11-5.8 3-5.8 4t-1.8 1.5q-1.7 0.5-21.2 10t-32.8 14.3q-13.2 4.7-31.7 8.7t-36.5 8.5-35.5 12-33.5 18.2q-16 10.8-16 11.8t-1 1.2q-1 0.3-3.5 3-2.5 2.8-3.5 3-1 0.3-1.5 1.6-0.5 1.2-1.5 1.4-1 0.3-1.5 1.6-0.5 1.2-1.5 1.2t-5.5 6.2l-4.5 6.3-0.2 0.3-0.3 0.2-0.3 1-0.2 1-1 0.2-1 0.3-0.2 0.3-0.3 0.2-0.5 1-0.5 1-0.3 0.5-0.2 0.5h-1l0.2-1.5 0.3-1.5 0.3-0.2 0.2-0.3 0.2-0.3 0.3-0.2 0.5-1 0.5-1 0.5-1.5q0.5-1.5 1-2t1-10.5-2.5-16-7.3-9.5q-4.2-3.5-4.2-4.5t-10.5-6.2q-10.5-5.3-23.5-8.8t-38-4.5-36.5-2.5-22-4.5-22-8.5-26.5-16.8q-15-11.2-20-18.7t-6-7.5-4.5-6-4.5-6-16.8-23.5q-15.7-23.5-18.4-26-2.8-2.5-3-3.5-0.3-1-7.6-7.5-7.2-6.5-7.4-7.5-0.3-1-7.6-5.2-7.2-4.3-13.2-6.8t-13-3-11.2 0.8q-4.3 1.2-8.3 5.7t-4.5 13 1 14 7.8 19q6.2 13.5 7.2 13.5t2.2 2.5q1.3 2.5 3.6 4.5 2.2 2 7.4 9 5.3 7 9 10.5 3.8 3.5 4 4.5 0.3 1 1.6 1.5 1.2 0.5 1.4 1.5 0.3 1 1.6 1.5 1.2 0.5 1.4 1.5 0.3 1 1.6 1.5 1.2 0.5 1.4 1.5 0.3 1 1.6 1.5 1.2 0.5 1.4 1.5 0.3 1 5.8 5l5.5 4 0.5 1.5 0.5 1.5 0.3-0.2 0.2-0.3 1-0.3 1-0.2-0.2 1-0.3 1-0.3 0.2-0.2 0.3 0.2 0.3 0.3 0.2v2l-0.3-0.2-0.2-0.3-1.5-0.5-1.5-0.5-1-0.5-1-0.5-1-0.3q-1-0.2-1-1.2t-6.5-4.8q-6.5-3.7-9-6.4-2.5-2.8-4-2.8t-1.7-1q-0.3-1-7.6-6-7.2-5-7.4-6-0.3-1-4.6-4.8-4.2-3.7-13-13.4-8.7-9.8-12.4-13.3-3.8-3.5-8.8-11.5t-6-8-3.2-4q-2.3-4-9.6-16.2-7.2-12.3-14.7-28.8t-12.7-33.8q-5.3-17.2-7.6-34.7l-2.2-17.5v-12h0.5l0.5-7.5q0.5-7.5 2-15t4.5-15.5 5.5-11.5l2.5-3.5 0.5-1 0.5-1 0.5-1 0.5-1 0.3-0.2 0.2-0.3 0.2-0.3 0.3-0.2 0.5-1 0.5-1 0.3-1 0.2-1h2l-0.2 1-0.3 1-0.5 2.5-0.5 2.5-0.5 2q-0.5 2-1 19t1 23 7.8 19q6.2 13 7.2 13t2.8 3q1.7 3 12 12.8 10.2 9.7 23.7 17.7t33.5 19.3q20 11.2 20.2 12.2 0.3 1 7.6 6.2 7.2 5.3 15.4 13.6 8.3 8.2 12 11.7 3.8 3.5 4.3 4.7 0.5 1.3 23.3 34 22.7 32.8 25.4 35.3 2.8 2.5 3 3.5 0.3 1 3 3 2.8 2 3 3 0.3 1 1.6 1.5 1.2 0.5 1.2 1.5t7.2 5q7.3 4 15.6 7.2 8.2 3.3 24.2 3.8t20-1 8.2-4.8q4.3-3.2 4.8-9.2t-1.5-10-6.3-7.5q-4.2-3.5-4.4-4.5-0.3-1-6.6-5.2-6.2-4.3-13.2-8-7-3.8-7-4.8t-14-9.5-14-9.5-1-1.2q-1-0.3-28.5-21.6-27.5-21.2-27.7-22.2-0.3-1-1.6-1.5-1.2-0.5-1.4-1.5-0.3-1-1.6-1.5-1.2-0.5-1.2-1.5t-7.2-7q-7.3-6-19-19-11.8-13-12.8-13t-1.2-1q-0.3-1-1.6-1.5-1.2-0.5-7.7-9.5t-7.5-9-4.2-5q-3.3-5-6-7.5-2.8-2.5-6.3-8.5t-4.5-6-3.5-4.2q-2.5-4.3-16.7-27.6-14.3-23.2-24.3-44.7t-18-47-12-48.5-4.5-54 1.5-46 9.5-42.5 12-46 5-38.5-1-26-10.8-24.5q-9.2-18.5-10.2-18.5t-1.2-1l-0.3-1-0.3-0.2-0.2-0.3-0.2-0.3-0.3-0.2-0.5-1-0.5-1-0.3-0.2-0.2-0.3-0.2-0.3-0.3-0.2-0.3-1-0.2-1 1.5 0.2 1.5 0.3 0.2 0.3 0.3 0.2 0.3 0.2 0.2 0.3 1 0.5 1 0.5 6.5 1.5q6.5 1.5 22.5 1.5t26.2-3.7q10.3-3.8 18.8-9.3t8.8-6.5q0.2-1 6-6 5.7-5 13.7-17t16-25.5 13.3-21q5.2-7.5 6.4-8 1.3-0.5 1.6-1.5 0.2-1 1.4-1.5 1.3-0.5 1.6-1.5 0.2-1 6.4-6 6.3-5 6.6-6 0.2-1 6.2-4.5t6-4.5 16.5-8.2q16.5-7.3 31.5-10.3t50-6 50.2-7.3q15.3-4.2 25.8-10.2t10.8-7q0.2-1 1.4-1.5 1.3-0.5 1.6-1.5 0.2-1 1.4-1.5 1.3-0.5 3.8-7t2-12-1.2-7.3q-0.8-1.7-5.8-5.7t-16.5-7-31-2.5-38 5-28.5 8-12 4l-2 0.5-1 0.5-1 0.5-0.2 0.3-0.3 0.2-0.3 0.2-0.2 0.3h-5l0.2-0.3 0.3-0.2 0.3-0.2 0.2-0.3 0.2-0.3 0.3-0.2 0.3-0.2 0.2-0.3 1-0.5 1-0.5 0.2-0.3 0.3-0.2 0.3-0.2 0.2-0.3 1.5-0.5 1.5-0.5 1-0.5 1-0.5 13-6.5q13-6.5 29.5-12.5t40.5-10.5 31-5 7-0.8zm314.5 191.8v3l-0.3 1.5-0.2 1.5-1.5 0.2q-1.5 0.3-2.5 0.8t-12 1-46-6.8l-35-7.2v0.2q0 0.3-0.2 3-0.3 2.8-1.6 4.3l-1.2 1.5 66.5 32.8q66.5 32.7 95.5 43.7t54 18 37 9 15 2.5l3 0.5 2 0.5 2 0.5 0.2 0.3 0.3 0.2 0.3 0.2 0.2 0.3-1 0.3-1 0.2-0.2 1-0.3 1-0.3 0.2-0.2 0.3-1 0.3-1 0.2v1q0 1-2 1.5t-2.5 1.7q-0.5 1.3-1.5 1.6-1 0.2-1.5 1.4-0.5 1.3-1.5 1.6-1 0.2-6.8 9.2-5.7 9-11.7 27.5t-7.5 29.5-1.5 80.5-2 89.5-6 38-11 35.5-12.7 25.3q-5.8 7.7-10.8 10.7t-11 2.5-9-1.8q-3-1.2-3-2.2t-1.2-1.5q-1.3-0.5-1.6-1.5-0.2-1-1.4-1.5-1.3-0.5-1.6-1.5-0.2-1-1.2-1t-2.8-3q-1.7-3-2.2-4l-0.5-1-0.3-0.2-0.2-0.3-0.2-0.3-0.3-0.2-0.3-0.2-0.2-0.3-0.2-0.3-0.3-0.2-0.3-0.2-0.2-0.3v-0.5l-1 0.2-1 0.3-0.2 0.3-0.3 0.2-0.5-1-0.5-1-0.3 0.2-0.2 0.3-0.2 0.3-0.3 0.2h-0.5l1.2 15q1.3 15 0.8 34.5t-3.5 38.5-9 37-15 36-21.3 34q-12.2 16-13.2 16t-1.5 1.2q-0.5 1.3-1.5 1.6-1 0.2-1.5 1.4-0.5 1.3-1.5 1.6-1 0.2-1 1.2t-6 5-8 6.2q-2 2.3-14 8.8t-18.5 7-8 0l-1.5-0.5-1-0.5-1-0.5-0.2-0.3-0.3-0.2-0.3-0.2-0.2-0.3-0.2-0.3-0.3-0.2-0.5-1-0.5-1v-2q0-2 4.5-11t7.2-11.5q2.8-2.5 6-7.5 3.3-5 6-7.5 2.8-2.5 3-3.5 0.3-1 1.6-1.5 1.2-0.5 1.4-1.5 0.3-1 1.6-1.5 1.2-0.5 10.4-11.5l9.3-11 0.3-0.2 0.2-0.3 0.2-0.3 0.3-0.2 0.3-0.2 0.2-0.3v-0.5l-1.5-0.2-1.5-0.3-0.2-0.3-0.3-0.2-0.3-0.2-0.2-0.3-0.2-0.3-0.3-0.2-0.3-1-0.2-1-1.5-0.2-1.5-0.3 0.2-0.3 0.3-0.2 0.3-0.2 0.2-0.3-1-0.5-1-0.5v-0.5h-0.5l-12.3 8.2q-12.2 8.3-13.7 8.6-1.5 0.2-1.5 1.2t-4.5 3-4.5 3-9.5 6.8q-9.5 5.7-14 8-4.5 2.2-4.5 3.2t-11.5 8.2q-11.5 7.3-24 16-12.5 8.8-12.5 9.8t-6 4.5-6 4.5-7.5 6-7.5 6-2 1.5-2 1.5-7.5 6-8 6.2q-0.5 1.3-1.5 1.6-1 0.2-4.5 4-3.5 3.7-19.7 20-16.3 16.2-21 22-4.8 5.7-5.8 6-1 0.2-3.2 3.7-2.3 3.5-2.8 4.5l-0.5 1-0.3 0.2-0.2 0.3-0.2 0.3-0.3 0.2-0.3 1-0.2 1-1 0.2-1 0.3-0.2 0.3-0.3 0.2-0.5-1.5-0.5-1.5-0.5-2q-0.5-2-1.5-6.5t-4-11-10.7-18.5q-7.8-12-8.8-12.2-1-0.3-1.5-1.6-0.5-1.2-1.5-1.4-1-0.3-1.5-1.6-0.5-1.2-2.5-2.4-2-1.3-10.5-8-8.5-6.8-8.5-7.8t-1.5-1.8q-1.5-0.7-13.5-8-12-7.2-12-8.2t-44-24.5-44-24.5-9.5-6-9.5-6-4.5-3-4.5-3-5-4.2q-5-3.3-7.5-6-2.5-2.8-7-6-4.5-3.3-15.3-14-10.7-10.8-20.2-22.8t-14-23-3.8-18.5q0.8-7.5 1.8-7.5t3.5-2.8q2.5-2.7 8.5-4.7t19-3l13-1 1.5 0.3 1.5 0.2-0.2-0.5-0.3-0.5-0.3-0.2-0.2-0.3-1-0.5-1-0.5-2-0.5-2-0.5-1-0.5q-1-0.5-26-13t-41.5-24.5-29-24.5-16-17.2q-3.5-4.8-4.5-5-1-0.3-3.5-4.6-2.5-4.2-3.5-4.2t-3-3.8q-2-3.7-5-9.4-3-5.8-4-5.8t-2-2.8q-1-2.7-8.8-21-7.7-18.2-10.7-30.7t-3.5-30.5 2.2-24.8l2.8-6.7 0.2-0.3 0.3-0.2 0.3-0.2 0.2-0.3 0.2-0.3 0.3-0.2 0.3-0.2 0.2-0.3h9l3.8 4.7q3.7 4.8 9.7 18.8t15 43 9.5 30l0.5 1 0.3 1 0.2 1h0.5l0.3 0.2 0.2 0.3 0.2 0.3 0.3 0.2 0.3 1 0.2 1h4l0.2-3.5 0.3-3.5h0.5l-0.2-6q-0.3-6-4.8-73t-8.5-96-10.5-56.5-13-45.5l-6.5-18-0.3-0.2-0.2-0.3-0.2-0.3-0.3-0.2-0.5-2-0.5-2-0.3-1-0.2-1 1 0.2 1 0.3 1.5 0.5 1.5 0.5 7.5 2q7.5 2 26 1.5t29.5-3.5 28.2-10.7q17.3-7.8 40-20.8 22.8-13 22.8-14t4.5-3 4.5-3 12-7.5 12-7.5 30.5-15.2q30.5-14.3 43-18.8t26-7.5 21-4 19-0.5 15.5 1.5 7 2.3q3 1.2 3 2.2t2.2 3q2.3 2 2.3 11.5t-4.3 20q-4.2 10.5-5.2 10.5h-1l-0.2 1.5-0.3 1.5-0.5 1-0.5 1-0.3 0.2-0.2 0.3-0.2 0.3-0.3 0.2v2h1l0.5-1 0.5-1 0.3-0.2 0.2-0.3 1-0.5 1-0.5 0.2-0.3 0.3-0.2 0.3-0.2 0.2-0.3 0.2-0.3 0.3-0.2 0.3-0.2 0.2-0.3 5-3.3q5-3.2 5-4.2t6.5-4.5 6.5-4.5 20.5-12.2q20.5-11.3 36.5-17.3t36-10 49-4 47 4 32.2 10.7q14.3 6.8 19.8 11.3t8.5 9 3 7.5zm262.5 449q0-1 1-1t1 1-1 1-1-1z" stroke="#000"/>
  <g fill="#fff" stroke="#fff">
   <path d="m442.5 3.8l-23.5-3.8h553v565l-0.2 0.5q-0.3 0.5 0 1l0.2 0.5v1h-1q-1 0-4.8 22.5-3.7 22.5-7.2 34.5t-3.8 13l-0.2 1h-0.5l-0.5 2q-0.5 2-1 3.5t-8 15.5-12.5 20-8.7 9.5q-3.8 3.5-3.8 4.5t-3 2.2q-3 1.3-9.5 2.3t-12.5-1.3q-6-2.2-9.8-10.2-3.7-8-4.2-22t2.5-26 11-30 18.5-41 13.5-34.5 3.5-31-2.5-33-10.3-30.5q-7.2-17-8.2-17t-1.2-1q-0.3-1-7.3-13.5t-11.5-26-5-27.5 1-20.5 7.5-19 8.7-15q2.8-2.5 3-3.5 0.3-1 1.6-1.5 1.2-0.5 3.2-3.3l2-2.7 1-0.3 1-0.2 0.2-1 0.3-1 0.3-0.2 0.2-0.3 1-0.5 1-0.5 0.2-0.3 0.3-0.2 0.3-0.2 0.2-0.3h-5q-5 0-8.5 0.5t-18-0.5-25.5-4.5-24.5-12-16.5-11.8q-3-3.2-4-3.4-1-0.3-19.5-18.8t-22-22.2q-3.5-3.8-13.5-12-10-8.3-13.5-12-3.5-3.8-7.5-6-4-2.3-6-4.6-2-2.2-19-12.4-17-10.3-36.2-19-19.3-8.8-39-15-19.8-6.3-39.8-10.3t-38-6-43.5-2.5-54 2.5-63 10.5-55 14.5-43.5 16.5-46 21-33.5 16-20 5-12.7-2.8q-3.3-3.2-3.8-11.2t2.5-15.5 8-14.5 11.7-12q6.8-5 6.8-6t5.5-3.8q5.5-2.7 17-6.2t40-5.5 49.5-5 39.5-9.5 34.7-15.8q16.3-9.2 31.6-18.4 15.2-9.3 28.7-13.8t31-5 22 0.5 15 4.5 18.7 9.8l8.3 6.2 0.3 0.2 0.2 0.3 0.2 0.3 0.3 0.2 0.3 0.2 0.2 0.3 0.2 0.3 0.3 0.2 0.3 0.2 0.2 0.3 0.2 0.3 0.3 0.2 0.3 0.2 0.2 0.3 0.2 0.3 0.3 0.2 0.3 0.2 0.2 0.3 1.5 0.3 1.5 0.2-0.2-1-0.3-1-0.3-0.2-0.2-0.3-0.2-0.3-0.3-0.2-0.5-1-0.5-1-0.5-1.5-0.5-1.5-0.3-0.2q-0.2-0.3-5.7-9-5.5-8.8-6.5-9-1-0.3-1.5-1.6-0.5-1.2-1.5-1.4-1-0.3-1.5-1.6-0.5-1.2-2.7-2.7-2.3-1.5-12-8-9.8-6.5-9.8-7.5t-9.5-5.2q-9.5-4.3-26.5-10.3t-40.5-9.7z"/>
   <path d="m785 829l-3 0.5-1.5 0.5-1.5 0.5 1 0.5 1 0.5 3 0.5 3 0.5 13-1.5q13-1.5 22-4.5t18-7.5 13.5-6.8q4.5-2.2 5-3.4 0.5-1.3 2-1.6 1.5-0.2 1.5-1.2t6-4.5 8.5-6.3q2.5-2.7 13.3-13.4 10.7-10.8 23.2-27.8t21.5-34 14-29 9.5-26.5 5-16.5l0.5-2 0.3-1.5 0.2-1.5h0.2q0.3 0 3.8-21.5l3.5-21.5h0.5v429h-567l0.2-0.5 0.3-0.5 0.5-1 0.5-1 0.3-0.2 0.2-0.3 1-0.3 1-0.2 0.2-1 0.3-1 0.3-0.2 0.2-0.3 4.5-6.3q4.5-6.2 5.5-6.2t1.5-1.2q0.5-1.3 1.5-1.6 1-0.2 1.5-1.4 0.5-1.3 1.5-1.6 1-0.2 3.5-3 2.5-2.7 3.5-3 1-0.2 1-1.2t16-11.8q16-10.7 33.5-18.2t35.5-12 36.5-8.5 31.7-8.7q13.3-4.8 32.8-14.3t21.2-10q1.8-0.5 1.8-1.5t5.8-4q5.7-3 18-11 12.2-8 14.7-10.8 2.5-2.7 11-9 8.5-6.2 9-7.4 0.5-1.3 1.5-1.6 1-0.2 1.5-1.4 0.5-1.3 1.5-1.6 1-0.2 1.5-1.4 0.5-1.3 1.5-1.6 1-0.2 6-6.7t6-6.5 1.5-1.2q0.5-1.3 1.5-1.6 1-0.2 1.5-1.4 0.5-1.3 1.5-1.6 1-0.2 6-7.7t6-7.5 14.2-19q13.3-19 21.3-32t16-29.5 16.5-36.5 16-45 13.5-51.5 9-49 5.5-60 5.8-45.3q3.2-7.7 5.2-9.2t10-1 14.2 6.8q6.3 6.2 11.3 17.2t6.5 18 0.5 21-5.7 26.8q-4.8 12.7-17.6 39-12.7 26.2-17.7 41.2t-7.5 25.5-3.5 56-5 60.5-8.3 22.2q-4.2 7.3-11 15.6-6.7 8.2-9 9.7-2.2 1.5-4.7 4.3-2.5 2.7-14.5 8.7t-15 6.5z"/>
  </g>
  <path d="m554.2 176l0.3-1 0.3 0.2 0.2 0.3 1.5 0.5 1.5 0.5 11 2.5q11 2.5 12.8 0.8 1.7-1.8 1.4 0.7-0.2 2.5 5.3 3.7 5.5 1.3 6 1.6l0.5 0.2v0.2q0 0.3-0.2 3-0.3 2.8-1.6 4.3l-1.2 1.5-4.5-2q-4.5-2-3.3 7 1.3 9 3 14 1.8 5 2.8 5t5.2 6q4.3 6 12.6 11.8 8.2 5.7 19.2 10.2t23 8.5 22 9.7q10 5.8 10 6.8t3.5 3 4 3.2q0.5 1.3 1.5 1.6 1 0.2 1.5 1.4 0.5 1.3 1.5 1.6 1 0.2 7.2 9.7 6.3 9.5 10.3 18t10 28.5 11.3 32q5.2 12 6.2 12t5.5 5.8q4.5 5.7 9 8.7t11.5 3 9.8-2.3q2.7-2.2 4.2-7.7t1-15-3.8-19.3q-3.2-9.7-9.2-22.2t-8.2-15.8q-2.3-3.2-2.8-4.7l-0.5-1.5-0.3-0.2-0.2-0.3-0.2-0.3-0.3-0.2-0.5-1-0.5-1-0.3-0.2-0.2-0.3-0.2-0.3-0.3-0.2-0.5-1-0.5-1-0.3-0.2-0.2-0.3h2l0.2 0.3 0.3 0.2 0.3 0.2 0.2 0.3 0.2 0.3 0.3 0.2 0.3 0.2 0.2 0.3 0.2 0.3 0.3 0.2 0.3 0.2 0.2 0.3 0.2 0.3 0.3 0.2 0.3 0.2 0.2 0.3 0.2 0.3 0.3 0.2 0.3 0.2 0.2 0.3 0.2 0.3 0.3 0.2 4.7 7q4.8 7 5.8 7t1 1.5 1.8 3q1.7 1.5 2 3 0.2 1.5 1.2 1.5t8.8 15.5q7.7 15.5 13.7 35.5t7.5 31 1 29-3 30-9.2 24.8q-6.8 12.7-9.8 16.2t-3.2 3.8l-0.3 0.2-0.3 0.2-0.2 0.3-0.2 0.3-0.3 0.2-0.3 0.2-0.2 0.3-1 0.5-1 0.5-0.2 0.3-0.3 0.2-0.3 0.2-0.2 0.3-1 0.5-1 0.5h-2l0.2-0.3 0.3-0.2 0.3-0.2 0.2-0.3 1-0.3 1-0.2 0.2-1.5 0.3-1.5 0.3-0.2 0.2-0.3 0.2-0.3 0.3-0.2 0.5-1q0.5-1 3-8.5t3-19-2.5-21.5-9-19.5-13.5-16.5-14.2-15.5q-6.8-8.5-7.8-8.5t-4.5-6-4.5-6-6.5-10.8q-5.5-10.7-15.3-41-9.7-30.2-14.7-38.2t-10.7-12.8q-5.8-4.7-12.8-7.7t-15.5-3.5-11.3 1.2l-2.7 1.8-1 4.5q-1 4.5 3.3 12.3 4.2 7.7 7.2 11.7t4 4.3q1 0.2 13.2 16.2 12.3 16 12.6 17 0.2 1 1.2 1t11 16.5 11 16.5 12.8 23.5q11.7 23.5 20.7 50t12.5 46 4.5 26 0.5 32-4.5 46-4 23 1 5 1.3 2.7l0.2 0.3 0.2 0.3 0.3 0.2 0.3 0.5 0.2 0.5-1 0.2-1 0.3-0.2 0.3-0.3 0.2-0.5-1-0.5-1-0.3 0.2-0.2 0.3-0.2 0.3-0.3 0.2h-0.5l-1-0.5q-1-0.5-7.2 13.5-6.3 14-16.8 30.5t-19.5 31-13 24-6 21.5-2.3 20l-0.2 8 1-0.2 1-0.3 0.2-0.3 0.3-0.2 0.3-0.2 0.2-0.3 1-0.5 1-0.5 1-0.5 1-0.5 7-5q7-5 7.2-5.3l0.3-0.2 0.3-0.2 0.2-0.3 1-0.5 1-0.5 0.2-0.3 0.3-0.2 0.3-0.2 0.2-0.3 0.2-0.3 0.3-0.2 0.3-0.2 0.2-0.3 0.2-0.3 0.3-0.2 0.3-0.2 0.2-0.3h2l-0.2 0.3-0.3 0.2-0.3 0.2-0.2 0.3-0.2 0.3-0.3 0.2-0.3 0.2-0.2 0.3-0.2 0.3-0.3 0.2-0.5 1-0.5 1-0.3 0.2-0.2 0.3-1 0.3-1 0.2-5 5.8q-5 5.7-6 6-1 0.2-5.8 5.7-4.7 5.5-5 7.5-0.2 2-2 2-1.7 0-4 2.2-2.2 2.3-2.4 2.6l-0.3 0.2-0.3 0.2-0.2 0.3-0.5 0.3-0.5 0.2-1.5-0.2-1.5-0.3-0.2-0.3-0.3-0.2-0.3-0.2-0.2-0.3-0.2-0.3-0.3-0.2-0.3-1-0.2-1-1.5-0.2-1.5-0.3 0.2-0.3 0.3-0.2 0.3-0.2 0.2-0.3-1-0.5-1-0.5v-0.5l0.2-0.5 0.3-0.5h1.5l3.5-2.8q3.5-2.7 4.5-3.2l1-0.5 0.2-0.3 0.3-0.2 0.3-0.2 0.2-0.3 0.2-0.3 0.3-0.2v-2l-0.3-0.2-0.2-0.3-0.2-0.3-0.3-0.2-0.3-0.2-0.2-0.3-0.2-0.3-0.3-0.2-0.3-0.2-0.2-0.3-1-0.3-1-0.2-0.2-1-0.3-1-0.3-0.2-0.2-0.3-1.5-0.5q-1.5-0.5-2.5-1t-10.5-0.5-23 5.7q-13.5 5.8-13.5 6.8t-5.5 4.2q-5.5 3.3-8 6-2.5 2.8-11 9.6-8.5 6.7-20.5 13.2t-23.5 9-24 2.5-37-5.5-40-6-23 2-11.7 6.8q-4.3 4.2-4.3 10.7t2.3 8.5q2.2 2 2.4 3 0.3 1 7.3 5t18.3 7.2q11.2 3.3 38.7 4.3l27.5 1-1 0.5-1 0.5-4 0.5q-4 0.5-12.5 2t-26.5 2-27.5-0.5-30.5-6.5-38-14-29.8-18.8q-12.7-10.2-17-16.2-4.2-6-5.2-6t-5.2-8q-4.3-8-6.3-16.5l-2-8.5v-2l0.3 0.2 0.2 0.3 0.2 0.3 0.3 0.2 0.5 1 0.5 1 0.5 1 0.5 1 0.3 0.2 0.2 0.3 0.2 0.3 0.3 0.2 4.3 5.8q4.2 5.7 5.2 6 1 0.2 1.5 1.4 0.5 1.3 1.5 1.6 1 0.2 1.5 1.4 0.5 1.3 1.5 1.6 1 0.2 1 1.2t11 5.8q11 4.7 31 4.7t33-4 22.5-5.5 27-1 45 6.5 39 5.5 18.7-3.2q7.3-2.8 13.3-6.8t9.5-9.5 4-9 0-5l-0.5-1.5-0.5-1q-0.5-1-1.8-2.2-1.2-1.3-13.7-1.8t-29.5 2.5-45 5-51.5 1-49.5-5.5-46-11-41.5-16.8q-21.5-10.2-21.5-11.2t-12.5-9-12.7-9q-0.3-1-3.6-3.2-3.2-2.3-11.7-10l-8.5-7.8-0.2-0.5q-0.3-0.5-0.6-0.5h-0.2l-0.2-0.5q-0.3-0.5-0.6-0.7l-0.2-0.3-0.2-0.3-0.3-0.2-0.3-0.2-0.2-0.3-0.2-0.3-0.3-0.2-0.5-1-0.5-1-0.3-0.2-0.2-0.3-0.2-0.3q-0.3-0.2-3.6-4-3.2-3.7-13.2-18.7t-18.8-31.7q-8.7-16.8-16.2-28.8t-13.2-17.8q-5.8-5.7-10.3-8-4.5-2.2-4.5-3.2t-12-4.8l-12-3.7-0.2-0.3-0.3-0.2v5.5q0 5.5 0.5 11.5l0.5 6v3l-0.3-0.2-0.2-0.3-0.2-0.3-0.3-0.2-0.5-2-0.5-2-0.5-1.5-0.5-1.5-0.5-3.5q-0.5-3.5-3-11l-2.5-7.5-0.3-2-0.2-2h0.5l0.3 0.2 0.2 0.3 0.2 0.3 0.3 0.2 0.3 1 0.2 1h4l0.2-3.5 0.3-3.5h0.5v0.5l0.2 0.3 0.3 0.2 0.5 2.5 0.5 2.5 0.3-0.2 0.2-0.3 1-0.5 1-0.5 1-0.5 1-0.5 0.2-0.3 0.3-0.2 0.3-0.2 0.2-0.3 1-0.5q1-0.5 3.5-3.2 2.5-2.8 3.5-3 1-0.3 1.5-1.6 0.5-1.2 1.5-1.4 1-0.3 4.2-5 3.3-4.8 5.8-12.3t3-22.5-2.5-28.5-3.5-27 0.5-21.5 5.3-20q4.2-12 5.2-12t1.2-1q0.3-1 8-12 7.8-11 8.8-11.2 1-0.3 1.5-1.6 0.5-1.2 1.5-1.4 1-0.3 1.5-1.6 0.5-1.2 1.5-1.4 1-0.3 4-3.8t12.5-14.5 14.3-19.7q4.7-8.8 5.7-18.3t0-13-3.7-6.3q-2.8-2.7-10.3-2.7t-15.5 5-18.5 17-12.5 15.7q-2 3.8-3 3.8t-3.5 6-3.5 6-1 1.5v1.5h-2l-0.2 1.5-0.3 1.5-0.5 1.5-0.5 1.5-0.3 0.2-0.2 0.3-0.2 0.3-0.3 0.2-0.3 0.2-0.2 0.3-0.2 0.3-0.3 0.2v-3l0.5-3 0.5-3 0.3-0.2 0.2-0.3 0.2-0.3 0.3-0.2 6.7-15.5q6.8-15.5 7.8-15.5t6-9 6-9 6-7.5 8.8-11q3.7-3.5 11-9.5 7.2-6 7.2-7t1.2-1.5q1.3-0.5 1.6-1.5 0.2-1 13.7-9.5t13.5-9.5 13.5-6.8q13.5-5.7 27.5-8.2t25.5-1.5 13 1.5l1.5 0.5 1 0.5 1 0.5 2 0.5 2 0.5 0.2 0.3 0.3 0.2 0.3 0.2 0.2 0.3-10.5 1q-10.5 1-21.5 6t-15.8 9.3q-4.7 4.2-5 5.2-0.2 1-1.4 1.5-1.3 0.5-1.6 1.5-0.2 1-1.2 1t-5.8 8q-4.7 8-11.7 31.5t-15.5 40.5-12.8 23q-4.2 6-5.4 6.5-1.3 0.5-1.6 1.5-0.2 1-1.4 1.5-1.3 0.5-1.6 1.5-0.2 1-4 4.5-3.7 3.5-12.4 13.5-8.8 10-11.6 12.5-2.7 2.5-7.2 11.5t-5.5 20 1 18 3.7 11q1.8 4 4.8 5.2 3 1.3 7 0.8t5.5-1.2q1.5-0.8 1.5-1.8t1-1 7.2-14.5q6.3-14.5 15.3-37t15.3-35.5q6.2-13 7.2-13t5-7.8q4-7.7 9.5-17 5.5-9.2 6.5-9.2t8-10.5 10.8-14q3.7-3.5 9-10.5 5.2-7 6.4-7.5 1.3-0.5 1.6-1.5 0.2-1 1.4-1.5 1.3-0.5 1.6-1.5 0.2-1 17.2-15.8 17-14.7 21-17 4-2.2 4-3.2t11.5-7.8q11.5-6.7 12.5-7 1-0.2 1-1.2t20-9.8q20-8.7 29-11.7t10.5-3.3l1.5-0.2 2-0.2 2-0.3 2-0.5 2-0.5 11-2q11-2 57.5-2.5t59-5 15.3-6.2q2.7-1.8 3-2.8 0.2-1 2.4-2.5 2.3-1.5 2.6-1.7l0.2-0.3 0.2-0.3 0.3-0.2 0.3-0.2 0.2-0.3 0.2-0.3 0.3-0.2 0.3-0.2 0.2-0.3 1-0.5 1-0.5 0.2-0.3 0.3-0.2v-1l-0.3-0.2-0.2-0.3-1-0.5-1-0.5-1.5-0.5q-1.5-0.5-6-3l-4.5-2.5-1.5-0.5-1.5-0.5-0.2-0.3-0.3-0.2-0.3-0.2-0.2-0.3-1-0.3-1-0.2 0.2-1zm114.3 268l-2.5-0.5-1-0.5-1-0.5-0.2-0.3-0.3-0.2h-0.5l0.2 2 0.3 2v1l-0.3 0.2-0.2 0.3 0.2 0.3 0.3 0.2 0.5 1 0.5 1 0.5 1 0.5 1h0.5v-1q0-1 4.8 2.5 4.7 3.5 16.2 15.5t20.5 26.5 13.5 25.5 7.5 23 3 36-3.5 33.5-4.5 11-1.3 1.7l-0.2 0.3-0.2 0.3-0.3 0.2-0.3 0.2-0.2 0.3-0.2 0.3-0.3 0.2-0.3 0.2-0.2 0.3-1.5 0.5-1.5 0.5h-3l-1-0.5-1-0.5-0.2-0.3-0.3-0.2-0.3-0.2-0.2-0.3-0.2-0.3-0.3-0.2-0.5-1.5q-0.5-1.5-1.5-4t-1.5-47.5l-0.5-45-0.3 0.2-0.2 0.3-0.2 0.3-0.3 0.2-0.5 3-0.5 3-16 69q-16 69-18 84t-2.5 35-0.2 30.5l0.2 10.5-1.5-0.2-1.5-0.3-0.2-0.3-0.3-0.2-0.3-1-0.2-1-1-0.2q-1-0.3-10.5-4.3t-24.5-5.5-33 1.5-36 8-43 9.5-44 5.5-29.5-0.5-19-5-11.7-6.2q-3.3-2.8-3.8-7.8t3.2-11.2l3.8-6.3 0.2-0.3 0.3-0.2 0.3-0.2 0.2-0.3 0.2-0.3 0.3-0.2 0.3-0.2 0.2-0.3v-0.5l0.2-1 0.3-1h0.5l-0.2-0.5-0.3-0.5-0.3-0.2-0.2-0.3-1-0.3-1-0.2-1 0.2-1 0.3-1 0.5-1 0.5-2 0.5q-2 0.5-9 2.5t-25 5-38 2-29.5-3.5-22-7.5-22.5-11-12.5-8.7q-2.5-2.8-3.5-3-1-0.3-7.2-7.6-6.3-7.2-6.8-12.7l-0.5-5.5 0.3-1 0.2-1 1-0.2 1-0.3 5.2 0.7q5.3 0.8 17.6 6.6 12.2 5.7 15.7 7.4 3.5 1.8 3.5 2.8t7.5 4.8q7.5 3.7 18 9.4 10.5 5.8 10.5 6.8v1l1.5 0.2 1.5 0.3 0.2 0.3 0.3 0.2 0.3 0.2 0.2 0.3 1 0.5 1 0.5 1 0.3 1 0.2v-2l-1-0.2-1-0.3-0.2-0.3-0.3-0.2-0.3-0.2-0.2-0.3-0.2-0.3-0.3-0.2-0.3-0.2-0.2-0.3-1-0.3-1-0.2-0.2-1q-0.3-1-13-13.2-12.8-12.3-16.3-16-3.5-3.8-4.5-4-1-0.3-1.5-1.6-0.5-1.2-21.5-20-21-18.7-24.5-22.4-3.5-3.8-11-9.6-7.5-5.7-10.5-9-3-3.2-8.2-6.7-5.3-3.5-12-8-6.8-4.5-6.8-5.5t-3-2-3-2-2.2-2q-2.3-1-17.6-9.2l-15.2-8.3-1-0.5-1-0.5-0.2-0.3-0.3-0.2-0.3-0.2-0.2-0.3-1-0.5-1-0.5 0.2-0.3 0.3-0.2 0.3-0.2 0.2-0.3 0.2-0.3 0.3-0.2 0.3-0.2 0.2-0.3 1-0.5 1-0.5 1.5-0.5q1.5-0.5 6.5-4t12.2-11.2q7.3-7.8 14.3-20.3t16.5-45.5 15.5-50.5 15.5-36.5 11.8-21q2.2-2 3-4 0.7-2 7.2-9.5t13.2-11.7q6.8-4.3 11.3-4.8t6.5 1 5.8 8.2q3.7 6.8 4 11.8 0.2 5-0.8 5t-2.2 3l-1.3 3-0.5 1.5-0.5 1.5-0.3 0.2-0.2 0.3 1.5 0.5 1.5 0.5h2l-0.2-0.3-0.3-0.2-0.3-0.2-0.2-0.3 1.5-0.5 1.5-0.5 2.8 0.3q2.7 0.2 6.4-4.6 3.8-4.7 10.3-8.7t11.5-4h5l1.5 0.5 1.5 0.5 0.2 0.3 0.3 0.2 0.5 1 0.5 1-0.5 4q-0.5 4-4 10t-3.8 6.2l-0.2 0.3-0.2 0.3-0.3 0.2v4l0.3 0.2 0.2 0.3 1 0.3 1 0.2v2l1-0.2 1-0.3 0.2-0.3 0.3-0.2 0.3-0.2 0.2-0.3h2l0.5 0.3 0.5 0.2h0.5l0.5-1q0.5-1 2.5-3.5t5.7-6q3.8-3.5 4-4.5 0.3-1 1.6-1.5 1.2-0.5 3.7-4.3 2.5-3.7 7-10.4 4.5-6.8 5.5-6.8t3.2-4.5q2.3-4.5 4.8-12t2.8-15.5l0.2-8-1.5-0.2q-1.5-0.3-3-3.3t-2.5-5.3l-1-2.2-0.5-0.2q-0.5-0.3-1-0.8l-0.5-0.5-1-0.5-1-0.5-1-0.5-1-0.5-1-0.5-1-0.5-0.2-0.3-0.3-0.2-0.3-0.2-0.2-0.3-1-0.3-1-0.2 0.2 1 0.3 1 0.5 1 0.5 1 0.3 0.2 0.2 0.3 0.2 0.3 0.3 0.2 0.3 0.2 0.2 0.3 0.2 0.3q0.3 0.2 0.8 5.2t-3.5 11.5-8 9.5-11.7 7.2q-7.8 4.3-19.8 10.8l-12 6.5-0.2 0.3-0.3 0.2-0.3 0.2-0.2 0.3-0.2 0.3-0.3 0.2-0.3 0.2-0.2 0.3-0.2 0.3-0.3 0.2-0.3 0.2-0.2 0.3-0.2 0.3-0.3 0.2-0.3 0.2-0.2 0.3h-3l0.2-0.3 0.3-0.2 0.5-2 0.5-2 0.5-1.5 0.5-1.5 6.5-19.5q6.5-19.5 13.8-32.3 7.2-12.7 10.7-17.7t4.5-5.3q1-0.2 10.5-10.4 9.5-10.3 12.5-12 3-1.8 3-2.8t5.2-4.5q5.3-3.5 17.6-9.7 12.2-6.3 21.7-8.3t13-2 5.5 0.5l2 0.5 1 0.3 1 0.2 0.2 1 0.3 1 0.3 0.2 0.2 0.3 0.2 0.3 0.3 0.2v3l-0.5 1-0.5 1-0.5 1q-0.5 1-9.5 8t-17.7 12q-8.8 5-8.8 6t-16.2 9.5l-16.3 8.5-0.3 0.2-0.2 0.3-0.2 0.3-0.3 0.2-0.3 0.2-0.2 0.3-1 0.5-1 0.5-1.5 0.5-1.5 0.5-0.2 0.3-0.3 0.2-0.3 0.2-0.2 0.3h5l58-17.5q58-17.5 82-27t46-22 23.5-14 2.7-1.2q1.3 0.2 2.3 13.2t3.5 20.5 7.5 16 14.7 20.3q9.8 11.7 10.3 13 0.5 1.2 1.7 1.7 1.3 0.5 1.6 1.5 0.2 1 1.4 1.5 1.3 0.5 1.6 1.5 0.2 1 1.4 1.5 1.3 0.5 1.6 1.5 0.2 1 1.4 1.5 1.3 0.5 1.6 1.5 0.2 1 1.4 1.5 1.3 0.5 1.6 1.5 0.2 1 1.4 1.5 1.3 0.5 1.6 1.5 0.2 1 1.4 1.5 1.3 0.5 1.6 1.5 0.2 1 4.4 4.5 4.3 3.5 4.6 4.5 0.2 1 1.4 1.5 1.3 0.5 1.6 1.5 0.2 1 1.4 1.5 1.3 0.5 1.6 1.5 0.2 1 4 4.5 3.7 3.5 13.2 16t9.8 13.5q0.2 1 2 2.5 1.7 1.5 8.7 13.5t11.5 24 4.5 22.5-0.7 12q-0.8 1.5-7.8 3.3-7 1.7-11 1.2t-6.5-1z" stroke="#000"/>
  <g fill="#fff" stroke="#fff">
   <path d="m0 351v-351h378v0.2q0 0.3-7 0.8t-31 5-40.5 10.5-29.5 12.5l-13 6.5-1 0.5-1 0.5-1.5 0.5-1.5 0.5-0.2 0.3-0.3 0.2-0.3 0.2-0.2 0.3-1 0.5-1 0.5 1.5 0.5 1.5 0.5 0.2 0.3 0.3 0.2 0.3-0.2 0.2-0.3 1-0.5 1-0.5 2-0.5q2-0.5 12-4t28.5-8 38-5 31 2.5 16.5 7 5.8 5.7q0.7 1.8 1.2 7.3t-2 12-3.8 7q-1.2 0.5-1.4 1.5-0.3 1-1.6 1.5-1.2 0.5-1.4 1.5-0.3 1-10.8 7t-25.8 10.2q-15.2 4.3-50.2 7.3t-50 6-31.5 10.3q-16.5 7.2-16.5 8.2t-6 4.5-6.2 4.5q-0.3 1-6.6 6-6.2 5-6.4 6-0.3 1-1.6 1.5-1.2 0.5-1.4 1.5-0.3 1-1.6 1.5-1.2 0.5-6.4 8-5.3 7.5-13.3 21t-16 25.5-13.7 17q-5.8 5-6 6-0.3 1-8.8 6.5t-18.8 9.3q-10.2 3.7-26.2 3.7t-22.5-1.5l-6.5-1.5-1-0.5-1-0.5-0.2-0.3-0.3-0.2-0.3-0.2-0.2-0.3-1.5-0.3-1.5-0.2 0.2 1 0.3 1 0.3 0.2 0.2 0.3 0.2 0.3 0.3 0.2 0.5 1 0.5 1 0.3 0.2 0.2 0.3 0.2 0.3 0.3 0.2 0.3 1q0.2 1 1.2 1t10.2 18.5q9.3 18.5 10.8 24.5t1 26-5 38.5-12 46-9.5 42.5-1.5 46 4.5 54 12 48.5 18 47 24.3 44.7q14.2 23.3 16.7 27.6 2.5 4.2 3.5 4.2t4.5 6 6.3 8.5q2.7 2.5 6 7.5 3.2 5 4.2 5t7.5 9 7.7 9.5q1.3 0.5 1.6 1.5 0.2 1 1.2 1t12.8 13q11.7 13 19 19 7.2 6 7.2 7t1.2 1.5q1.3 0.5 1.6 1.5 0.2 1 1.4 1.5 1.3 0.5 1.6 1.5 0.2 1 27.7 22.2 27.5 21.3 28.5 21.6 1 0.2 1 1.2t14 9.5 14 9.5 7 4.8q7 3.7 13.2 8 6.3 4.2 6.6 5.2 0.2 1 4.4 4.5 4.3 3.5 6.3 7.5t1.5 10-4.8 9.2q-4.2 3.3-8.2 4.8t-20 1-24.2-3.8q-8.3-3.2-15.6-7.2-7.2-4-7.2-5t-1.2-1.5q-1.3-0.5-1.6-1.5-0.2-1-3-3-2.7-2-3-3-0.2-1-3-3.5-2.7-2.5-25.4-35.3-22.8-32.7-23.3-34-0.5-1.2-4.3-4.7-3.7-3.5-12-11.7-8.2-8.3-15.4-13.6-7.3-5.2-7.6-6.2-0.2-1-20.2-12.2-20-11.3-33.5-19.3t-23.7-17.7q-10.3-9.8-12-12.8-1.8-3-2.8-3t-7.2-13q-6.3-13-7.8-19t-1-23 1-19l0.5-2 0.3-2.5 0.2-2.5h-2l-0.2 1-0.3 1-0.3 0.2-0.2 0.3-0.2 0.3-0.3 0.2-0.5 1-0.5 1-0.5 1-0.5 1-2.5 3.5q-2.5 3.5-5.5 11.5t-4.5 15.5-2 15l-0.5 7.5h-0.5v-351zm247.2-309.2l-0.2-0.3 0.2-0.3 0.3-0.2v0.5q0 0.5-0.3 0.3z"/>
   <path d="m0 871.5v-157.5l2.2 17.5q2.3 17.5 7.6 34.7 5.2 17.3 12.7 33.8t14.7 28.8q7.3 12.2 9.6 16.2 2.2 4 3.2 4t6 8 8.8 11.5q3.7 3.5 12.4 13.3 8.8 9.7 13 13.4 4.3 3.8 4.6 4.8 0.2 1 7.4 6 7.3 5 7.6 6 0.2 1 1.7 1t4 2.8q2.5 2.7 9 6.4 6.5 3.8 6.5 4.8t1 0.8q1-0.3 2-0.6l1-0.2v3l1.5 0.2 1.5 0.3 0.2 0.3 0.3 0.2v-2l-0.3-0.2-0.2-0.3 0.2-0.3 0.3-0.2 0.3-1 0.2-1-1 0.2-1 0.3-0.2 0.3-0.3 0.2-0.5-1.5-0.5-1.5-5.5-4q-5.5-4-5.8-5-0.2-1-1.4-1.5-1.3-0.5-1.6-1.5-0.2-1-1.4-1.5-1.3-0.5-1.6-1.5-0.2-1-1.4-1.5-1.3-0.5-1.6-1.5-0.2-1-1.4-1.5-1.3-0.5-1.6-1.5-0.2-1-4-4.5-3.7-3.5-9-10.5-5.2-7-7.4-9-2.3-2-3.6-4.5-1.2-2.5-2.2-2.5t-7.2-13.5q-6.3-13.5-7.8-19t-1-14 4.5-13 8.3-5.7q4.2-1.3 11.2-0.8t13 3 13.2 6.8q7.3 4.2 7.6 5.2 0.2 1 7.4 7.5 7.3 6.5 7.6 7.5 0.2 1 3 3.5 2.7 2.5 18.4 26 15.8 23.5 16.8 23.5t4.5 6 4.5 6 6 7.5 20 18.7q15 11.3 26.5 16.8t22 8.5 22 4.5 36.5 2.5 38 4.5 23.5 8.8q10.5 5.2 10.5 6.2t4.2 4.5q4.3 3.5 7.3 9.5t2.5 16-1 10.5-1 2l-0.5 1.5-0.5 1-0.5 1-0.3 0.2-0.2 0.3-0.2 0.3-0.3 0.2-0.3 1.5-0.2 1.5h-404v-157.5z"/>
  </g>
  <g fill="#fefefe" stroke="#fefefe">
   <path d="m414 207h-1l-0.2 1.5-0.3 1.5-0.5 1-0.5 1-0.3 0.2-0.2 0.3-0.2 0.3-0.3 0.2v2h0.5v1l-1.5 0.2q-1.5 0.3-10.5 3.3t-29 11.7q-20 8.8-20 9.8t-1 1.2q-1 0.3-12.5 7-11.5 6.8-11.5 7.8t-4 3.2q-4 2.3-21 17-17 14.8-17.2 15.8-0.3 1-1.6 1.5-1.2 0.5-1.4 1.5-0.3 1-1.6 1.5-1.2 0.5-6.4 7.5-5.3 7-9 10.5-3.8 3.5-10.8 14t-8 10.5-6.5 9.2q-5.5 9.3-9.5 17-4 7.8-5 7.8t-7.2 13q-6.3 13-15.3 35.5t-15.3 37q-6.2 14.5-7.2 14.5t-1 1-1.5 1.8q-1.5 0.7-5.5 1.2t-7-0.8q-3-1.2-4.8-5.2-1.7-4-3.7-11t-1-18 5.5-20 7.2-11.5q2.8-2.5 11.6-12.5 8.7-10 12.4-13.5 3.8-3.5 4-4.5 0.3-1 1.6-1.5 1.2-0.5 1.4-1.5 0.3-1 1.6-1.5 1.2-0.5 5.4-6.5 4.3-6 12.8-23t15.5-40.5 11.7-31.5q4.8-8 5.8-8t1.2-1q0.3-1 1.6-1.5 1.2-0.5 1.4-1.5 0.3-1 5-5.2 4.8-4.3 15.8-9.3t21.5-6l10.5-1-0.2-0.3-0.3-0.2-0.3-0.2-0.2-0.3-2-0.5-2-0.5-1-0.5-1-0.5-1.5-0.5q-1.5-0.5-13-1.5t-25.5 1.5-27.5 8.2q-13.5 5.8-13.5 6.8t-13.5 9.5-13.7 9.5q-0.3 1-1.6 1.5-1.2 0.5-1.2 1.5t-7.2 7q-7.3 6-11 9.5-3.8 3.5-8.8 11t-6 7.5-6 9-6 9-7.8 15.5l-6.7 15.5-0.3 0.2-0.2 0.3-0.2 0.3-0.3 0.2-0.3 0.2-0.2 0.3 1 0.3 1 0.2v2l-1 0.2-1 0.3 1.5 0.3 1.5 0.2v-3h2v-1.5q0-1.5 1-1.5t3.5-6 3.5-6 3-3.8q2-3.7 12.5-15.7t18.5-17 15.5-5 10.3 2.7q2.7 2.8 3.7 6.3t0 13-5.7 18.3q-4.8 8.7-14.3 19.7t-12.5 14.5-4 3.8q-1 0.2-1.5 1.4-0.5 1.3-1.5 1.6-1 0.2-1.5 1.4-0.5 1.3-1.5 1.6-1 0.2-8.8 11.2-7.7 11-8 12-0.2 1-1.2 1t-5.2 12q-4.3 12-5.3 20t-0.5 21.5 3.5 27 2.5 28.5-3 22.5-5.8 12.3q-3.2 4.7-4.2 5-1 0.2-1.5 1.4-0.5 1.3-1.5 1.6-1 0.2-3.5 3-2.5 2.7-3.5 3.2l-1 0.5-0.2 0.3-0.3 0.2-0.3 0.2-0.2 0.3-1 0.5-1 0.5-1 0.5-1 0.5-0.2 0.3-0.3 0.2-0.5-2.5-0.5-2.5-0.3-0.2-0.2-0.3v-0.5l-0.2-6q-0.3-6-4.8-73t-8.5-96-10.5-56.5-13-45.5l-6.5-18-0.3-0.2-0.2-0.3-0.2-0.3-0.3-0.2-0.5-2-0.5-2-0.3-1-0.2-1 1 0.2 1 0.3 1.5 0.5 1.5 0.5 7.5 2q7.5 2 26 1.5t29.5-3.5 28.2-10.7q17.3-7.8 40-20.8 22.8-13 22.8-14t4.5-3 4.5-3 12-7.5 12-7.5 30.5-15.2q30.5-14.3 43-18.8t26-7.5 21-4 19-0.5 15.5 1.5 7 2.3q3 1.2 3 2.2t2.2 3q2.3 2 2.3 11.5t-4.3 20q-4.2 10.5-5.2 10.5zm-285.8 159.5l1.3 0.5-0.3 0.2-0.2 0.3-0.2 0.3-0.3 0.2-0.3 0.2-0.2 0.3-0.2 0.3-0.3 0.2-0.3-1.5q-0.2-1.5 1-1z"/>
   <path d="m199 708.5l13-1 1.5 0.3 1.5 0.2h3v0.2q0 0.3 0.5 0.6l0.5 0.2 8.5 7.8q8.5 7.7 11.7 10 3.3 2.2 3.6 3.2 0.2 1 12.7 9t12.5 9 21.5 11.2q21.5 10.3 41.5 16.8t46 11 49.5 5.5 51.5-1 45-5 29.5-2.5 13.7 1.8q1.3 1.2 1.8 2.2l0.5 1 0.5 1.5q0.5 1.5 0 5t-4 9-9.5 9.5-13.3 6.8q-7.2 2.7-18.7 3.2t-39-5.5-45-6.5-27 1-22.5 5.5-33 4-31-4.7q-11-4.8-11-5.8t-1-1.2q-1-0.3-1.5-1.6-0.5-1.2-1.5-1.4-1-0.3-1.5-1.6-0.5-1.2-1.5-1.4-1-0.3-5.2-6l-4.3-5.8-0.3-0.2-0.2-0.3-0.2-0.3-0.3-0.2-0.5-1-0.5-1-0.5-1-0.5-1-0.3-0.2-0.2-0.3-0.2-0.3-0.3-0.2v2l2 8.5q2 8.5 6.3 16.5 4.2 8 5.2 8t5.2 6q4.3 6 17 16.2 12.8 10.3 29.8 18.8t38 14 30.5 6.5 27.5 0.5 26.5-2 12.5-2l4-0.5 1-0.5 1-0.5-27.5-1q-27.5-1-38.7-4.3-11.3-3.2-18.3-7.2t-7.3-5q-0.2-1-2.4-3-2.3-2-2.3-8.5t4.3-10.7q4.2-4.3 11.7-6.8t23-2 40 6 37 5.5 24-2.5 23.5-9 20.5-13.2q8.5-6.8 11-9.6 2.5-2.7 8-6 5.5-3.2 5.5-4.2t13.5-6.8q13.5-5.7 23-5.7t10.5 0.5 2.5 1l1.5 0.5 0.2 0.3 0.3 0.2 0.3 1 0.2 1 1 0.2 1 0.3 0.2 0.3 0.3 0.2 0.3 0.2 0.2 0.3 0.2 0.3 0.3 0.2 0.3 0.2 0.2 0.3 0.2 0.3 0.3 0.2v2l-0.3 0.2-0.2 0.3-0.2 0.3-0.3 0.2-0.3 0.2-0.2 0.3-1 0.5q-1 0.5-4.5 3.2l-3.5 2.8h-1.5l-0.3 0.5-0.2 0.5h-0.5l-12.3 8.2q-12.2 8.3-13.7 8.6-1.5 0.2-1.5 1.2t-4.5 3-4.5 3-9.5 6.8q-9.5 5.7-14 8-4.5 2.2-4.5 3.2t-11.5 8.2q-11.5 7.3-24 16-12.5 8.8-12.5 9.8t-6 4.5-6 4.5-7.5 6-7.5 6-2 1.5-2 1.5-7.5 6-8 6.2q-0.5 1.3-1.5 1.6-1 0.2-4.5 4-3.5 3.7-19.7 20-16.3 16.2-21 22-4.8 5.7-5.8 6-1 0.2-3.2 3.7-2.3 3.5-2.8 4.5l-0.5 1-0.3 0.2-0.2 0.3-0.2 0.3-0.3 0.2-0.3 1-0.2 1-1 0.2-1 0.3-0.2 0.3-0.3 0.2-0.5-1.5-0.5-1.5-0.5-2q-0.5-2-1.5-6.5t-4-11-10.7-18.5q-7.8-12-8.8-12.2-1-0.3-1.5-1.6-0.5-1.2-1.5-1.4-1-0.3-1.5-1.6-0.5-1.2-2.5-2.4-2-1.3-10.5-8-8.5-6.8-8.5-7.8t-1.5-1.8q-1.5-0.7-13.5-8-12-7.2-12-8.2t-44-24.5-44-24.5-9.5-6-9.5-6-4.5-3-4.5-3-5-4.2q-5-3.3-7.5-6-2.5-2.8-7-6-4.5-3.3-15.3-14-10.7-10.8-20.2-22.8t-14-23-3.8-18.5q0.8-7.5 1.8-7.5t3.5-2.8q2.5-2.7 8.5-4.7t19-3z"/>
   <path d="m587.5 193l4.5 2 66.5 32.8q66.5 32.7 95.5 43.7t54 18 37 9 15 2.5l3 0.5 2 0.5 2 0.5 0.2 0.3 0.3 0.2 0.3 0.2 0.2 0.3-1 0.3-1 0.2-0.2 1-0.3 1-0.3 0.2-0.2 0.3-1 0.3-1 0.2v1q0 1-2 1.5t-2.5 1.7q-0.5 1.3-1.5 1.6-1 0.2-1.5 1.4-0.5 1.3-1.5 1.6-1 0.2-6.8 9.2-5.7 9-11.7 27.5t-7.5 29.5-1.5 80.5-2 89.5-6 38-11 35.5-12.7 25.3q-5.8 7.7-10.8 10.7t-11 2.5-9-1.8q-3-1.2-3-2.2t-1.2-1.5q-1.3-0.5-1.6-1.5-0.2-1-1.4-1.5-1.3-0.5-1.6-1.5-0.2-1-1.2-1t-2.8-3q-1.7-3-2.2-4l-0.5-1-0.3-0.2-0.2-0.3-0.2-0.3-0.3-0.2-0.3-0.2-0.2-0.3-0.2-0.3-0.3-0.2-0.3-0.2-0.2-0.3v-0.5l-0.2-0.5-0.3-0.5-0.3-0.2-0.2-0.3-0.2-0.3q-0.3-0.2-1.3-2.7t-1-5 4-23 4.5-46-0.5-32-4.5-26-12.5-46-20.7-50q-11.8-23.5-12.8-23.5t-11-16.5-11-16.5-1.2-1q-0.3-1-12.6-17-12.2-16-13.2-16.2-1-0.3-4-4.3t-7.2-11.7q-4.3-7.8-3.3-12.3l1-4.5 2.7-1.8q2.8-1.7 11.3-1.2t15.5 3.5 12.8 7.7q5.7 4.8 10.7 12.8t14.7 38.2q9.8 30.3 15.3 41 5.5 10.8 6.5 10.8t4.5 6 4.5 6 7.8 8.5q6.7 8.5 14.2 15.5t13.5 16.5 9 19.5 2.5 21.5-3 19-3 8.5l-0.5 1-0.3 0.2-0.2 0.3-0.2 0.3-0.3 0.2-0.3 1.5-0.2 1.5-1 0.2-1 0.3-0.2 0.3-0.3 0.2-0.3 0.2-0.2 0.3h2l1-0.5 1-0.5 0.2-0.3 0.3-0.2 0.3-0.2 0.2-0.3 1-0.5 1-0.5 0.2-0.3 0.3-0.2 0.3-0.2 0.2-0.3 0.2-0.3 0.3-0.2 0.3-0.2q0.2-0.3 3.2-3.8t9.8-16.2q6.7-12.8 9.2-24.8t3-30-1-29-7.5-31-13.7-35.5q-7.8-15.5-8.8-15.5t-1.2-1.5q-0.3-1.5-2-3-1.8-1.5-1.8-3t-1-1.5-5.8-7l-4.7-7-0.3-0.2-0.2-0.3-0.2-0.3-0.3-0.2-0.3-0.2-0.2-0.3-0.2-0.3-0.3-0.2-0.3-0.2-0.2-0.3-0.2-0.3-0.3-0.2-0.3-0.2-0.2-0.3-0.2-0.3-0.3-0.2-0.3-0.2-0.2-0.3-0.2-0.3-0.3-0.2-0.3-0.2-0.2-0.3h-2l0.2 0.3 0.3 0.2 0.5 1 0.5 1 0.3 0.2 0.2 0.3 0.2 0.3 0.3 0.2 0.5 1 0.5 1 0.3 0.2 0.2 0.3 0.2 0.3 0.3 0.2 0.5 1.5q0.5 1.5 2.8 4.7 2.2 3.3 8.2 15.8t9.2 22.2q3.3 9.8 3.8 19.3t-1 15-4.2 7.7q-2.8 2.3-9.8 2.3t-11.5-3-9-8.7q-4.5-5.8-5.5-5.8t-6.2-12q-5.3-12-11.3-32t-10-28.5-10.3-18q-6.2-9.5-7.2-9.7-1-0.3-1.5-1.6-0.5-1.2-1.5-1.4-1-0.3-1.5-1.6-0.5-1.2-4-3.2t-3.5-3-10-6.8q-10-5.7-22-9.7t-23-8.5-19.2-10.2q-8.3-5.8-12.6-11.8-4.2-6-5.2-6t-2.8-5q-1.7-5-3-14-1.2-9 3.3-7z"/>
   <path d="m722.2 626.2l-0.2 0.3-0.2 0.3-0.3 0.2-0.3 0.2-0.2 0.3-0.2 0.3-0.3 0.2-0.3 0.2-0.2 0.3-1.5 0.5-1.5 0.5h-3l-1-0.5-1-0.5-0.2-0.3-0.3-0.2-0.3-0.2-0.2-0.3-0.2-0.3-0.3-0.2-0.5-1.5q-0.5-1.5-1.5-4t-1.5-47.5l-0.5-45-0.3 0.2-0.2 0.3-0.2 0.3-0.3 0.2-0.5 3-0.5 3-16 69q-16 69-18 84t-2.5 35-0.2 30.5l0.2 10.5-1.5-0.2-1.5-0.3-0.2-0.3-0.3-0.2-0.3-1-0.2-1-1-0.2q-1-0.3-10.5-4.3t-24.5-5.5-33 1.5-36 8-43 9.5-44 5.5-29.5-0.5-19-5-11.7-6.2q-3.3-2.8-3.8-7.8t3.2-11.2l3.8-6.3 0.2-0.3 0.3-0.2 0.3-0.2 0.2-0.3 0.2-0.3 0.3-0.2 0.3-0.2 0.2-0.3v-0.5h0.2q0.3 0 0.6-1l0.2-1 2-1.2q2-1.3 17-3.8t28.5-6.5 24-3.5 13.7 2.2q3.3 1.8 3.6 2l0.2 0.3 0.2 0.3 0.3 0.2 0.3 0.2 0.2 0.3 0.2 0.3 0.3 0.2 0.5 1.5 0.5 1.5v4l-0.5 1q-0.5 1-1 2t-2.8 3.2q-2.2 2.3-11.2 6.3t-21 6l-12 2h-7l0.2 0.3 0.3 0.2 0.5 1 0.5 1 0.3-0.2 0.2-0.3 0.2-0.3 0.3-0.2 0.3 0.2 0.2 0.3h12.5q12.5 0 25-2t24.7-6.7q12.3-4.8 19.6-8.8 7.2-4 7.2-5t4.5-3.8q4.5-2.7 7.5-5 3-2.2 3.5-3.4 0.5-1.3 1.5-1.6 1-0.2 6.8-10.2 5.7-10 6.2-12t1-3.5l0.5-1.5 0.5-3 0.5-3 0.3-0.2 0.2-0.3-1-0.3-1-0.2-0.2 1-0.3 1-0.5 1-0.5 1-0.3 0.2-0.2 0.3-0.2 0.3-0.3 0.2-0.5 1.5q-0.5 1.5-2.5 4t-7.3 6q-5.2 3.5-5.2 4.5t-4 2.2q-4 1.3-12.5 2.3t-17.5-0.5-30.5-1.5-38 5-27.5 5.5-18.2-3.2q-7.3-3.8-9.8-7.8l-2.5-4-0.3-3-0.2-3h2l0.2-1 0.3-1 0.3-0.2 0.2-0.3h16q16 0 37.5 0.5t26 0.2l4.5-0.2 20-3.8q20-3.7 36.8-9.4 16.7-5.8 31-13.6 14.2-7.7 19.2-11 5-3.2 5-4.2t10-9.2q10-8.3 13-12.6 3-4.2 4-4.2t6.8-9q5.7-9 18.7-35t17.3-30.2q4.2-4.3 5.2-4.6 1-0.2 2.5-2 1.5-1.7 7-4.2t8-3l2.5-0.5 1.5-0.5 1.5-0.5-2-0.5-2-0.5-1-0.5-1-0.5-0.2-0.3-0.3-0.2-0.3-0.2-0.2-0.3-1-0.5q-1-0.5-4.5-2.2-3.5-1.8-3.5-2.8t-1-1.2q-1-0.3-1.5-1.6-0.5-1.2-1.5-1.4-1-0.3-2.8-3-1.7-2.8-4.2-11.3t-1.5-21.5 0.3-25.5l-0.8-12.5v-1q0-1 4.8 2.5 4.7 3.5 16.2 15.5t20.5 26.5 13.5 25.5 7.5 23 3 36-3.5 33.5-4.5 11-1.3 1.7z"/>
   <path d="m284.8 383l-1.3 3-0.5 1.5-0.5 1.5-0.3 1-0.2 1h-0.2q-0.3 0-0.6 0.5l-0.2 0.5-5.2 20.5q-5.3 20.5-8.6 27.5-3.2 7-4.2 7t-3 2.8q-2 2.7-6.5 4.2t-5.5 1.5h-1l-1-0.3-1-0.2v-1q0-1-2.2-3-2.3-2-2.8-11.5t1-15.5 6-16.5l4.5-10.5 0.3-0.2 0.2-0.3 0.2-0.3 0.3-0.2 0.3-0.2 0.2-0.3 0.2-0.3 0.3-0.2 0.3-0.2 0.2-0.3-0.2-0.3-0.3-0.2-0.3-0.2-0.2-0.3 0.2-0.3 0.3-0.2 0.3-0.2 0.2-0.3 0.2-0.3 0.3-0.2 0.3-0.2 0.2-0.3h-2l-0.2 0.3-0.3 0.2-0.5 1-0.5 1-0.3 1-0.2 1h-2l-3.5 7q-3.5 7-4.5 7t-6.8 16.5q-5.7 16.5-7.2 24.5t-1 27 5 31 5.2 14q0.8 2 2 2.5 1.3 0.5 1.6 1.5 0.2 1 1.2 1.2l1 0.3 0.2 0.3 0.3 0.2 0.3 1 0.2 1 1 0.2 1 0.3 0.2 0.3 0.3 0.2 0.3 1 0.2 1h2l-0.2-2-0.3-2-0.3-0.2-0.2-0.3-0.2-0.3-0.3-0.2-0.5-1.5q-0.5-1.5-1.5-4.5t-1.5-11.5 4-20 5.8-12q1.2-0.5 9-10 7.7-9.5 14.2-22.5t11.2-33l4.8-20h0.2q0.3 0 0.6-1.5l0.2-1.5 4.5-5.8q4.5-5.7 11-9.7t11.5-4h5l1.5 0.5 1.5 0.5 0.2 0.3 0.3 0.2 0.5 1 0.5 1-0.5 4q-0.5 4-4 10t-3.8 6.2l-0.2 0.3-0.2 0.3-0.3 0.2-0.5 1q-0.5 1-0.8 1.5l-0.2 0.5h-0.2q-0.3 0-0.6 0.5l-0.2 0.5-1.2 1.5q-1.3 1.5-6 9.5-4.8 8-5.8 8t-9.8 17.5q-8.7 17.5-15.7 38.5t-10 41.5-1.5 40.5 5.5 34.5 10.7 27.3q6.8 12.7 10.3 18.4 3.5 5.8 4.5 5.8t9.8 13q8.7 13 9 13.5l0.2 0.5v0.5l0.2 0.3 0.3 0.2 0.5 1.5 0.5 1.5 1 2.5q1 2.5 1 13.5t-0.5 13l-0.5 2-0.5 1.5-0.5 1.5-0.3 1-0.2 1h2v-2l1-0.2 1-0.3 1-0.5 1-0.5 7-3.5q7-3.5 16.5-3t17.5 4.5 13.8 8.3q5.7 4.2 6 5.2 0.2 1 10.7 6.2 10.5 5.3 12.5 5.8l2 0.5 3 0.5 3 0.5-1 0.5-1 0.5v0.5l-1 0.2-1 0.3-1 0.5-1 0.5-2 0.5q-2 0.5-9 2.5t-25 5-38 2-29.5-3.5-22-7.5-22.5-11-12.5-8.7q-2.5-2.8-3.5-3-1-0.3-7.2-7.6-6.3-7.2-6.8-12.7l-0.5-5.5 0.3-1 0.2-1 1-0.2 1-0.3 5.2 0.7q5.3 0.8 17.6 6.6 12.2 5.7 15.7 7.4 3.5 1.8 3.5 2.8t7.5 4.8q7.5 3.7 18 9.4 10.5 5.8 10.5 6.8v1l1.5 0.2 1.5 0.3 0.2 0.3 0.3 0.2 0.3 0.2 0.2 0.3 1 0.5 1 0.5 1 0.3 1 0.2v-2l-1-0.2-1-0.3-0.2-0.3-0.3-0.2-0.3-0.2-0.2-0.3-0.2-0.3-0.3-0.2-0.3-0.2-0.2-0.3-1-0.3-1-0.2-0.2-1q-0.3-1-13-13.2-12.8-12.3-16.3-16-3.5-3.8-4.5-4-1-0.3-1.5-1.6-0.5-1.2-21.5-20-21-18.7-24.5-22.4-3.5-3.8-11-9.6-7.5-5.7-10.5-9-3-3.2-8.2-6.7-5.3-3.5-12-8-6.8-4.5-6.8-5.5t-3-2-3-2-2.2-2q-2.3-1-17.6-9.2l-15.2-8.3-1-0.5-1-0.5-0.2-0.3-0.3-0.2-0.3-0.2-0.2-0.3-1-0.5-1-0.5 0.2-0.3 0.3-0.2 0.3-0.2 0.2-0.3 0.2-0.3 0.3-0.2 0.3-0.2 0.2-0.3 1-0.5 1-0.5 1.5-0.5q1.5-0.5 6.5-4t12.2-11.2q7.3-7.8 14.3-20.3t16.5-45.5 15.5-50.5 15.5-36.5 11.8-21q2.2-2 3-4 0.7-2 7.2-9.5t13.2-11.7q6.8-4.3 11.3-4.8t6.5 1 5.8 8.2q3.7 6.8 4 11.8 0.2 5-0.8 5t-2.2 3zm-35.6 152.8l-0.2-0.3 1-0.3q1-0.2 0.8 0.8l-0.3 1-0.3-0.2-0.2-0.3-0.2-0.3-0.3-0.2-0.3-0.2z"/>
   <path d="m668.5 444l-2.5-0.5-1-0.5-1-0.5-0.2-0.3-0.3-0.2h-0.5l-0.2-0.5q-0.3-0.5-1.3-3t-4.3-7l-3.2-4.5-0.2-1-0.3-1-0.3-0.2-0.2-0.3-0.2-0.3-0.3-0.2-0.3-0.2-0.2-0.3-0.2-0.3-0.3-0.2-0.3-0.2-0.2-0.3-0.2-0.3q-0.3-0.2-12-11-11.8-10.7-15.8-16.4-4-5.8-5-5.8t-2.2-3.5q-1.3-3.5-1.3-11.5v-8l0.3-0.2 0.2-0.3 0.2-0.3 0.3-0.2 0.3-0.2 0.2-0.3 1-0.5 1-0.5 0.2-0.3 0.3-0.2 0.3-0.2 0.2-0.3 6.5 1q6.5 1 9.3 2.7 2.7 1.8 3 2.8 0.2 1 5.4 4.5 5.3 3.5 6.6 6 1.2 2.5 2.2 2.5t4.5 6 4.5 6 1.2 1.5l0.3 1.5 0.3 0.2 0.2 0.3 0.2 0.3 0.3 0.2 0.3 0.2 0.2 0.3 0.2 0.3 0.3 0.2 0.3 1.5 0.2 1.5h2l-0.2-1-0.3-1-0.5-1-0.5-1-0.5-1-0.5-1-0.5-1.5q-0.5-1.5-2-4.5t-8.8-14q-7.2-11-8.2-11t-4-3.8q-3-3.7-6.5-7.4-3.5-3.8-4.5-4-1-0.3-1.5-1.6-0.5-1.2-4.5-3.4-4-2.3-4.5-3.6-0.5-1.2-6.5-4.4-6-3.3-18.5-8.3t-27-5h-14.5l-1.5 0.5-1.5 0.5-2 0.5-2 0.5-0.2 0.3-0.3 0.2-0.3 0.2-0.2 0.3 11.2 2.3q11.3 2.2 16.8 6.2t12 13 12.2 24.2q5.8 15.3 12.8 24.3t14.5 16.5 12.5 12 5.5 4.8l0.5 0.2 0.2 1 0.3 1 0.3 0.2 0.2 0.3 0.2 0.3 0.3 0.2 3.5 5q3.5 5 4.5 14t0.5 12.5-0.8 5l-0.2 1.5h-1q-1 0-1.2 1l-0.3 1-0.3 0.2-0.2 0.3-0.2 0.3-0.3 0.2-0.3 0.2-0.2 0.3-0.2 0.3-0.3 0.2-0.3 0.2-0.2 0.3h-4l-1-0.5-1-0.5-1-0.5q-1-0.5-1.2-0.8-0.3-0.2-7.8-14.7l-7.5-14.5-0.5-1-0.5-1h-0.5l-0.2-1.5q-0.3-1.5-5.8-11t-13.8-22q-8.2-12.5-9.2-12.7-1-0.3-6-7.6-5-7.2-6-7.4-1-0.3-1.5-1.6-0.5-1.2-1.5-1.4-1-0.3-1.5-1.6-0.5-1.2-1.5-1.2t-4-3.8q-3-3.7-6.5-7.4-3.5-3.8-4.5-4-1-0.3-1.5-1.6-0.5-1.2-6.3-4.7-5.7-3.5-16.4-10.7-10.8-7.3-25.3-13.8t-28.5-9.5-29-3.5-26 1-28 2-26.5-2.2l-9.5-2.8-0.5-0.2q-0.5-0.3-1-0.8l-0.5-0.5-1-0.5-1-0.5-1-0.5-1-0.5-1-0.5-1-0.5-0.2-0.3-0.3-0.2-0.3-0.2-0.2-0.3-1-0.3-1-0.2 0.2 1 0.3 1 0.5 1 0.5 1 0.3 0.2 0.2 0.3 0.2 0.3 0.3 0.2 0.3 0.2 0.2 0.3 0.2 0.3q0.3 0.2 0.8 5.2t-3.5 11.5-8 9.5-11.7 7.2q-7.8 4.3-19.8 10.8l-12 6.5-0.2 0.3-0.3 0.2-0.3 0.2-0.2 0.3-0.2 0.3-0.3 0.2-0.3 0.2-0.2 0.3-0.2 0.3-0.3 0.2-0.3 0.2-0.2 0.3-0.2 0.3-0.3 0.2-0.3 0.2-0.2 0.3h-3l0.2-0.3 0.3-0.2 0.5-2 0.5-2 0.5-1.5 0.5-1.5 6.5-19.5q6.5-19.5 13.8-32.3 7.2-12.7 10.7-17.7t4.5-5.3q1-0.2 10.5-10.4 9.5-10.3 12.5-12 3-1.8 3-2.8t5.2-4.5q5.3-3.5 17.6-9.7 12.2-6.3 21.7-8.3t13-2 5.5 0.5l2 0.5 1 0.3 1 0.2 0.2 1 0.3 1 0.3 0.2 0.2 0.3 0.2 0.3 0.3 0.2v3l-0.5 1-0.5 1-0.5 1q-0.5 1-9.5 8t-17.7 12q-8.8 5-8.8 6t-16.2 9.5l-16.3 8.5-0.3 0.2-0.2 0.3-0.2 0.3-0.3 0.2-0.3 0.2-0.2 0.3-1 0.5-1 0.5-1.5 0.5-1.5 0.5-0.2 0.3-0.3 0.2-0.3 0.2-0.2 0.3h5l58-17.5q58-17.5 82-27t46-22 23.5-14 2.7-1.2q1.3 0.2 2.3 13.2t3.5 20.5 7.5 16 14.7 20.3q9.8 11.7 10.3 13 0.5 1.2 1.7 1.7 1.3 0.5 1.6 1.5 0.2 1 1.4 1.5 1.3 0.5 1.6 1.5 0.2 1 1.4 1.5 1.3 0.5 1.6 1.5 0.2 1 1.4 1.5 1.3 0.5 1.6 1.5 0.2 1 1.4 1.5 1.3 0.5 1.6 1.5 0.2 1 1.4 1.5 1.3 0.5 1.6 1.5 0.2 1 1.4 1.5 1.3 0.5 1.6 1.5 0.2 1 4.4 4.5 4.3 3.5 4.6 4.5 0.2 1 1.4 1.5 1.3 0.5 1.6 1.5 0.2 1 1.4 1.5 1.3 0.5 1.6 1.5 0.2 1 4 4.5 3.7 3.5 13.2 16t9.8 13.5q0.2 1 2 2.5 1.7 1.5 8.7 13.5t11.5 24 4.5 22.5-0.7 12q-0.8 1.5-7.8 3.3-7 1.7-11 1.2t-6.5-1zm-321.3-147.2q-0.2-0.3 0-0.6 0.3-0.2 0.3 0.3t-0.3 0.3z"/>
  </g>
  <path d="m492.5 450.5l6.5 4 0.2 0.3 0.3 0.2 0.3 0.2 0.2 0.3 0.2 0.3 0.3 0.2 0.3 0.5 0.2 0.5 1.5 1q1.5 1 1.5 2.5t1.5 1.5 1.5 1 1 1h1.5l0.3 0.5 0.2 0.5h1q1 0 1.5 1.2 0.5 1.3 1.5 1.6 1 0.2 7.2 12.2 6.3 12 7.8 19.5t1 19.5-3 19.5-7 15.5-6.2 10.5q-1.8 2.5-3 3-1.3 0.5-1.6 1.5-0.2 1-1.4 1.5-1.3 0.5-1.6 1.5-0.2 1-6.2 4.5t-6 4.5-1.5 1.2l-1.5 0.3-1 0.5-1 0.5-0.2 0.3-0.3 0.2-0.3 0.2-0.2 0.3-1.5 0.3-1.5 0.2v2l14-1.2q14-1.3 14.2-1.6 0.3-0.2 0.6-0.4l0.2-0.3 2-0.5 2-0.5 0.2-0.3 0.3-0.2h0.5l-0.2 2.5-0.3 2.5-0.3 0.2-0.2 0.3 1 0.5 1 0.5v1l-0.2 0.3-0.3 0.2-0.3 0.2-0.2 0.3-1.5 0.5q-1.5 0.5-6.5 3t-12.5 5-16.5 4.5-24.5 2h-15.5l-1.5-0.3-1.5-0.2 0.2-0.5 0.3-0.5 0.3-0.2 0.2-0.3 0.2-0.3 0.3-0.2 0.3-0.2 0.2-0.3 0.2-0.3 0.3-0.2 0.3-0.2 0.2-0.3-0.2-0.3-0.3-0.2-0.3-0.2-0.2-0.3v-0.5l1 0.2 1 0.3 12.5-0.5q12.5-0.5 14-1t3-1l1.5-0.5 1-0.5 1-0.5 0.2-0.3 0.3-0.2 0.3-0.2 0.2-0.3 0.2-0.3 0.3-0.2 0.3-0.2 0.2-0.3 0.2-0.3 0.3-0.2 0.3-1.5 0.2-1.5h-2v-3l-1 0.2q-1 0.3-3.5 1.3l-2.5 1h-5l0.2-0.3 0.3-0.2 0.3-0.2 0.2-0.3 0.2-0.3 0.3-0.2 0.3-0.2 0.2-0.3 1-0.5 1-0.5 0.2-0.3 0.3-0.2 0.3-0.2 0.2-0.3 0.2-0.3 0.3-0.2 0.3-0.2 0.2-0.3 0.2-0.3q0.3-0.2 0.6-1.2 0.2-1 1.2-1.2 1-0.3 4.2-6 3.3-5.8 3.8-17.8t-2.2-18q-2.8-6-3.8-6t-1.2-1q-0.3-1-3.6-5l-3.2-4-1-0.2-1-0.3-0.2-0.3-0.3-0.2-0.3-0.2-0.2-0.3-0.2-0.3-0.3-0.2-0.3-0.2-0.2-0.3-0.2-0.3-0.3-0.2h-0.5l-0.2-0.5-0.3-0.5-0.3-0.2-0.2-0.3-1-0.3-1-0.2-0.2-0.5q-0.3-0.5-0.6-0.7l-0.2-0.3-0.2-0.3-0.3-0.2-0.3-0.2-0.2-0.3-1-0.5-1-0.5-0.2-0.3q-0.3-0.2-4.6-2.2-4.2-2-4.2-3t-3-2-3.2-2q-0.3-1-3-2.8-2.8-1.7-6.3-5.4-3.5-3.8-4.5-3.8t-3.8-6.5q-2.7-6.5-2.7-15.5t1.5-12.5 5.2-8.3q3.8-4.7 7.8-7.2t20-3 24 2 14.5 6.5zm-46.5 26.5l-1-0.5-0.2-0.3-0.3-0.2-0.5-1-0.5-1 0.5-4.5q0.5-4.5 1.8-5.7 1.2-1.3 6.7-0.6 5.5 0.8 5.3 6.8-0.3 6-2.6 7.2-2.2 1.3-5.2 0.8t-4-1zm61.2-10.2l-0.2-0.3 0.2-0.3q0.3-0.2 0.3 0.3t-0.3 0.3z" stroke="#000"/>
  <g fill="#fefefe" stroke="#fefefe">
   <path d="m52.8 473.8l0.2-0.3h9l3.8 4.7q3.7 4.8 9.7 18.8t15 43 9.5 30l0.5 1 0.3 1 0.2 1 0.2 2 0.3 2 2.5 7.5q2.5 7.5 3 11l0.5 3.5 0.5 1.5 0.5 1.5 0.5 1 0.5 1v-6q0-6 0-11.5v-5.5l0.3 0.2 0.2 0.3 12 3.7q12 3.8 12 4.8t4.5 3.2q4.5 2.3 10.3 8 5.7 5.8 13.2 17.8t16.2 28.8q8.8 16.7 18.8 31.7t13.2 18.7q3.3 3.8 3.6 4l0.2 0.3 0.2 0.3 0.3 0.2 0.5 1 0.5 1 0.3 0.2 0.2 0.3 0.2 0.3 0.3 0.2 0.3 0.2 0.2 0.3 1 0.3 1 0.2v2l-1-0.2-1-0.3-1-0.3-1-0.2-0.2-0.5-0.3-0.5-0.3-0.2-0.2-0.3-1-0.5-1-0.5-2-0.5-2-0.5-1-0.5q-1-0.5-26-13t-41.5-24.5-29-24.5-16-17.2q-3.5-4.8-4.5-5-1-0.3-3.5-4.6-2.5-4.2-3.5-4.2t-3-3.8q-2-3.7-5-9.4-3-5.8-4-5.8t-2-2.8q-1-2.7-8.8-21-7.7-18.2-10.7-30.7t-3.5-30.5 2.2-24.8l2.8-6.7 0.2-0.3 0.3-0.2 0.3-0.2 0.2-0.3 0.2-0.3 0.3-0.2 0.3-0.2zm57.4 132.4q0.3-0.2 0.6 0 0.2 0.3-0.3 0.3h-0.5l0.2-0.3z"/>
   <path d="m740 641.5l1 0.5 1.2 15q1.3 15 0.8 34.5t-3.5 38.5-9 37-15 36-21.3 34q-12.2 16-13.2 16t-1.5 1.2q-0.5 1.3-1.5 1.6-1 0.2-1.5 1.4-0.5 1.3-1.5 1.6-1 0.2-1 1.2t-6 5-8 6.2q-2 2.3-14 8.8t-18.5 7-8 0l-1.5-0.5-1-0.5-1-0.5-0.2-0.3-0.3-0.2-0.3-0.2-0.2-0.3-0.2-0.3-0.3-0.2-0.5-1-0.5-1v-2q0-2 4.5-11t7.2-11.5q2.8-2.5 6-7.5 3.3-5 6-7.5 2.8-2.5 3-3.5 0.3-1 1.6-1.5 1.2-0.5 1.4-1.5 0.3-1 1.6-1.5 1.2-0.5 10.4-11.5l9.3-11 0.3-0.2 0.2-0.3 0.2-0.3 0.3-0.2 0.3-0.2 0.2-0.3v-0.5l0.5-0.2 0.5-0.3 0.2-0.3 0.3-0.2 0.3-0.2q0.2-0.3 2.4-2.6 2.3-2.2 4-2.2 1.8 0 2-2 0.3-2 5-7.5 4.8-5.5 5.8-5.7 1-0.3 6-6l5-5.8 1-0.2 1-0.3 0.2-0.3 0.3-0.2 0.5-1 0.5-1 0.3-0.2 0.2-0.3 0.2-0.3 0.3-0.2 0.3-0.2 0.2-0.3 0.2-0.3 0.3-0.2 0.3-0.2 0.2-0.3h-2l-0.2 0.3-0.3 0.2-0.3 0.2-0.2 0.3-0.2 0.3-0.3 0.2-0.3 0.2-0.2 0.3-0.2 0.3-0.3 0.2-0.3 0.2-0.2 0.3-1 0.5-1 0.5-0.2 0.3-0.3 0.2-0.3 0.2q-0.2 0.3-7.2 5.3l-7 5-1 0.5-1 0.5-1 0.5-1 0.5-0.2 0.3-0.3 0.2-0.3 0.2-0.2 0.3-1 0.3-1 0.2 0.2-8q0.3-8 2.3-20t6-21.5 13-24 19.5-31 16.8-30.5q6.2-14 7.2-13.5z"/>
   <path d="m692.5 192v3l-0.3 1.5-0.2 1.5-1.5 0.2q-1.5 0.3-2.5 0.8t-12 1-46-6.8l-35-7.2-0.5-0.2q-0.5-0.3-6-1.6-5.5-1.2-5.3-3.7 0.3-2.5-1.4-0.7-1.8 1.7-12.8-0.8l-11-2.5-1.5-0.5-1.5-0.5-0.2-0.3-0.3-0.2-0.3 1-0.2 1 1 0.2 1 0.3 0.2 0.3 0.3 0.2 0.3 0.2 0.2 0.3 1.5 0.5 1.5 0.5 4.5 2.5q4.5 2.5 6 3l1.5 0.5 1 0.5 1 0.5 0.2 0.3 0.3 0.2v1l-0.3 0.2-0.2 0.3-1 0.5-1 0.5-0.2 0.3-0.3 0.2-0.3 0.2-0.2 0.3-0.2 0.3-0.3 0.2-0.3 0.2-0.2 0.3-0.2 0.3q-0.3 0.2-2.6 1.7-2.2 1.5-2.4 2.5-0.3 1-3 2.8-2.8 1.7-15.3 6.2t-59 5-57.5 2.5l-11 2-2 0.5-2 0.5-2 0.3-2 0.2v-1h0.5l0.5-1 0.5-1 0.3-0.2 0.2-0.3 1-0.5 1-0.5 0.2-0.3 0.3-0.2 0.3-0.2 0.2-0.3 0.2-0.3 0.3-0.2 0.3-0.2 0.2-0.3 5-3.3q5-3.2 5-4.2t6.5-4.5 6.5-4.5 20.5-12.2q20.5-11.3 36.5-17.3t36-10 49-4 47 4 32.2 10.7q14.3 6.8 19.8 11.3t8.5 9 3 7.5z"/>
  </g>
  <path d="m400.2 443.5l0.3 1.5 0.5-0.5q0.5-0.5 0.8-0.5h0.2v1q0 1-1 1t-1 1.5-3.8 5q-3.7 3.5-10.2 13t-8 13.5-1.5 10v6l0.3 0.2 0.2 0.3h4l0.2-0.3 0.3-0.2 0.5-1 0.5-1 0.5-2q0.5-2 1-3t7.2-12q6.8-11 7.8-11.2 1-0.3 1.5-1.6 0.5-1.2 1.5-1.4 1-0.3 1.5-1.6 0.5-1.2 6.5-4.7t6-4.5 1.5-1.2l1.5-0.3 1-0.5 1-0.5 1-0.5 1-0.5h4l-0.2 0.3-0.3 0.2-0.3 0.2-0.2 0.3-0.2 0.3-0.3 0.2-0.3 0.2-0.2 0.3-0.2 0.3-0.3 0.2-0.3 1-0.2 1h-2l-2.8 7.5q-2.7 7.5-2.2 15t2.8 13.5q2.2 6 3.2 6t3.5 3.8q2.5 3.7 6.7 6.4 4.3 2.8 4.6 3.8 0.2 1 7.7 5.2 7.5 4.3 7.7 4.6l0.3 0.2 0.3 0.2 0.2 0.3 1.5 0.5 1.5 0.5 1 0.3 1 0.2 0.2 1q0.3 1 0.6 1h0.2v0.5l0.2 0.3 0.3 0.2 0.3 0.2 0.2 0.3 0.2 0.3 0.3 0.2 0.3 0.2 0.2 0.3 1 0.3 1 0.2 0.2 1 0.3 1 0.3 0.2 0.2 0.3 1 0.5q1 0.5 2.8 2.8 1.7 2.2 5.7 8.7t4 19-4.3 19.5q-4.2 7-8.2 9.8-4 2.7-10.5 3.2t-17-1.5-19.5-6.3q-9-4.2-10.5-6-1.5-1.7-6.5-7.4-5-5.8-6-5.8t-5-6.2q-4-6.3-6.8-13.6-2.7-7.2-4.2-22.7l-1.5-15.5-0.3 0.2-0.2 0.3-0.2 0.3-0.3 0.2-0.5 1-0.5 1-0.3 0.2-0.2 0.3-0.2 0.3-0.3 0.2-0.5 1-0.5 1-0.5 1-0.5 1-2.5 5.5q-2.5 5.5-3 13.5t-0.2 12l0.2 4-0.5-0.2-0.5-0.3-1-0.5-1-0.5-1.5-0.3-1.5-0.2-0.2-1-0.3-1-0.5-3q-0.5-3-1-11t2.5-22 7.5-24.5 12.5-23 8.3-15.5l0.2-3h-1l-0.5-0.2q-0.5-0.3-0.5-0.6v-0.2l0.8-1q0.7-1 1.7-1t1.5 1 1.2 0.2q0.8-0.7 3.3 0 2.5 0.8 2.7 2.3zm-4-0.3q0.3-0.2 0.6 0 0.2 0.3-0.3 0.3t-0.3-0.3zm61.8 122.8l-0.5 1-0.3 0.2q-0.2 0.3-5.7 0.3h-5.5l-1-0.3q-1-0.2-0.8-6.2 0.3-6 3-7.2 2.8-1.3 5.8-0.3t4.2 1.7q1.3 0.8 1.3 5.3t-0.5 5.5z" stroke="#000"/>
  <g fill="#fefefe" stroke="#fefefe">
   <path d="m333.8 610.8l0.2-0.3 6.5 0.5q6.5 0.5 12.3 6.2 5.7 5.8 6 6.8 0.2 1 1.2 1t1.5 1.2q0.5 1.3 0.7 1.6l0.3 0.2 0.5 1 0.5 1 0.3 0.2 0.2 0.3 0.5 0.3 0.5 0.2 0.2 1.5 0.3 1.5 0.3 0.2 0.2 0.3 6 7q6 7 14.5 11.5t23.5 6 21.5 3.8q6.5 2.2 6.5 3.2t1.8 2.5q1.7 1.5 2.2 3t0.5 3.5v2l-0.3 1-0.2 1 1-0.2 1-0.3 0.2-0.3 0.3-0.2 0.3-0.2 0.2-0.3 0.2-0.3 0.3-0.2 0.5-1 0.5-1 0.3-0.2 0.2-0.3 0.2-0.3q0.3-0.2 3.6-2.4l3.2-2.3 0.2-0.3 0.3-0.2 0.3-0.2 0.2-0.3v-0.5l0.5-0.2q0.5-0.3 0.5-0.6v-0.2l1-0.2 1-0.3 0.2-0.3 0.3-0.2 0.3-0.2 0.2-0.3 14-5q14-5 17.5-4.5t6.7 4.2q3.3 3.8 3.8 4.8l0.5 1 0.5 1 0.5 1 0.3 1 0.2 1-0.2 1q-0.3 1-1.3 3t-4.3 3.8q-3.2 1.7-11.7 4.2l-8.5 2.5-1 0.3-1 0.2h-0.2q-0.3 0-0.6 0.5l-0.2 0.5-20-0.2q-20-0.3-41-3.8t-36.5-4.5-22 0.5-12.5 4.5l-6 3-0.2 0.3-0.3 0.2-0.3 0.2-0.2 0.3-0.2 0.3-0.3 0.2-0.3 0.2-0.2 0.3-0.2 0.3-0.3 0.2-0.3 0.2-0.2 0.3-0.2 0.3-0.3 0.2-0.5-6.5q-0.5-6.5-1.2-11.5l-0.8-5-0.2-7.5q-0.3-7.5-3.3-20.5l-3-13-0.5-1.5-0.5-1.5-0.3-1-0.2-1h2l0.2 1 0.3 1 0.5 1 0.5 1 0.3 0.2 0.2 0.3 0.2 0.3 0.3 0.2 0.3 0.2 0.2 0.3 0.2 0.3 0.3 0.2 3.7 4.8q3.8 4.7 7.6 7.4 3.7 2.8 4 3.8 0.2 1 1.4 1.5 1.3 0.5 1.6 0.7l0.2 0.3 0.2 0.3 0.3 0.2 0.3 0.2 0.2 0.3 1 0.5 1 0.5 0.2 0.3 0.3 0.2 0.3 0.2 0.2 0.3 0.2 0.3 0.3 0.2 0.3 0.2 0.2 0.3h3l-0.2-0.3-0.3-0.2-0.3-0.2-0.2-0.3-0.2-0.3-0.3-0.2-0.3-0.2-0.2-0.3-0.2-0.3-0.3-0.2-0.3-0.2-0.2-0.3-0.2-0.3-0.3-0.2-0.3-0.2-0.2-0.3-1-0.5-1-0.5-0.2-0.3-0.3-0.2-0.3-0.2q-0.2-0.3-6.7-8.8t-7.3-14.8l-0.7-6.2 0.5-1 0.5-1 0.3-0.2zm22.4 39.7l0.8-0.5-0.2 1-0.3 1-0.3-0.2-0.2-0.3-0.2-0.3q-0.3-0.2 0.4-0.7zm85 30.7q0.3-0.2 0.6 0l0.2 0.3h-0.5q-0.5 0-0.3-0.3z"/>
   <path d="m568 400l1-0.5 4.5 0.5q4.5 0.5 10.3 4.8 5.7 4.2 13.2 14.7t11.5 18 4.3 8l0.2 0.5v0.5l0.2 0.3 0.3 0.2 7.5 19q7.5 19 11.8 29.8 4.2 10.7 10.2 19.7t12 14 7 5.5 2 1l1 0.5 2 0.3 2 0.2-0.2 1-0.3 1-0.3 0.2-0.2 0.3-0.2 0.3-0.3 0.2-0.3 0.2-0.2 0.3-1 0.5-1 0.5-1 0.5q-1 0.5-7.5 4.2-6.5 3.8-6.7 4.8-0.3 1-7.6 6-7.2 5-7.4 6-0.3 1-6 5.8l-5.8 4.7-0.2 0.3-0.3 0.2-0.3 0.2-0.2 0.3-0.2 0.3-0.3 0.2-0.3 0.2-0.2 0.3-0.2 0.3-0.3 0.2-0.3 0.2-0.2 0.3-0.2 0.3-0.3 0.2-0.3 0.2-0.2 0.3-0.2 0.3-0.3 0.2-0.3 0.2-0.2 0.3-0.2 0.3-0.3 0.2-0.5 1-0.5 1-0.3 0.2-0.2 0.3-1 0.3-1 0.2 0.2-1 0.3-1 0.3-0.2 0.2-0.3 0.2-0.3 0.3-0.2 0.5-1 0.5-1 0.5-1 0.5-1 0.5-1 0.5-1 0.5-2q0.5-2 2.5-8.5t3-14.5l1-8 0.3-0.2 0.2-0.3-1-0.3-1-0.2-0.2 1-0.3 1-0.5 3-0.5 3-5 11q-5 11-6.5 12.5t-1.8 1.7l-0.2 0.3-1 0.5-1 0.5h-7l-1-0.3-1-0.2-0.2-1-0.3-1-0.5-3q-0.5-3 0-9t5.5-17.5l5-11.5 0.3-1 0.2-1h0.2q0.3 0 0.6-0.5l0.2-0.5v-0.2q0-0.3 1.2-3.6 1.3-3.2 1.8-10.7t-0.5-12.5-7-17-6.5-21 2.8-14.2l3.2-5.3 0.2-0.3 0.3-0.2 0.3-0.2 0.2-0.3 0.2-0.3 0.3-0.2 0.3-0.2 0.2-0.3 0.2-0.3 0.3-0.2 0.3-0.2 0.2-0.3 0.2-0.3 0.3-0.2 0.3-0.2 0.2-0.3h-8q-6 0-8-0.5t-7.5-3-7.5-4.2l-2-1.8v-0.2q0-0.3-6.8-6.6-6.7-6.2-5.7-11.2l1-5 0.5-1.5 0.5-1.5 0.3-0.2 0.2-0.3 0.2-0.3 0.3-0.2 0.3-0.2 0.2-0.3 0.2-0.3 0.3-0.2 0.3-0.2 0.2-0.3 1-0.5z"/>
   <path d="m421.5 343l2.5 0.5 1.5 0.5 1.5 0.5 1 0.5 1 0.5 1 0.5 1 0.5-3 0.5-3 0.5-2.5 0.5q-2.5 0.5-7.5 1.5t-10 3l-5 2-1 0.5-1 0.5-1.5 0.5-1.5 0.5-1 0.5-1 0.5-0.2 0.3-0.3 0.2v2l0.3-0.2 0.2-0.3 1-0.5 1-0.5 2.5-0.5 2.5-0.5 8.5-1.5q8.5-1.5 15-1t8 1l1.5 0.5 0.2 0.3 0.3 0.2 0.3 0.2 0.2 0.3 0.2 0.3 0.3 0.2 0.5 1 0.5 1v4l-0.5 1-0.5 1-0.5 1-0.5 1-0.3 0.2-0.2 0.3-0.2 0.3-0.3 0.2-0.3 0.2q-0.2 0.3-2 1-1.7 0.8-8 3-6.2 2.3-17.2 3.3t-18.5 3l-7.5 2-1 0.5-1 0.5-1 0.5q-1 0.5-1 0.8v0.2h-0.2q-0.3 0-0.6 0.5l-0.2 0.5h-0.2q-0.3 0-4 2.2-3.8 2.3-13.8 16.3t-16 17-14 3h-10l0.2 0.3 0.3 0.2 0.5 1 0.5 1 0.3 0.2 0.2 0.3 0.2 0.3 0.3 0.2 3 7.5q3 7.5 3 13t-0.3 8.5l-0.2 3h-0.2q-0.3 0-0.6 1.5l-0.2 1.5-2.5 7.2q-2.5 7.3-4.5 8.3t-4.5 1.5l-2.5 0.5h-5l-1-0.5-1-0.5-1-0.3-1-0.2-0.2-1q-0.3-1-0.8-1.5t-1-7 2.5-16 10.7-23.5q7.8-14 8.8-14t4-5.5l3-5.5 0.5-0.2q0.5-0.3 0.5-0.6v-0.2l0.5-0.2q0.5-0.3 0.5-0.6v-0.2h0.5l0.5-1q0.5-1 2.5-3.5t5.7-6q3.8-3.5 4-4.5 0.3-1 1.6-1.5 1.2-0.5 3.7-4.3 2.5-3.7 7-10.4 4.5-6.8 5.5-6.8t3.2-4.5q2.3-4.5 4.8-12t2.8-15.5l0.2-8v-1q0-1 18 7.2 18 8.3 24 10.3t8.5 2.5z"/>
  </g>
  <g fill="#fdfdfd" stroke="#fdfdfd">
   <path d="m468.5 329l1.5-0.5 6 0.5q6 0.5 17.2 4.8 11.3 4.2 21.6 12 10.2 7.7 18 17.4 7.7 9.8 13.7 21.3t6.5 13.5 1 3l0.5 1 0.5 1 0.5 1 0.5 2.5 0.5 2.5v2l-0.3-0.2-0.2-0.3-1-0.5-1-0.5-0.2-0.3-0.3-0.2-0.3-0.2-0.2-0.3-0.2-0.3-0.3-0.2-0.3-0.2-0.2-0.3-1-0.5-1-0.5-0.2-0.3q-0.3-0.2-0.6-1.2-0.2-1-4.2-3.2l-4-2.3-0.2-0.3-0.3-0.2-0.3-0.2-0.2-0.3-1-0.3-1-0.2-0.5-0.2q-0.5-0.3-7.5-3.8t-18.5-6.5-32-3.5-39 3.5-34 10.5l-15.5 6.5-1 0.5-1 0.5v0.5h-0.2q-0.3 0-6 2.2l-5.8 2.3h-5l-1-0.3-1-0.2 0.2-4.5 0.3-4.5 0.5-1q0.5-1 1.5-2.5t4.3-4.5l3.2-3 9.5-2.2q9.5-2.3 22-3.8t22-5.5 17-8.5 19.5-4.5 12.5 0.5 2 1l1.5 0.5 1 0.5 1 0.5 0.2 0.3 0.3 0.2 0.3 0.2 0.2 0.3 0.2 0.3 0.3 0.2 0.3 0.2 0.2 0.3 0.2 0.3 0.3 0.2v-3l-0.3-0.2-0.2-0.3-0.2-0.3-0.3-0.2-0.5-1q-0.5-1-1.5-2l-1-1-0.3-0.2-0.2-0.3-0.2-0.3-0.3-0.2-0.3-0.2-0.2-0.3-0.2-0.3-0.3-0.2-0.3-0.2-0.2-0.3-0.2-0.3-0.3-0.2-0.3-0.2-0.2-0.3-0.2-0.3-0.3-0.2-0.3-0.2-0.2-0.3h6l9 2q9 2 11 2.5l2 0.5 2.5 0.3 2.5 0.2-0.2-1-0.3-1-0.3 0.2-0.2 0.3-0.2 0.3-0.3 0.2-0.3-0.2-0.2-0.3-0.2-0.3-0.3-0.2-0.3-0.2-0.2-0.3-1.5-0.5-1.5-0.5-0.2-0.3-0.3-0.2-0.3-0.2-0.2-0.3-1.5-0.5q-1.5-0.5-9.5-4.5t-18.5-10l-10.5-6-0.2-0.3-0.3-0.2-0.3-0.2-0.2-0.3-1-0.5-1-0.5-0.2-0.3-0.3-0.2v-5l0.3-0.2 0.2-0.3 1-0.5 1-0.5 1.5-0.5zm23.7 43.8l-0.2-0.3 0.2-0.3q0.3-0.2 0.3 0.3v0.5l-0.3-0.2z"/>
   <path d="m590 493.8l1-0.3h4l1 0.5 1 0.5 0.2 0.3 0.3 0.2 0.3 0.2 0.2 0.3 0.2 0.3 0.3 0.2 0.3 0.2 0.2 0.3 0.2 0.3 0.3 0.2 2 4.5q2 4.5 1.5 11.5t-1 8.5-0.8 3l-0.2 1.5h-0.5l-5.5 12q-5.5 12-7 19.5t-2 22-2.2 20q-1.8 5.5-2.8 5.5t-3 2.8q-2 2.7-3 3-1 0.2-1 1.2t-1 1.2q-1 0.3-2.5 0.8l-1.5 0.5-0.2 0.3-0.3 0.2-0.3 0.2-0.2 0.3-1.5 0.5-1.5 0.5-1.5 0.5-1.5 0.5 7.5-0.5q7.5-0.5 8.5-1l1-0.5 1-0.5 1-0.5 1-0.5 1-0.5h2l-0.2 0.3-0.3 0.2-0.3 0.2-0.2 0.3-0.2 0.3-0.3 0.2-0.5 1-0.5 1-0.3 0.2-0.2 0.3-0.2 0.3-0.3 0.2-0.3 0.2-0.2 0.3-0.2 0.3-0.3 0.2-0.3 0.2-0.2 0.3-0.2 0.3-0.3 0.2-6.3 7.5q-6.2 7.5-7.2 7.5t-1.2 1l-0.3 1-0.3 0.2-0.2 0.3-1 0.3-1 0.2-0.2 1-0.3 1-0.3 0.2-0.2 0.3-1 0.3-1 0.2v2l1.5-0.2 1.5-0.3 0.2-0.3 0.3-0.2 0.3-0.2 0.2-0.3 0.2-0.3 0.3-0.2 0.3-0.2 0.2-0.3 1-0.5 1-0.5 0.2-0.3 0.3-0.2 15.3-10q15.2-10 15.2-11t4-2.2q4-1.3 5.5-1.8l1.5-0.5h4l1 0.3 1 0.2-0.2 3.5-0.3 3.5-0.5 1-0.5 1-0.3 0.2q-0.2 0.3-4 5.6-3.7 5.2-5.4 5.7-1.8 0.5-2 1.5-0.3 1-1.6 1.5-1.2 0.5-1.2 1.5t-11 6.8q-11 5.7-22.5 9.2t-31.5 3.8l-20 0.2v-0.5l-2.5-0.5q-2.5-0.5-7-1.5l-4.5-1-1.5-0.5-1.5-0.5 0.2-0.3 0.3-0.2 0.3-0.2 0.2-0.3 1-0.5 1-0.5 2-0.5 2-0.5 10-5q10-5 15.5-8.7 5.5-3.8 9-7.6 3.5-3.7 6.5-7.2t4-3.8q1-0.2 1.5-1.4 0.5-1.3 0.5-1.6v-0.2l0.5-0.2q0.5-0.3 0.5-0.6v-0.2l0.5-0.2q0.5-0.3 0.5-0.6v-0.2l0.5-0.2q0.5-0.3 0.5-0.6v-0.2h0.2q0.3 0 1.6-2.2 1.2-2.3 9.4-17.6 8.3-15.2 13-30.2l4.8-15 0.2-2.5 0.3-2.5 0.5-2q0.5-2 3-23.5l2.5-21.5 0.3-1 0.2-1 1-0.2zm-32.8 151.4q0.3-0.2 0.6 0 0.2 0.3-0.3 0.3t-0.3-0.3z"/>
   <path d="m316.5 485.5l-0.5 3.5 0.2 17q0.3 17 5.3 32t10.5 25 13.2 20.5q7.8 10.5 9 11 1.3 0.5 1.6 1.5 0.2 1 1.4 1.5 1.3 0.5 1.6 1.5 0.2 1 8.2 7.8 8 6.7 9 7 1 0.2 1 1.2t1.5 1.8q1.5 0.7 1.7 1l0.3 0.2 0.3 0.2 0.2 0.3 0.5 0.3 0.5 0.2 0.5 0.2q0.5 0.3 0.7 0.6l0.3 0.2 0.3 0.2 0.2 0.3 0.2 0.3 0.3 0.2 0.3 0.2 0.2 0.3 0.2 0.3 0.3 0.2 0.3 0.2 0.2 0.3 10 6.5q10 6.5 10.2 6.8l0.3 0.2 0.5 1 0.5 1 0.5 1 0.5 1 0.3 0.2 0.2 0.3 0.2 0.3 0.3 0.2v2l-0.3 0.2-0.2 0.3-0.2 0.3-0.3 0.2-0.3 0.2-0.2 0.3-0.2 0.3-0.3 0.2-0.3 0.2-0.2 0.3-0.2 0.3-0.3 0.2-0.3 0.2-0.2 0.3h-7q-7 0-13-3.5t-9.8-8.8l-3.7-5.2-0.5-1-0.5-1-0.3-0.2-0.2-0.3-0.2-0.3-0.3-0.2h-0.5l-0.2-1-0.3-1-0.3-0.2-0.2-0.3-0.2-0.3-0.3-0.2-0.5-1q-0.5-1-6.8-8.2-6.2-7.3-13.2-11.8t-15-9.5-12.2-11.7q-4.3-6.8-4.8-14.8l-0.5-8v-2l-0.3 0.2-0.2 0.3-0.2 0.3-0.3 0.2-0.5 1-0.5 1-0.5 1.5-0.5 1.5-0.3 0.2-0.2 0.3-0.2 0.3-0.3 0.2-0.5 1q-0.5 1-1 3.5l-0.5 2.5-0.5 2.5-0.5 2.5-0.3-0.2-0.2-0.3-0.2-0.3-0.3-0.2-0.5-1.5-0.5-1.5-0.5-2-0.5-2-0.5-1q-0.5-1-3.5-11l-3-10-0.5-1-0.5-1-0.5-2-0.5-2-0.3-0.2-0.2-0.3-0.2-0.3-0.3-0.2v6l1.5 24.5q1.5 24.5 1 28l-0.5 3.5-0.3 0.2-0.2 0.3-1 0.5-1 0.5h-2l-1-0.5-1-0.5-0.2-0.3-0.3-0.2-0.3-0.2-0.2-0.3-0.2-0.3-0.3-0.2-0.3-0.2-0.2-0.3-0.2-0.3-0.3-0.2-0.3-0.2-0.2-0.3-0.2-0.3-0.3-0.2-0.5-1q-0.5-1-3-9t-3-20 1.5-22 6-20 11-21 9.7-13.5q2.8-2.5 4.3-5.5t2.5-3 0.5 3.5z"/>
   <path d="m440 398l4 0.5 0.2 0.3 0.3 0.2 0.3 0.2 0.2 0.3 0.2 0.3 0.3 0.2 0.3 0.2 0.2 0.3 0.2 0.3 0.3 0.2v8l-0.3 0.2-0.2 0.3-0.2 0.3-0.3 0.2-0.3 1.5-0.2 1.5-2 0.2q-2 0.3-5 0.8t-11.5 1-14.5-2l-6-2.5-1-0.3q-1-0.2-1.2 5.3-0.3 5.5-1.6 7.5-1.2 2-2.4 2.5-1.3 0.5-1.6 1.5-0.2 1-6.7 3.8-6.5 2.7-6.5 3v0.2h-1.5l-0.3 0.5-0.2 0.5-1 0.2q-1 0.3-1 0.6v0.2h-0.2q-0.3 0-0.6 0.5l-0.2 0.5h-0.5l-0.3 0.2-0.2 0.3-1 0.5-1 0.5-4.2 5.3q-4.3 5.2-8.8 19.2t-5.2 15.2q-0.8 1.3-1 1.6l-0.3 0.2-0.3 0.2-0.2 0.3-0.2 0.3-0.3 0.2-0.3 1-0.2 1-2 0.2-2 0.3h-3l-0.2-0.3-0.3-0.2-0.3-0.2-0.2-0.3-0.2-0.3-0.3-0.2-0.3-0.2-0.2-0.3-0.2-0.3-0.3-0.2v-5q0-5 2-11l2-6 0.3-0.2 0.2-0.3 0.2-0.3 0.3-0.2 0.5-1.5 0.5-1.5 0.3-0.2 0.2-0.3 0.2-0.3 0.3-0.2 0.3-0.2 0.2-0.3h-2l-0.2 0.3-0.3 0.2-0.3 0.2-0.2 0.3-0.2 0.3-0.3 0.2-0.5 1-0.5 1-0.3 1-0.2 1h-2l-1.8 4.5q-1.7 4.5-2.2 6.5l-0.5 2-0.5 1.5-0.5 1.5-0.5 1-0.5 1-0.5-2-0.5-2-0.5-3.5q-0.5-3.5-4.5-17.5l-4-14-0.5-1.5-0.5-1.5-0.3-0.2-0.2-0.3h12q9 0 17-3t20.5-10.5 12.5-7.8v-0.2l0.5-0.2 0.5-0.3 1-0.5 1-0.5 0.2-0.3 0.3-0.2 11.7-5.2q11.8-5.3 20.8-6.8t13-1z"/>
   <path d="m430 622l2 0.5 0.2 0.3 0.3 0.2 0.3 0.2 0.2 0.3 1.5 0.3 1.5 0.2 3-0.2 3-0.3 0.2-0.3 0.3-0.2 0.3 0.2 0.2 0.3 15-3q15-3 17-2.5l2 0.5 1.5 0.5 1.5 0.5 0.2 0.3 0.3 0.2 0.3 0.2 0.2 0.3 0.2 0.3 0.3 0.2v5l-0.3 0.2-0.2 0.3-0.2 0.3-0.3 0.2-0.3 0.2-0.2 0.3-0.2 0.3-0.3 0.2-0.3 0.2-0.2 0.3-0.2 0.3-0.3 0.2-0.3 0.2-0.2 0.3-0.2 0.3-0.3 0.2-0.3 0.2-0.2 0.3-1.5 0.5q-1.5 0.5-9 2l-7.5 1.5-1 0.5-1 0.5-0.2 0.3-0.3 0.2-0.3 0.2-0.2 0.3 8-0.5q8-0.5 10.5-1l2.5-0.5 3-0.3 3-0.2-0.2 1-0.3 1-0.3 0.2-0.2 0.3-1 0.5-1 0.5-0.2 0.3-0.3 0.2-0.3 0.2-0.2 0.3-0.2 0.3-0.3 0.2-0.3 0.2-0.2 0.3-0.2 0.3-0.3 0.2-0.3 0.2-0.2 0.3-4.5 3.3q-4.5 3.2-5 4.4-0.5 1.3-1.5 1.6-1 0.2-1 1.2t-4.2 4.5q-4.3 3.5-4.8 4.5l-0.5 1-0.3 0.2-0.2 0.3-0.2 0.3-0.3 0.2-0.3 0.2-0.2 0.3-0.2 0.3-0.3 0.2-0.3 0.5-0.2 0.5h-0.5l-0.3 0.5-0.2 0.5v0.5h-1l-0.2-0.3-0.3-0.2-0.5-2q-0.5-2-1.5-4t-4.3-6.2q-3.2-4.3-6.7-8-3.5-3.8-24.5-15.6l-21-11.7-1-0.5-1-0.5-1-0.3-1-0.2-0.2-1-0.3-1-0.3-0.2-0.2-0.3 0.2-0.3 0.3-0.2 0.3-0.2 0.2-0.3 0.2-0.3 0.3-0.2 0.3-0.2 0.2-0.3v-0.5l4-1.8q4-1.7 10-0.7t9.5 2.7q3.5 1.8 4 3 0.5 1.3 6 4.3t7.5 3.5z"/>
  </g>
  <g fill="#fcfcfc" stroke="#fcfcfc">
   <path d="m387 442.2l2-0.2v0.2q0 0.3 0.5 0.6l0.5 0.2h1l-0.2 3q-0.3 3-8.3 15.5t-12.5 23-7.5 24.5-2.5 22 1 11l0.5 3 0.3 1 0.2 1 0.2 2.5 0.3 2.5 0.5 1.5 0.5 1.5 2 5q2 5 2.5 6l0.5 1 0.5 1 0.5 1 0.5 1 0.5 1v2l-0.3-0.2-0.2-0.3-1-0.5-1-0.5-1-0.3-1-0.2-0.5-0.2-0.5-0.3-0.2-0.3-0.3-0.2-0.3-0.2-0.2-0.3-1-0.5q-1-0.5-3-1.2-2-0.8-2-1.8t-6-4.5-6-4.5-1-1.2q-1-0.3-5.8-6.6-4.7-6.2-9.2-16.2t-5-19.5l-0.5-9.5 0.3-0.2 0.2-0.3 0.2-0.3 0.3-0.2 0.3-1 0.2-1 2 0.2 2 0.3 0.2 0.3 0.3 0.2 0.5 1.5 0.5 1.5 0.3 0.2 0.2 0.3 0.2 0.3 0.3 0.2 3.5 10q3.5 10 4 12l0.5 2 0.5 1.5 0.5 1.5 0.5 1 0.5 1 0.3 1 0.2 1h2l-0.2-1-0.3-1-0.5-7.5-0.5-7.5v-3l0.3 0.2 0.2 0.3 0.2 0.3 0.3 0.2 0.3 0.2 0.2 0.3 0.2 0.3 0.3 0.2 0.7 1.2q0.8 1.3 1.8 1.8l1 0.5 0.2 0.3 0.3 0.2 0.3 1 0.2 1h2l-0.2-1-0.3-1-0.3-0.2-0.2-0.3-0.2-0.3-0.3-0.2-0.5-1-0.5-1-0.5-2q-0.5-2-0.5-7t5.3-14q5.2-9 6.2-9t3.2-4.5q2.3-4.5 6.3-18t7.3-17.5l3.2-4 0.5-0.2 0.5-0.3 2-0.5q2-0.5 4-0.8z"/>
   <path d="m549 559l0.5-1 0.5 1 0.5 1-0.5 14.5q-0.5 14.5-3 21.5t-2.8 9l-0.2 2h-0.2q-0.3 0-0.6 0.5l-0.2 0.5h-0.2q-0.3 0-5.3 7.5t-11.5 13-11.2 6q-4.8 0.5-5-1.5-0.3-2 5.7-9.5t9.3-10.5q3.2-3 3.4-4 0.3-1 1.6-1.5l1.2-0.5 0.2-1 0.3-1 0.3-0.2 0.2-0.3 1-0.3 1-0.2v-3h-2v2l-1 0.2-1 0.3-0.2 0.3-0.3 0.2-0.3 0.2-0.2 0.3-1 0.5q-1 0.5-4.2 2.8l-3.3 2.2-0.3 0.2-0.2 0.3-1.5 0.3-1.5 0.2v2l-1 0.2-1 0.3-0.2 0.3-0.3 0.2-0.3 0.2-0.2 0.3-0.2 0.3-0.3 0.2-0.3 0.2-0.2 0.3-1 0.3-1 0.2 0.2-1 0.3-1 0.3-0.2 0.2-0.3 0.2-0.3 0.3-0.2 0.3-0.2 0.2-0.3 0.2-0.3 0.3-0.2 0.3-0.2 0.2-0.3 0.2-0.3 0.3-0.2 0.3-0.2 0.2-0.3 0.2-0.3q0.3-0.2 0.8-2.7l0.5-2.5v-4l-0.5 1-0.5 1-0.3 1-0.2 1h-2l-0.2 1-0.3 1-0.3 0.2q-0.2 0.3-1.2 0.6-1 0.2-1.2 1.2-0.3 1-3.6 2.2-3.2 1.3-11.7 1.3t-18.5-0.5-15 1-14.5 3.2l-9.5 1.8v-0.5l-1.5-0.5q-1.5-0.5-2.5-1l-1-0.5-0.2-0.3-0.3-0.2-0.3-0.2-0.2-0.3-1-0.5-1-0.5-0.2-0.3-0.3-0.2-0.3-0.2-0.2-0.3-0.2-0.3-0.3-0.2-0.5-1-0.5-1v-3l0.3-1 0.2-1h12l1.5 0.2 1.5 0.3h15.5q15.5 0 24.5-2t16.5-4.5 12.5-5 6.5-3l1.5-0.5 0.2-0.3 0.3-0.2 0.3-0.2 0.2-0.3v-0.5l1-0.2 1-0.3 0.2-0.3 0.3-0.2 0.3-0.2 0.2-0.3 1-0.5 1-0.5 0.2-0.3 0.3-0.2 0.3-0.2 0.2-0.3 1-0.3q1-0.2 3.2-2.7 2.3-2.5 6-6 3.8-3.5 6.6-8l2.7-4.5 0.3-0.2 0.2-0.3 0.2-0.3 0.3-0.2 0.5-1 0.5-1 0.3-0.2 0.2-0.3 0.2-0.3 0.3-0.2 0.5-1zm-12.5 39.8q1.5-0.8 1.5 0.2t-1.5 0.8q-1.5-0.3 0-1z"/>
  </g>
  <path d="m544.2 432l0.3-1 0.3 0.2 0.2 0.3 1 0.5 1 0.5 1 0.5 1 0.5 1.5 0.5 1.5 0.5 6.5 2.5q6.5 2.5 7 2.8l0.5 0.2 2 0.2 2 0.3 1.5 0.5 1.5 0.5 4 1q4 1 6.5 1.5l2.5 0.5 2 0.3 2 0.2-0.2 1-0.3 1-0.5 1-0.5 1-0.3 0.2-0.2 0.3-1 0.3q-1 0.2-3.8 6.7-2.7 6.5-3.7 12t-1.5 32-1.5 33.5-1.5 8l-0.5 1-0.3 1-0.2 1-0.2 1q-0.3 1-0.8 2.5t-3.8 7.3q-3.2 5.7-8.2 5.7t-7.2-3.7q-2.3-3.8-0.3-8.8t6.3-11.2q4.2-6.3 9.2-8.3l5-2 1-0.5 1-0.5-1-0.5-1-0.5-1-0.5-1-0.5-1-0.5q-1-0.5-2.5-2.2-1.5-1.8-2.5-1.8t-2.2-3q-1.3-3-1.8-19t-3.8-23q-3.2-7-4.2-7.2-1-0.3-1.5-1.6-0.5-1.2-1.5-1.2h-1l-0.2-0.5-0.3-0.5-0.3-1-0.2-1h-3l-0.2-1-0.3-1-0.3-0.2q-0.2-0.3-1.2-0.6-1-0.2-1.2-1.2-0.3-1-1.6-1.5-1.2-0.5-3.4-5l-2.3-4.5-0.3-0.2-0.2-0.3-0.2-0.3-0.3-0.2v-3l0.5-1.5 0.5-1.5 0.3-0.2 0.2-0.3 0.2-0.3 0.3-0.2 0.3-0.2 0.2-0.3 0.2-0.3 0.3-0.2 0.3-0.2 0.2-0.3h5l0.2 0.3 0.3 0.2 0.3 0.2 0.2 0.3 0.2 0.3 0.3 0.2 0.3 0.2 0.2 0.3 4 3q4 3 4.2 3.3l0.3 0.2 0.5 1 0.5 1 0.3 0.2 0.2 0.3 0.2 0.3 0.3 0.2 0.3 0.2 0.2 0.3 0.2 0.3 0.3 0.2 0.3 1 0.2 1 1-0.2 1-0.3-0.2-0.3-0.3-0.2-0.5-1.5-0.5-1.5-0.3-0.2-0.2-0.3-0.2-0.3-0.3-0.2-0.5-1-0.5-1-0.3-0.2-0.2-0.3-0.2-0.3-0.3-0.2-0.5-1q-0.5-1-2.5-3.5l-2-2.5-0.3-0.2-0.2-0.3-0.2-0.3-0.3-0.2-0.3-0.2-0.2-0.3-0.2-0.3-0.3-0.2-0.3-0.2-0.2-0.3-0.2-0.3-0.3-0.2-0.3-0.2-0.2-0.3-1-0.3-1-0.2 0.2-1zm15 22.8l-0.2-0.3 1-0.3q1-0.2 0.8 0.8l-0.3 1-0.3-0.2-0.2-0.3-0.2-0.3-0.3-0.2-0.3-0.2z" fill="#fdfdfd" stroke="#fdfdfd"/>
  <path d="m648.8 427.8l0.2-0.3 0.2-0.3 0.3-0.2 0.3 1 0.2 1 1-0.2 1-0.3 1-0.5 1-0.5v-0.5l3.2 4.5q3.3 4.5 4.3 7t1.3 3l0.2 0.5 0.2 2 0.3 2v1l-0.3 0.2-0.2 0.3 0.2 0.3 0.3 0.2 0.5 1 0.5 1 0.5 1 0.5 1h0.5l0.8 12.5q0.7 12.5-0.3 25.5t1.5 21.5 4.2 11.3q1.8 2.7 2.8 3 1 0.2 1.5 1.4 0.5 1.3 1.5 1.6 1 0.2 1 1.2t3.5 2.8q3.5 1.7 4.5 2.2l1 0.5 0.2 0.3 0.3 0.2 0.3 0.2 0.2 0.3 1 0.5 1 0.5 2 0.5 2 0.5-1.5 0.5-1.5 0.5-2.5 0.5q-2.5 0.5-8 3t-7 4.2q-1.5 1.8-2.5 2-1 0.3-5.2 4.6-4.3 4.2-17.3 30.2t-18.7 35q-5.8 9-6.8 9t-4 4.2q-3 4.3-13 12.6-10 8.2-10 9.2t-5 4.2q-5 3.3-19.2 11-14.3 7.8-31 13.6-16.8 5.7-36.8 9.4l-20 3.8v-0.2q0-0.3-2.5-0.8l-2.5-0.5-1-0.3-1-0.2-0.2-1-0.3-1-0.3-0.2-0.2-0.3-1-0.3-1-0.2-0.2-2-0.3-2-0.3-0.2-0.2-0.3v-0.5l0.5-0.2 0.5-0.3v-0.5l1-0.2 1-0.3 8.5-2.5q8.5-2.5 11.7-4.2 3.3-1.8 4.3-3.8t1.3-3l0.2-1 0.5-0.2 0.5-0.3 0.2-0.3 0.3-0.2 0.5-2 0.5-2 0.3-2 0.2-2 1 0.2 1 0.3h1l0.2-0.3 0.3-0.2 0.5-1 0.5-1 0.5 1 0.5 1 0.3-0.2 0.2-0.3 0.2-0.3 0.3-0.2 0.3-0.2 0.2-0.3v-0.5l20-0.2q20-0.3 31.5-3.8t22.5-9.2q11-5.8 11-6.8t1.2-1.5q1.3-0.5 1.6-1.5 0.2-1 2-1.5 1.7-0.5 5.4-5.7 3.8-5.3 4-5.6l0.3-0.2 0.5-1 0.5-1 0.3-3.5 0.2-3.5-1-0.2-1-0.3h-4l-1.5 0.5q-1.5 0.5-5.5 1.8-4 1.2-4 2.2t-15.2 11l-15.3 10-0.3 0.2-0.2 0.3-1 0.5-1 0.5-0.2 0.3-0.3 0.2-0.3 0.2-0.2 0.3-0.2 0.3-0.3 0.2-0.3 0.2-0.2 0.3-1 0.3-1 0.2-0.2 1-0.3 1-0.3 0.2-0.2 0.3-1 0.3-1 0.2 0.2-1 0.3-1 0.3-0.2 0.2-0.3 0.2-0.3 0.3-0.2 0.3-1 0.2-1 1-0.2 1-0.3 0.2-0.3 0.3-0.2 0.3-1 0.2-1 1-0.2 1-0.3 0.2-0.3 0.3-0.2 0.3-1q0.2-1 1.2-1t7.2-7.5l6.3-7.5 0.3-0.2 0.2-0.3 0.2-0.3 0.3-0.2 0.3-0.2 0.2-0.3 0.2-0.3 0.3-0.2 0.3-0.2 0.2-0.3 0.2-0.3 0.3-0.2 0.5-1 0.5-1 0.3-0.2 0.2-0.3 0.2-0.3 0.3-0.2 0.3-0.2 0.2-0.3h-2l-1 0.5-1 0.5-1 0.5-1 0.5-1 0.5q-1 0.5-8.5 1l-7.5 0.5 1.5-0.5 1.5-0.5 1.5-0.5 1.5-0.5 0.2-0.3 0.3-0.2 0.3-0.2 0.2-0.3 1.5-0.5q1.5-0.5 2.5-0.8 1-0.2 1-1.2t1-1.2q1-0.3 3-3 2-2.8 3-2.8t2.8-5.5q1.7-5.5 2.2-20t2-22 7-19.5l5.5-12h0.5v3l1 0.2 1 0.3 0.2 0.3 0.3 0.2 0.3-0.2 0.2-0.3 0.2-0.3 0.3-0.2 0.3 0.2 0.2 0.3 0.2 0.3 0.3 0.2 0.3-0.2 0.2-0.3 0.2-0.3 0.3-0.2 0.3-1 0.2-1h2l-0.2 1-0.3 1-0.3 0.2-0.2 0.3-0.2 0.3-0.3 0.2-5 11.5q-5 11.5-5.5 17.5t0 9l0.5 3 0.3 1 0.2 1 1 0.2 1 0.3h7l1-0.5 1-0.5 0.2-0.3q0.3-0.2 1.8-1.7t6.5-12.5l5-11 0.5-3 0.5-3 0.3-1 0.2-1 1 0.2 1 0.3-0.2 0.3-0.3 0.2-1 8q-1 8-3 14.5t-2.5 8.5l-0.5 2-0.5 1-0.5 1-0.5 1-0.5 1-0.3 1-0.2 1 1-0.2 1-0.3 0.2-0.3 0.3-0.2 0.3-0.2 0.2-0.3 0.2-0.3 0.3-0.2 0.3-0.2 0.2-0.3 0.2-0.3 0.3-0.2 0.3-0.2 0.2-0.3 0.2-0.3 0.3-0.2 0.3-0.2 0.2-0.3 0.2-0.3 0.3-0.2 0.3-0.2 0.2-0.3 5.8-4.7q5.7-4.8 6-5.8 0.2-1 7.4-6 7.3-5 7.6-6 0.2-1 6.7-4.8 6.5-3.7 7.5-4.2l1-0.5 1-0.5 1-0.5 0.2-0.3 0.3-0.2 0.3-0.2 0.2-0.3 0.2-0.3 0.3-0.2 0.3-1 0.2-1-2-0.2-2-0.3-1-0.5q-1-0.5-2-1t-7-5.5-12-14-10.2-19.7q-4.3-10.8-11.8-29.8l-7.5-19-0.3-0.2-0.2-0.3v-0.5l1.5-0.2 1.5-0.3 0.2-0.3 0.3-0.2 0.3 0.2 0.2 0.3 0.2 0.3 0.3 0.2 0.3-0.2 0.2-0.3 0.2-0.3 0.3-0.2 0.3 0.2 0.2 0.3 0.2 0.3 0.3 0.2 0.3-0.2 0.2-0.3 0.2-0.3 0.3-0.2v-1l-0.3-0.2-0.2-0.3 1-0.5 1-0.5v-0.5h0.5l0.5 1 0.5 1 7.5 14.5q7.5 14.5 7.8 14.7 0.2 0.3 1.2 0.8l1 0.5 1 0.5 1 0.5h4l0.2-0.3 0.3-0.2 0.3-0.2 0.2-0.3 0.2-0.3 0.3-0.2 0.3-0.2 0.2-0.3 0.2-0.3 0.3-0.2 0.3-1q0.2-1 1.2-1h1l0.2-1.5q0.3-1.5 0.8-5t-0.5-12.5-4.5-14l-3.5-5-0.3-0.2-0.2-0.3-0.2-0.3-0.3-0.2-0.3-1-0.2-1 1.5-0.8q1.5-0.7 2.3 0 0.7 0.8 1.2-0.2l0.5-1 0.3-0.2zm12.4 19q-0.2-0.3 0-0.6 0.3-0.2 0.3 0.3t-0.3 0.3zm-47 135q-0.2-0.3 0-0.6 0.3-0.2 0.3 0.3t-0.3 0.3z" fill="#010101" stroke="#010101"/>
  <path d="m530 402.8l1 0.2 1.8 2.5q1.7 2.5 2 4l0.2 1.5-1 0.2-1 0.3h-4q-4 0-18-3l-14-3-1-0.5-1-0.5-1-0.3q-1-0.2-1 0.8t1 1.2l1 0.3 0.2 0.3 0.3 0.2 0.3 0.2 0.2 0.3 1 0.5 1 0.5 3 1.5q3 1.5 4.5 2l1.5 0.5 1 0.5 1 0.5 0.2 0.3 0.3 0.2 0.3 0.2 0.2 0.3 1 0.5 1 0.5-1.5 0.5-1.5 0.5-2 0.5q-2 0.5-3.5 1l-1.5 0.5-2 0.5-2 0.5 4 0.5 4 0.5 5 2q5 2 6.8 3.3 1.7 1.2 8.4 15.4 6.8 14.3 10.3 18.3t4.5 4.5l1 0.5 0.2 0.3 0.3 0.2 0.3 0.2 0.2 0.3 0.2 0.3 0.3 0.2 0.3 0.2 0.2 0.3 0.5 0.3 0.5 0.2 1.2 1.5q1.3 1.5 1.6 1.7l0.2 0.3 0.2 0.3 0.3 0.2 0.3 0.2 0.2 0.3 2.2 3.3q2.3 3.2 2.8 4.2t1 3l0.5 2v3l-0.5 1.5-0.5 1.5-0.5 1-0.5 1-0.3 1-0.2 1-1 0.2-1 0.3h-2l-0.2-0.3-0.3-0.2-0.3-0.2-0.2-0.3-0.2-0.3-0.3-0.2-0.3-0.2-0.2-0.3-0.2-0.3-0.3-0.2-0.3-1.5q-0.2-1.5-1.2-1.5h-1l-0.2-1-0.3-1-0.5-2q-0.5-2-4.8-11-4.2-9-5.2-9t-4.5-6-4.5-6.2q-1-0.3-1.5-1.6-0.5-1.2-1.5-1.2t-1.2-1q-0.3-1-6.6-7.2-6.2-6.3-9.7-10-3.5-3.8-15.5-9.3l-12-5.5-0.2-0.5q-0.3-0.5-0.6-0.5h-0.2l-2-0.2q-2-0.3-12-1.8l-10-1.5-0.2-0.3-0.3-0.2-0.3-0.2-0.2-0.3 1-0.5 1-0.5 0.2-0.3 0.3-0.2 0.3-0.2 0.2-0.3 1-0.5 1-0.5 0.2-0.3 0.3-0.2 0.3-0.2 0.2-0.3 8.5-4q8.5-4 18-6t19-1.5 18.5 3.5 10 3.3z" fill="#fcfcfc" stroke="#fcfcfc"/>
  <path d="m364 315.2l-1-2.2 9.5 2.8q9.5 2.7 26.5 2.2t28-2 26-1 29 3.5 28.5 9.5 25.3 13.8q10.7 7.2 16.4 10.7 5.8 3.5 6.3 4.7 0.5 1.3 1.5 1.6 1 0.2 4.5 4 3.5 3.7 6.5 7.4 3 3.8 4 3.8t1.5 1.2q0.5 1.3 1.5 1.6 1 0.2 1.5 1.4 0.5 1.3 1.5 1.6 1 0.2 6 7.4 5 7.3 6 7.6 1 0.2 9.2 12.7 8.3 12.5 13.8 22t5.8 11l0.2 1.5v0.5l-1 0.5-1 0.5 0.2 0.3 0.3 0.2v1l-0.3 0.2-0.2 0.3-0.2 0.3-0.3 0.2-0.3-0.2-0.2-0.3-0.2-0.3-0.3-0.2-0.3 0.2-0.2 0.3-0.2 0.3-0.3 0.2-0.3-0.2-0.2-0.3-0.2-0.3-0.3-0.2-0.3 0.2-0.2 0.3-1.5 0.3-1.5 0.2-0.2-0.5q-0.3-0.5-4.3-8t-11.5-18-13.2-14.7q-5.8-4.3-10.3-4.8l-4.5-0.5-1 0.5-1 0.5-0.2 0.3-0.3 0.2-0.3 0.2-0.2 0.3-0.2 0.3-0.3 0.2-0.3 0.2-0.2 0.3-0.2 0.3-0.3 0.2-0.5 1.5-0.5 1.5-1 5q-1 5 5.7 11.2 6.8 6.3 6.8 6.6v0.2l-2 2.2q-2 2.3 0.5 2.8l2.5 0.5-1 0.3-1 0.2v2l1 0.2 1 0.3-2 0.5-2 0.5-3 0.5-3 0.5v0.5l-0.5-0.2q-0.5-0.3-7-2.8l-6.5-2.5-1.5-0.5-1.5-0.5-1-0.5-1-0.5-1-0.5-1-0.5-0.2-0.3-0.3-0.2-0.3 1-0.2 1 1 0.2 1 0.3 0.2 0.3 0.3 0.2 0.3 0.2 0.2 0.3 0.2 0.3 0.3 0.2 0.3 0.2 0.2 0.3 0.2 0.3 0.3 0.2 0.3 0.2 0.2 0.3 0.2 0.3 0.3 0.2 2 2.5q2 2.5 2.5 3.5l0.5 1 0.3 0.2 0.2 0.3 0.2 0.3 0.3 0.2 0.5 1 0.5 1 0.3 0.2 0.2 0.3 0.2 0.3 0.3 0.2 0.5 1.5 0.5 1.5 0.3 0.2 0.2 0.3 0.2 0.3 0.3 0.2 0.5 1 0.5 1v2l-0.3-0.2-0.2-0.3-0.2-0.3-0.3-0.2-0.3-0.2-0.2-0.3-0.2-0.3-0.3-0.2-0.5-1-0.5-1-0.5-1-0.5-1-0.3-0.2-0.2-0.3-0.2-0.3-0.3-0.2-0.3-0.2-0.2-0.3-0.2-0.3-0.3-0.2-0.5-1-0.5-1-0.3-0.2q-0.2-0.3-4.2-3.3l-4-3-0.2-0.3-0.3-0.2-0.3-0.2-0.2-0.3-0.2-0.3-0.3-0.2-0.3-0.2-0.2-0.3h-5l-0.2 0.3-0.3 0.2-0.3 0.2-0.2 0.3-0.2 0.3-0.3 0.2-0.3 0.2-0.2 0.3-0.2 0.3-0.3 0.2-0.5 1.5-0.5 1.5v3l0.3 0.2 0.2 0.3 0.2 0.3 0.3 0.2 2.3 4.5q2.2 4.5 3.4 5 1.3 0.5 1.6 1.5 0.2 1 1.2 1.2 1 0.3 1.2 0.6l0.3 0.2 0.3 1 0.2 1h3l0.2 1 0.3 1 0.3 0.5 0.2 0.5-0.5 0.2-0.5 0.3-1 0.5-1 0.5-1 0.3-1 0.2-0.5-0.2-0.5-0.3-0.2-0.3-0.3-0.2-0.3-0.2-0.2-0.3-0.2-0.3-0.3-0.2-0.3-0.2-0.2-0.3-1-0.5q-1-0.5-4.5-4.5t-10.3-18.3q-6.7-14.2-8.4-15.4-1.8-1.3-6.8-3.3l-5-2-4-0.5-4-0.5 2-0.5 2-0.5 1.5-0.5q1.5-0.5 3.5-1l2-0.5 1.5-0.5 1.5-0.5-1-0.5-1-0.5-0.2-0.3-0.3-0.2-0.3-0.2-0.2-0.3-1-0.5-1-0.5-1.5-0.5q-1.5-0.5-4.5-2l-3-1.5-1-0.5-1-0.5-0.2-0.3-0.3-0.2-0.3-0.2-0.2-0.3-2-0.3-2-0.2v-2l2 0.2 2 0.3 1 0.5 1 0.5 14 3q14 3 18 3h4l1-0.3 1-0.2-0.2-1.5q-0.3-1.5-2-4l-1.8-2.5h1q1 0 1-1v-1l1.5-0.2 1.5-0.3 0.2-0.3 0.3-0.2 0.3-0.2 0.2-0.3 0.2-0.3 0.3-0.2 0.3-0.5 0.2-0.5 1 0.2 1 0.3 0.2 0.3 0.3 0.2 0.3 0.2 0.2 0.3 4 2.3q4 2.2 4.2 3.2 0.3 1 0.6 1.2l0.2 0.3 1 0.5 1 0.5 0.2 0.3 0.3 0.2 0.3 0.2 0.2 0.3 0.2 0.3 0.3 0.2 0.3 0.2 0.2 0.3 1 0.5 1 0.5 0.2 0.3 0.3 0.2v-2l-0.5-2.5-0.5-2.5-0.5-1-0.5-1-0.5-1q-0.5-1-1-3t-6.5-13.5-13.7-21.3q-7.8-9.7-18-17.4-10.3-7.8-21.6-12-11.2-4.3-17.2-4.8l-6-0.5-1.5 0.5-1.5 0.5-1 0.5-1 0.5-0.2 0.3-0.3 0.2v5l0.3 0.2 0.2 0.3 1 0.5 1 0.5 0.2 0.3 0.3 0.2 0.3 0.2 0.2 0.3 10.5 6q10.5 6 18.5 10t9.5 4.5l1.5 0.5 0.2 0.3 0.3 0.2 0.3 0.2 0.2 0.3 1.5 0.5 1.5 0.5 0.2 0.3 0.3 0.2 0.3 0.2 0.2 0.3 0.2 0.3 0.3 0.2 0.3-0.2 0.2-0.3 0.2-0.3 0.3-0.2 0.3 1 0.2 1-2.5-0.2-2.5-0.3-2-0.5q-2-0.5-11-2.5l-9-2h-6l0.2 0.3 0.3 0.2 0.3 0.2 0.2 0.3 0.2 0.3 0.3 0.2 0.3 0.2 0.2 0.3 0.2 0.3 0.3 0.2 0.3 0.2 0.2 0.3 0.2 0.3 0.3 0.2 0.3 0.2 0.2 0.3 0.2 0.3 0.3 0.2 1 1q1 1 1.5 2l0.5 1 0.3 0.2 0.2 0.3 0.2 0.3 0.3 0.2 0.3 1 0.2 1h2l-0.2 1.5-0.3 1.5-0.3-0.2-0.2-0.3-0.2-0.3-0.3-0.2-0.3-0.2-0.2-0.3-0.2-0.3-0.3-0.2-0.3-0.2-0.2-0.3-0.2-0.3-0.3-0.2-0.3-0.2-0.2-0.3-0.2-0.3-0.3-0.2-0.3-0.2-0.2-0.3-1-0.5-1-0.5-1.5-0.5q-1.5-0.5-2-1t-12.5-0.5-19.5 4.5-17 8.5-22 5.5-22 3.8l-9.5 2.2-0.2-0.5-0.3-0.5-0.3-0.2-0.2-0.3 0.2-0.3 0.3-0.2 0.3-0.2 0.2-0.3-0.2-0.3-0.3-0.2-0.5-1-0.5-1-0.3-0.2-0.2-0.3-0.2-0.3-0.3-0.2-0.3 0.2-0.2 0.3-1.5 0.3-1.5 0.2v-2l1.5-0.2 1.5-0.3 1-0.5 1-0.5 7.5-2q7.5-2 18.5-3t17.2-3.3q6.3-2.2 8-3 1.8-0.7 2-1l0.3-0.2 0.3-0.2 0.2-0.3 0.2-0.3 0.3-0.2 0.5-1 0.5-1 0.5-1 0.5-1v-4l-0.5-1-0.5-1-0.3-0.2-0.2-0.3-0.2-0.3-0.3-0.2-0.3-0.2-0.2-0.3-1.5-0.5q-1.5-0.5-8-1t-15 1l-8.5 1.5-2.5 0.5-2.5 0.5-1 0.5-1 0.5-0.2 0.3-0.3 0.2v-2l0.3-0.2 0.2-0.3 1-0.5 1-0.5 1.5-0.5 1.5-0.5 1-0.5 1-0.5 5-2q5-2 10-3t7.5-1.5l2.5-0.5 3-0.5 3-0.5-1-0.5-1-0.5-1-0.5-1-0.5-1.5-0.5-1.5-0.5-2.5-0.5q-2.5-0.5-8.5-2.5t-24-10.3q-18-8.2-18-7.2v1l-1.5-0.2q-1.5-0.3-3-3.3t-2.5-5.3zm3.2 1.6q-0.2-0.3 0-0.6 0.3-0.2 0.3 0.3t-0.3 0.3z" fill="#020202" stroke="#020202"/>
  <path d="m511.8 456.8l0.2-0.3h4l0.2 0.3 0.3 0.2 0.3 0.2 0.2 0.3 1 0.5 1 0.5 3.5 4.3q3.5 4.2 5.3 5.7 1.7 1.5 5.7 9t4.5 9.5l0.5 2 0.5 1 0.5 1 0.3 1 0.2 1v0.5l0.2 0.3 0.3 0.2 4.7 10.8q4.8 10.7 9.3 15.2t6 4.8l1.5 0.2-0.2 1-0.3 1-0.3 0.2-0.2 0.3-1 0.5-1 0.5-1 0.5q-1 0.5-10.5 7.8-9.5 7.2-9.7 8.2-0.3 1-1.6 1.5-1.2 0.5-11.7 12.7l-10.5 12.3-0.2 0.3-0.3 0.2-0.3 0.2-0.2 0.3-0.2 0.3-0.3 0.2-0.3 0.2-0.2 0.3-0.2 0.3-0.3 0.2-0.3 0.2-0.2 0.3-0.2 0.3-0.3 0.2-0.3 1-0.2 1-1 0.2-1 0.3 0.2 0.3 0.3 0.2 0.3 0.2 0.2 0.3h1l0.2-0.3 0.3-0.2 0.3-0.2 0.2-0.3 0.2-0.3 0.3-0.2 0.3-0.2 0.2-0.3 1-0.5 1-0.5 0.2-0.3 0.3-0.2 0.3-0.2 0.2-0.3 0.2-0.3 0.3-0.2 1.7-0.5q1.8-0.5 1.8-1.5t3-2.8q3-1.7 4-2.2l1-0.5 0.2-0.3 0.3-0.2 0.3-0.2 0.2-0.3 1-0.5 1-0.5 2.5-0.3 2.5-0.2-0.2 2.5-0.3 2.5-0.3 0.2-0.2 0.3-0.2 0.3-0.3 0.2-0.3 0.2-0.2 0.3-0.2 0.3-0.3 0.2-0.5 1-0.5 1-0.3 0.2-0.2 0.3-1 0.3q-1 0.2-1.2 1.2-0.3 1-1.6 1.5-1.2 0.5-1.2 1.5t-2.5 1.8l-2.5 0.7-0.2 0.3-0.3 0.2-0.3 0.2-0.2 0.3-0.5 0.3-0.5 0.2h-0.5l-0.3 0.2-0.2 0.3-2 0.5-2 0.5-0.2 0.3q-0.3 0.2-0.6 0.4-0.2 0.3-14.2 1.6l-14 1.2v-2l1.5-0.2 1.5-0.3 0.2-0.3 0.3-0.2 0.3-0.2 0.2-0.3 1-0.5 1-0.5 1.5-0.3q1.5-0.2 1.5-1.2t6-4.5 6.2-4.5q0.3-1 1.6-1.5 1.2-0.5 1.4-1.5 0.3-1 1.6-1.5 1.2-0.5 3-3 1.7-2.5 6.2-10.5t7-15.5 3-19.5-1-19.5-7.8-19.5q-6.2-12-7.2-12.2-1-0.3-1.5-1.6-0.5-1.2-1.5-1.2h-1l-0.2-0.5-0.3-0.5h-0.5l0.2-2.5q0.3-2.5 1-3.3l0.8-0.7 0.2-0.3 0.3-0.2 0.3-0.2zm-5.8 123.2q1 0 1 1t-1 1h-1v-1q0-1 1-1z" fill="#fcfcfc" stroke="#fcfcfc"/>
  <path d="m411.8 423l0.2-6 1 0.2 1 0.3 1 0.5 1 0.5 9 4q9 4 21.5 7.5t24.3 5.2q11.7 1.8 0.4-4.2-11.2-6-11.2-8t5.5-1.8q5.5 0.3 7 0.6l1.5 0.2 5.8 3.5q5.7 3.5 6 4.5 0.2 1 5.4 5.5 5.3 4.5 7.3 8t2.5 5l0.5 1.5 0.5 1 0.5 1 0.3 0.2 0.2 0.3 0.2 0.3 0.3 0.2 0.5 1.5 0.5 1.5v3l-0.3-0.2-0.2-0.3-0.2-0.3-0.3-0.2-0.3-0.2-0.2-0.3-1-0.3-1-0.2-0.2-0.5-0.3-0.5-0.3-0.2-0.2-0.3-0.2-0.3-0.3-0.2-0.3-0.2-0.2-0.3-6.5-4q-6.5-4-14.5-6.5t-24-2-20 3-7.8 7.2q-3.7 4.8-5.2 8.3t-1.5 12.5 2.7 15.5q2.8 6.5 3.8 6.5t4.5 3.8q3.5 3.7 6.3 5.4 2.7 1.8 3 2.8 0.2 1 3.2 2t3 2 4.2 3q4.3 2 4.6 2.2l0.2 0.3 1 0.5 1 0.5 0.2 0.3 0.3 0.2 0.3 0.2 0.2 0.3 1 0.5 1 0.5 0.2 0.3 0.3 0.2 0.3 0.2 0.2 0.3 0.2 0.3 0.3 0.2 0.3 0.5 0.2 0.5h-2l-0.5-0.2-0.5-0.3-0.2-0.3-0.3-0.2-0.3-0.2-0.2-0.3-0.2-0.3-0.3-0.2-0.3-0.2-0.2-0.3-1.5-0.5-1.5-0.5-0.2-0.3-0.3-0.2-0.3-0.2q-0.2-0.3-7.7-4.6-7.5-4.2-7.7-5.2-0.3-1-4.6-3.8-4.2-2.7-6.7-6.4-2.5-3.8-3.5-3.8t-3.2-6q-2.3-6-2.8-13.5t2.2-15l2.8-7.5h2l0.2-1 0.3-1 0.3-0.2 0.2-0.3 0.2-0.3 0.3-0.2 0.3-0.2 0.2-0.3 0.2-0.3 0.3-0.2 0.3-0.2 0.2-0.3h-4l-1 0.5-1 0.5-1 0.5-1 0.5-1.5 0.3q-1.5 0.2-1.5 1.2t-6 4.5-6.5 4.7q-0.5 1.3-1.5 1.6-1 0.2-1.5 1.4-0.5 1.3-1.5 1.6-1 0.2-7.8 11.2-6.7 11-7.2 12t-1 3l-0.5 2-0.5 1-0.5 1-0.3 0.2-0.2 0.3h-4l-0.2-0.3-0.3-0.2v-6q0-6 1.5-10t8-13.5 10.2-13q3.8-3.5 3.8-5t1-1.5 1-1v-1l0.5-0.2q0.5-0.3 4.7-7.6 4.3-7.2 4.6-13.2zm73.4 15.8q-0.2-0.3 0-0.6 0.3-0.2 0.3 0.3t-0.3 0.3z" fill="#fbfbfb" stroke="#fbfbfb"/>
  <path d="m319 399.2v-0.2l0.5 0.2q0.5 0.3 0.7 0.6l0.3 0.2 0.3 0.2 0.2 0.3 1 0.3 1 0.2v2l1-0.2 1-0.3 0.2-0.3 0.3-0.2 0.3-0.2 0.2-0.3h2l0.5 0.3 0.5 0.2v0.2q0 0.3-0.5 0.6l-0.5 0.2h-0.2q-0.3 0-0.6 0.5l-0.2 0.5-3 5.5q-3 5.5-4 5.5t-8.8 14q-7.7 14-10.7 23.5t-2.5 16 1 7 0.8 1.5l0.2 1 1 0.2 1 0.3 1 0.5 1 0.5h5l2.5-0.5q2.5-0.5 4.5-1.5t5-9.7l3-8.8 0.5 2.8q0.5 2.7 0.3 8-0.3 5.2-2.6 5.7-2.2 0.5-2.7 7.7-0.5 7.3-1.3 5.6-0.7-1.8-1.2-0.8t-0.8 1h-0.2v-2.5q0-2.5-1.8-1.5-1.7 1-2 2-0.2 1-3 3.5-2.7 2.5-9.7 13.5t-11 21-6 20-1.5 22 3 20 3 9l0.5 1 0.3 0.2 0.2 0.3 0.2 0.3 0.3 0.2 0.3 0.2 0.2 0.3 0.2 0.3 0.3 0.2 0.3 0.2 0.2 0.3 0.2 0.3 0.3 0.2 0.3 0.2 0.2 0.3 1 0.5 1 0.5h2l1-0.5 1-0.5 0.2-0.3 0.3-0.2 0.5-3.5q0.5-3.5-1-28l-1.5-24.5v-6l0.3 0.2 0.2 0.3 0.2 0.3 0.3 0.2 0.5 2 0.5 2 0.5 1 0.5 1 3 10q3 10 3.5 11l0.5 1 0.5 2 0.5 2 0.5 1.5 0.5 1.5 0.3 0.2 0.2 0.3 0.2 0.3 0.3 0.2 0.5-2.5 0.5-2.5 0.5-2.5q0.5-2.5 1-3.5l0.5-1 0.3-0.2 0.2-0.3 0.2-0.3 0.3-0.2 0.5-1.5 0.5-1.5 0.5-1 0.5-1 0.3-0.2 0.2-0.3 0.2-0.3 0.3-0.2v2l0.5 8q0.5 8 4.8 14.8 4.2 6.7 12.2 11.7t15 9.5 13.2 11.8q6.3 7.2 6.8 8.2l0.5 1 0.3 0.2 0.2 0.3 0.2 0.3 0.3 0.2 0.3 1 0.2 1v2l-1.5 0.2-1.5 0.3 1 0.5 1 0.5-1 0.5-1 0.5-1 0.3-1 0.2-0.5-0.2-0.5-0.3-0.2-0.3-0.3-0.2-0.5-1-0.5-1-0.3-0.2q-0.2-0.3-0.7-1.6-0.5-1.2-1.5-1.2t-1.2-1q-0.3-1-6-6.8-5.8-5.7-12.3-6.2l-6.5-0.5-0.2 0.3-0.3 0.2-0.5 1-0.5 1 0.7 6.2q0.8 6.3 7.3 14.8t6.7 8.8l0.3 0.2 0.3 0.2 0.2 0.3 1 0.5 1 0.5 0.2 0.3 0.3 0.2 0.3 0.2 0.2 0.3 0.2 0.3 0.3 0.2 0.3 0.2 0.2 0.3 0.2 0.3 0.3 0.2 0.3 0.2 0.2 0.3 0.2 0.3 0.3 0.2 0.3 0.2 0.2 0.3 0.2 0.3 0.3 0.2 0.3 0.2 0.2 0.3 1 0.3 1 0.2-0.2 1-0.3 1-0.3-0.2-0.2-0.3-1.5-0.3-1.5-0.2v-2l-1-0.2-1-0.3-0.2-0.3-0.3-0.2-0.3-0.2-0.2-0.3-0.2-0.3-0.3-0.2-0.3-0.2-0.2-0.3-1-0.5-1-0.5-0.2-0.3-0.3-0.2-0.3-0.2-0.2-0.3-0.2-0.3q-0.3-0.2-1.6-0.7-1.2-0.5-1.4-1.5-0.3-1-4-3.8-3.8-2.7-7.6-7.4l-3.7-4.8-0.3-0.2-0.2-0.3-0.2-0.3-0.3-0.2-0.3-0.2-0.2-0.3-0.2-0.3-0.3-0.2-0.5-1-0.5-1-0.3-1-0.2-1h-2l0.2 1 0.3 1 0.5 1.5 0.5 1.5 3 13q3 13 3.3 20.5l0.2 7.5-0.8 2q-0.7 2-1.2 0.5t-1 2l-0.5 3.5-0.5-1-0.5-1-0.3-0.2-0.2-0.3-0.2-0.3q-0.3-0.2-0.8-1.7t-0.8 0q-0.2 1.5-2.7 1l-2.5-0.5-0.2-0.5q-0.3-0.5-9-13.5-8.8-13-9.8-13t-4.5-5.8q-3.5-5.7-10.3-18.4-6.7-12.8-10.7-27.3t-5.5-34.5 1.5-40.5 10-41.5 15.7-38.5q8.8-17.5 9.8-17.5t5.8-8q4.7-8 6-9.5l1.2-1.5 0.5-0.2q0.5-0.3 0.5-0.6z" fill="#020202" stroke="#020202"/>
  <path d="m329.2 668l0.8-2 0.8 5q0.7 5 1.2 11.5l0.5 6.5 0.3-0.2 0.2-0.3 0.2-0.3 0.3-0.2 0.3-0.2 0.2-0.3 0.2-0.3 0.3-0.2 0.3-0.2 0.2-0.3 0.2-0.3 0.3-0.2 0.3-0.2 0.2-0.3 6-3q6-3 12.5-4.5t22-0.5 36.5 4.5 40.5 3.5 20.5-0.3l1-0.2v6l1 0.2 1 0.3 1.5 0.3q1.5 0.2 1.5 1.7t2.5 1.7q2.5 0.3 2.5 0.6v0.2l-4.5 0.2q-4.5 0.3-26-0.2t-37.5-0.5h-16l-0.2 0.3-0.3 0.2-0.3 1-0.2 1h-2l0.2 3 0.3 3 2.5 4q2.5 4 9.8 7.8 7.2 3.7 18.2 3.2t27.5-5.5 38-5 30.5 1.5 17.5 0.5 12.5-2.3q4-1.2 4-2.2t5.2-4.5q5.3-3.5 7.3-6t2.5-4l0.5-1.5 0.3-0.2 0.2-0.3 0.2-0.3 0.3-0.2 0.5-1 0.5-1 0.3-2 0.2-2h2l-0.2 1.5-0.3 1.5-0.5 3-0.5 3-0.5 1.5q-0.5 1.5-1 3.5t-6.2 12q-5.8 10-6.8 10.2-1 0.3-1.5 1.6-0.5 1.2-3.5 3.4-3 2.3-7.5 5-4.5 2.8-4.5 3.8t-7.2 5q-7.3 4-19.6 8.8-12.2 4.7-24.7 6.7t-25 2h-12.5l-0.2-0.3-0.3-0.2-0.3 0.2-0.2 0.3-0.2 0.3-0.3 0.2-0.5-1-0.5-1-0.3-0.2-0.2-0.3h7l12-2q12-2 21-6t11.2-6.3q2.3-2.2 2.8-3.2t1-2l0.5-1v-4l-0.5-1.5-0.5-1.5-0.3-0.2-0.2-0.3-0.2-0.3-0.3-0.2-0.3-0.2-0.2-0.3-0.2-0.3q-0.3-0.2-3.6-2-3.2-1.7-13.7-2.2t-22.5 3-30 7.2q-18 3.8-18.2 4.8l-0.3 1-0.3 0.2-0.2 0.3-0.5 0.3-0.5 0.2v-2q0-2-1-2h-1v-0.5l1-0.5 1-0.5-3-0.5-3-0.5-2-0.5q-2-0.5-12.5-5.8-10.5-5.2-10.7-6.2-0.3-1-6-5.2-5.8-4.3-13.8-8.3t-17.5-4.5-16.5 3l-7 3.5-1 0.5-1 0.5-1 0.3-1 0.2v2h-2l0.2-1 0.3-1 0.5-1.5 0.5-1.5 0.5-2q0.5-2 0.5-13t-1-13.5l-1-2.5-0.5-1.5-0.5-1.5-0.3-0.2-0.2-0.3v-0.5l1-0.2 1-0.3h2l0.2 0.3 0.3 0.2 0.5-1q0.5-1 1 0.5t0.8 1.7l0.2 0.3 0.2 0.3 0.3 0.2 0.5 1 0.5 1 0.5-3.5q0.5-3.5 1-2t1.2-0.5z" fill="#030303" stroke="#030303"/>
  <path d="m375 384.2v-0.2l0.5 0.2q0.5 0.3 1 0.3h0.5l0.2-0.3 0.3-0.2 0.3 0.2 0.2 0.3 0.2 0.3 0.3 0.2 0.5 1 0.5 1 0.3 0.2 0.2 0.3-0.2 0.3-0.3 0.2-0.3 0.2-0.2 0.3 0.2 0.3 0.3 0.2 0.3 0.5 0.2 0.5-3.2 3q-3.3 3-4.3 4.5t-1.5 2.5l-0.5 1-0.3 4.5-0.2 4.5 1 0.2 1 0.3h5l5.8-2.3q5.7-2.2 6-2.2h0.7l0.5 2.5 0.5 2.5 0.3 0.2 0.2 0.3-0.2 0.3-0.3 0.2-0.3 0.2-0.2 0.3 0.5 0.3 0.5 0.2v0.2q0 0.3-12.5 7.8t-20.5 10.5-17 3h-12l0.2 0.3 0.3 0.2 0.5 1.5 0.5 1.5 4 14q4 14 4.5 17.5l0.5 3.5 0.5 2 0.5 2 0.5-1 0.5-1 0.5-1.5 0.5-1.5 0.5-2q0.5-2 2.2-6.5l1.8-4.5h2l0.2-1 0.3-1 0.5-1 0.5-1 0.3-0.2 0.2-0.3 0.2-0.3 0.3-0.2 0.3-0.2 0.2-0.3 0.5-1.3q0.5-1.2 1.5-1.2t0.8 1q-0.3 1-0.6 1.2l-0.2 0.3-0.2 0.3-0.3 0.2-0.3 0.2-0.2 0.3-0.2 0.3-0.3 0.2-0.5 1.5-0.5 1.5-0.3 0.2-0.2 0.3-0.2 0.3-0.3 0.2-2 6q-2 6-2 11v5l0.3 0.2 0.2 0.3 0.2 0.3 0.3 0.2 0.3 0.2 0.2 0.3 0.2 0.3 0.3 0.2 0.3 0.2 0.2 0.3h3l2-0.3 2-0.2 0.2-1 0.3-1 0.3-0.2 0.2-0.3 0.2-0.3 0.3-0.2 0.3-0.2q0.2-0.3 1-1.6 0.7-1.2 5.2-15.2t8.8-19.2l4.2-5.3 1-0.5 1-0.5 0.2-0.3 0.3-0.2h0.5l0.5-0.2 0.5-0.3v-0.5l0.5-0.2 0.5-0.3 0.2-0.3 0.3-0.2h0.5l0.2-0.5 0.3-0.5h1.5l-0.2 1-0.3 1-0.3 0.2-0.2 0.3-0.2 0.3-0.3 0.2-0.3 0.2-0.2 0.3-1.5 0.5-1.5 0.5-0.2 0.3-0.3 0.2-0.3 0.2-0.2 0.3 0.2 0.3 0.3 0.2 0.3 0.2 0.2 0.3-0.2 0.3-0.3 0.2-0.3 0.2-0.2 0.3-0.2 0.3-0.3 0.2-0.3 1-0.2 1h2l-3.2 4q-3.3 4-7.3 17.5t-6.3 18q-2.2 4.5-3.2 4.5t-6.2 9q-5.3 9-5.3 14t0.5 7l0.5 2 0.5 1 0.5 1 0.3 0.2 0.2 0.3 0.2 0.3 0.3 0.2 0.3 1 0.2 1h-2l-0.2-1-0.3-1-0.3-0.2-0.2-0.3-1-0.5q-1-0.5-1.8-1.8l-0.7-1.2-0.3-0.2-0.2-0.3-0.2-0.3-0.3-0.2-0.3-0.2-0.2-0.3-0.2-0.3-0.3-0.2v3l0.5 7.5 0.5 7.5 0.3 1 0.2 1h-2l-0.2-1-0.3-1-0.5-1-0.5-1-0.5-1.5-0.5-1.5-0.5-2q-0.5-2-4-12l-3.5-10-0.3-0.2-0.2-0.3-0.2-0.3-0.3-0.2-0.5-1.5-0.5-1.5-0.3-0.2-0.2-0.3-2-0.3-2-0.2-0.2 1-0.3 1-0.3 0.2-0.2 0.3-0.2 0.3-0.3 0.2 0.5 9.5q0.5 9.5 5 19.5t9.2 16.2q4.8 6.3 5.8 6.6 1 0.2 1 1.2t6 4.5 6 4.5 2 1.8q2 0.7 3 1.2l1 0.5 0.2 0.3 0.3 0.2 0.3 0.2 0.2 0.3 0.5 0.3 0.5 0.2v0.5l0.2 0.3 0.3 0.2 0.3 0.2 0.2 0.3-0.2 0.3-0.3 0.2-0.3 1.5q-0.2 1.5-2.7 1.5t-2.5 3 1 3 3.2 6q2.3 6 4 9 1.8 3 2.8 3t1.5 2 2 2 2 1.2q0.5 1.3 1.5 1.6 1 0.2 3.8 3.2 2.7 3 3.2 2l0.5-1 0.3-1 0.2-1h2v2.5l-0.2 0.3-0.3 0.2-0.3 0.2-0.2 0.3-0.2 0.3-0.3 0.2-0.3 0.2-0.2 0.3 0.2 0.3 0.3 0.2 0.3 1 0.2 1h-0.5l-0.5 1-0.5 1-0.3-0.2-0.2-0.3h-2l-1 0.5-1 0.5v0.5l-0.5-0.2-0.5-0.3-0.2-0.3-0.3-0.2-0.3-0.2q-0.2-0.3-1.7-1-1.5-0.8-1.5-1.8t-1-1.2q-1-0.3-9-7-8-6.8-8.2-7.8-0.3-1-1.6-1.5-1.2-0.5-1.4-1.5-0.3-1-1.6-1.5-1.2-0.5-9-11-7.7-10.5-13.2-20.5t-10.5-25-5.3-32l-0.2-17h0.2q0.3 0 0.8-1t1.2 0.8q0.8 1.7 1.3-5.6 0.5-7.2 2.7-7.7 2.3-0.5 2.8-5.5t-0.8-5.5q-1.2-0.5-1.2-1.5v-1h0.2q0.3 0 0.6-1.5l0.2-1.5 0.2-3q0.3-3 0.3-8.5t-3-13l-3-7.5-0.3-0.2-0.2-0.3-0.2-0.3-0.3-0.2-0.5-1-0.5-1-0.3-0.2-0.2-0.3h10q8 0 14-3t16-17 13.8-16.3q3.7-2.2 4-2.2h0.2l0.5-0.2q0.5-0.3 0.5-0.6z" fill="#050505" stroke="#050505"/>
  <path d="m378.2 506.2l0.3-0.2 1.5 15.5q1.5 15.5 4.2 22.7 2.8 7.3 6.8 13.6 4 6.2 5 6.2t6 5.8q5 5.7 6.5 7.4 1.5 1.8 10.5 6 9 4.3 19.5 6.3t17 1.5 10.5-3.2q4-2.8 8.2-9.8 4.3-7 4.3-19.5t-4-19-5.7-8.7q-1.8-2.3-2.8-2.8l-1-0.5-0.2-0.3-0.3-0.2-0.3-1-0.2-1-1-0.2-1-0.3-0.2-0.3-0.3-0.2-0.3-0.2-0.2-0.3-0.2-0.3-0.3-0.2-0.3-0.2-0.2-0.3v-0.5h2.5l0.3 0.2 0.2 0.3 0.2 0.3 0.3 0.2 0.3 0.2 0.2 0.3 0.2 0.3 0.3 0.2 0.3 0.2 0.2 0.3 1 0.3 1 0.2 3.2 4q3.3 4 3.6 5 0.2 1 1.2 1t3.8 6q2.7 6 2.2 18t-3.8 17.8q-3.2 5.7-4.2 6-1 0.2-1.2 1.2-0.3 1-0.6 1.2l-0.2 0.3-0.2 0.3-0.3 0.2-0.3 0.2-0.2 0.3-0.2 0.3-0.3 0.2-0.3 0.2-0.2 0.3-1 0.5-1 0.5-0.2 0.3-0.3 0.2-0.3 0.2-0.2 0.3-0.2 0.3-0.3 0.2-0.3 0.2-0.2 0.3h5l2.5-1q2.5-1 3.5-1.3l1-0.2v3h2l-0.2 1.5-0.3 1.5-0.3 0.2-0.2 0.3-0.2 0.3-0.3 0.2-0.3 0.2-0.2 0.3-0.2 0.3-0.3 0.2-0.3 0.2-0.2 0.3-1 0.5-1 0.5-1.5 0.5q-1.5 0.5-3 1t-14 1l-12.5 0.5-1-0.3-1-0.2-1.5-0.2q-1.5-0.3-9.5-1.8t-16-2-13.5 1.5l-5.5 2-0.2 0.3-0.3 0.2-0.3 0.2-0.2 0.3-0.2 0.3-0.3 0.2-0.5-5.5q-0.5-5.5-1.5-11.5t-7.5-28.5l-6.5-22.5-0.5-1-0.5-1-0.5-2.5-0.5-2.5-0.5-1-0.5-1 0.5 7.5q0.5 7.5 0.5 16v8.5l-0.3 1-0.2 1-1-0.2-1-0.3-1-0.3-1-0.2-0.2-1-0.3-1-0.5-1-0.5-1-0.5-1-0.5-1-0.3-1-0.2-1-0.2-4q-0.3-4 0.2-12t3-13.5l2.5-5.5 0.5-1 0.5-1 0.5-1 0.5-1 0.3-0.2 0.2-0.3 0.2-0.3 0.3-0.2 0.5-1 0.5-1 0.3-0.2 0.2-0.3 0.2-0.3z" fill="#fbfbfb" stroke="#fbfbfb"/>
  <path d="m664 394.5l0.5 1.5 0.5 1 0.5 1 0.5 1 0.5 1 0.3 1 0.2 1h-2l-0.2-1.5-0.3-1.5-0.3-0.2-0.2-0.3-0.2-0.3-0.3-0.2-0.3-0.2-0.2-0.3-0.2-0.3-0.3-0.2-0.3-1.5q-0.2-1.5-1.2-1.5t-4.5-6-4.5-6-2.2-2.5q-1.3-2.5-6.6-6-5.2-3.5-5.4-4.5-0.3-1-3-2.8-2.8-1.7-9.3-2.7l-6.5-1-0.2 0.3-0.3 0.2-0.3 0.2-0.2 0.3-1 0.5-1 0.5-0.2 0.3-0.3 0.2-0.3 0.2-0.2 0.3-0.2 0.3-0.3 0.2v8q0 8 1.3 11.5 1.2 3.5 2.2 3.5t5 5.8q4 5.7 15.8 16.4 11.7 10.8 12 11l0.2 0.3 0.2 0.3 0.3 0.2 0.3 0.2 0.2 0.3 0.2 0.3 0.3 0.2 0.3 0.2 0.2 0.3 0.2 0.3 0.3 0.2 0.3 1 0.2 1v0.5l-1 0.5-1 0.5-1 0.3-1 0.2-0.2-1-0.3-1-0.3 0.2-0.2 0.3-0.2 0.3-0.3 0.2-0.3 1-0.2 1-1 0.2-1 0.3h-2l-0.2-0.3q-0.3-0.2-0.6-0.2h-0.2l-0.5-0.2q-0.5-0.3-5.5-4.8t-12.5-12-14.5-16.5-12.8-24.3q-5.7-15.2-11-23-5.2-7.7-10.7-12.2t-11-6.5-12.5-2.5l-7-0.5-1 0.3-1 0.2v-2l1.5-0.2 1.5-0.3 2-0.5 2-0.5 1.5-0.5 1.5-0.5h14.5q14.5 0 27 5t18.5 8.3q6 3.2 6.5 4.4 0.5 1.3 4.5 3.6 4 2.2 4.5 3.4 0.5 1.3 1.5 1.6 1 0.2 4.5 4 3.5 3.7 6.5 7.4 3 3.8 4 3.8t8.2 11q7.3 11 8.8 14t2 4.5z" fill="#040404" stroke="#040404"/>
  <path d="m537.5 397.8l0.5 0.2-0.2 0.5-0.3 0.5-0.3 0.2-0.2 0.3-0.2 0.3-0.3 0.2-0.3 0.2-0.2 0.3-1.5 0.3-1.5 0.2v1q0 1-1 1h-1l-1-0.2q-1-0.3-10-3.3t-18.5-3.5-19 1.5-18 6l-8.5 4-0.2 0.3-0.3 0.2-0.3 0.2-0.2 0.3-1 0.5-1 0.5-0.2 0.3-0.3 0.2-0.3 0.2-0.2 0.3-1 0.5-1 0.5 0.2 0.3 0.3 0.2 0.3 0.2 0.2 0.3 10 1.5q10 1.5 12 1.8l2 0.2v0.2q0 0.3 0.5 0.6l0.5 0.2-0.8 2.5q-0.7 2.5-1 2.5h-0.2l-1.5-0.2q-1.5-0.3-7-0.6-5.5-0.2-5.5 1.8t12.8 8.5q12.7 6.5-0.6 4.3-13.2-2.3-25.7-5.8t-21.5-7.5l-9-4-1-0.5-1-0.5-1-0.3-1-0.2-0.2 6q-0.3 6-4.6 13.2-4.2 7.3-4.7 7.6l-0.5 0.2h-0.2q-0.3 0-0.8 0.5l-0.5 0.5-0.3 0.2-0.2 0.3-1 0.3q-1 0.2-1-0.8t-1-1-1.5-1.8q-0.5-1.7-1.5-1.2t-2 1.2l-1 0.8h-1l-0.2-0.5q-0.3-0.5-0.6-0.5h-0.2l-2 0.2q-2 0.3-4 0.8l-2 0.5-0.5 0.3-0.5 0.2h-2l0.2-1 0.3-1 0.3-0.2 0.2-0.3 0.2-0.3 0.3-0.2 0.3-0.2 0.2-0.3-0.2-0.3-0.3-0.2-0.3-0.2-0.2-0.3 0.2-0.3 0.3-0.2 0.3-0.2 0.2-0.3 1.5-0.5 1.5-0.5-1.5-0.3-1.5-0.2v-1q0-1 1.5-1h1.5l0.2-0.5 0.3-0.5h0.5l0.5 0.2q0.5 0.3 0.5 0v-0.4q0-0.3 6.5-3 6.5-2.8 6.7-3.8 0.3-1 1.6-1.5 1.2-0.5 2.4-2.5 1.3-2 1.6-7l0.2-5h-2v-2l1 0.2 1 0.3 1 0.5 1 0.5 6 2.5q6 2.5 14.5 2t11.5-1 5-0.8l2-0.2 0.2-1.5 0.3-1.5 0.3-0.2 0.2-0.3 0.2-0.3 0.3-0.2v-8l-0.3-0.2-0.2-0.3-0.2-0.3-0.3-0.2-0.3-0.2-0.2-0.3-0.2-0.3-0.3-0.2-0.3-0.2-0.2-0.3-4-0.5q-4-0.5-13 1t-20.8 6.8l-11.7 5.2-0.3 0.2-0.2 0.3-1 0.5-1 0.5-0.5 0.3-0.5 0.2-0.5-0.2-0.5-0.3 0.2-0.3 0.3-0.2 0.3-0.2 0.2-0.3-0.2-0.3-0.3-0.2-0.3-1-0.2-1h-2v-2l1-0.2 1-0.3-0.2-0.3-0.3-0.2h-0.5v-0.5l1-0.5 1-0.5 15.5-6.5q15.5-6.5 34-10.5t39-3.5 32 3.5 18.5 6.5 7.5 3.8zm-147.3 41.4q0.3-0.2 0.6 0 0.2 0.3-0.3 0.3t-0.3-0.3zm7 2q0.3-0.2 0.6 0 0.2 0.3-0.3 0.3t-0.3-0.3z" fill="#070707" stroke="#070707"/>
  <path d="m287.5 389l1.5-0.5 1.8 0.3q1.7 0.2 2 1.2l0.2 1h-0.2q-0.3 0-0.6 1.5l-0.2 1.5-4.8 20q-4.7 20-11.2 33t-14.2 22.5q-7.8 9.5-9 10-1.3 0.5-5.8 12t-4 20 1.5 11.5 1.5 4.5l0.5 1.5 0.3 0.2 0.2 0.3 0.2 0.3 0.3 0.2 0.3 1.5 0.2 1.5h2l0.2 1 0.3 1v2l-0.3-0.2-0.2-0.3-0.2-0.3-0.3-0.2-0.3-0.2-0.2-0.3-0.2-0.3-0.3-0.2-0.3-0.2-0.2-0.3-1-0.3-1-0.2-0.2-1-0.3-1-0.3-0.2-0.2-0.3-1-0.3-1-0.2-0.2-1-0.3-1-0.3-0.2-0.2-0.3-1-0.3q-1-0.2-1.2-1.2-0.3-1-1.6-1.5-1.2-0.5-2-2.5-0.7-2-5.2-14t-5-31 1-27 7.2-24.5q5.8-16.5 6.8-16.5t4.5-7l3.5-7h2l0.2-1 0.3-1 0.5-1 0.5-1 0.3-0.2 0.2-0.3 0.2-0.3 0.3-0.2 0.3-1 0.2-1h2l-0.2 1-0.3 1-0.3 0.2-0.2 0.3-0.2 0.3-0.3 0.2-0.3 0.2-0.2 0.3-0.2 0.3-0.3 0.2-0.3 0.2-0.2 0.3 0.2 0.3 0.3 0.2 0.3 0.2 0.2 0.3-0.2 0.3-0.3 0.2-0.3 0.2-0.2 0.3-0.2 0.3-0.3 0.2-0.3 0.2-0.2 0.3-0.2 0.3-0.3 0.2-4.5 10.5q-4.5 10.5-6 16.5t-1 15.5 2.8 11.5q2.2 2 2.2 3v1l1 0.2 1 0.3h1q1 0 5.5-1.5t6.5-4.2q2-2.8 3-2.8t4.2-7q3.3-7 8.6-27.5l5.2-20.5 0.5-0.2 0.5-0.3v-0.5l0.5-0.2q0.5-0.3 1.5-0.3h3l-0.2-0.3-0.3-0.2-0.3-0.2-0.2-0.3 1.5-0.5z" fill="#040404" stroke="#040404"/>
  <path d="m534 603v1l-1 0.2-1 0.3-0.2 0.3-0.3 0.2-0.3 1-0.2 1-1.2 0.5q-1.3 0.5-1.6 1.5-0.2 1-3.4 4-3.3 3-9.3 10.5t-5.7 9.5q0.2 2 5 1.5 4.7-0.5 11.2-6t11-12 4.8-8q0.2-1.5 1.2-1.5h2.5q1.5 0 1.5 2.8 0 2.7 2 3.2t3 0.2l1-0.2v1q0 1-1 1h-1v0.2q0 0.3-0.5 0.6l-0.5 0.2v0.2q0 0.3-0.5 1.6-0.5 1.2-1.5 1.4-1 0.3-4 3.8t-6.5 7.2q-3.5 3.8-9 7.6-5.5 3.7-15.5 8.7l-10 5-2 0.5-2 0.5-1 0.5-1 0.5-0.2 0.3-0.3 0.2-0.3 0.2-0.2 0.3 1.5 0.5 1.5 0.5 4.5 1q4.5 1 7 1.5l2.5 0.5v1l-0.2 0.3-0.3 0.2-0.3 0.2-0.2 0.3-0.2 0.3-0.3 0.2-0.5-1-0.5-1-0.5 1-0.5 1-0.3 0.2-0.2 0.3h-1l-1-0.3-1-0.2-0.2 2-0.3 2-0.5 2-0.5 2-0.3 0.2-0.2 0.3-0.5 0.3-0.5 0.2-0.2-1-0.3-1-0.5-1-0.5-1-0.5-1q-0.5-1-3.8-4.8-3.2-3.7-6.7-4.2t-17.5 4.5l-14 5-0.2 0.3-0.3 0.2-0.3 0.2-0.2 0.3-0.2 0.3-0.3 0.2-0.3 0.2-0.2 0.3-1 0.3-1 0.2-0.5-0.2-0.5-0.3 0.2-0.3 0.3-0.2 0.3-1 0.2-1h-3v-2l1-0.2 1-0.3 0.2-0.3 0.3-0.2 0.3-0.2 0.2-0.3 0.2-0.3 0.3-0.2 0.5-1q0.5-1 4.8-4.5 4.2-3.5 4.2-4.5t1-1.2q1-0.3 1.5-1.6 0.5-1.2 5-4.4l4.5-3.3 0.2-0.3 0.3-0.2 0.3-0.2 0.2-0.3 0.2-0.3 0.3-0.2 0.3-0.2 0.2-0.3 0.2-0.3 0.3-0.2 0.3-0.2 0.2-0.3 1-0.5 1-0.5 0.2-0.3 0.3-0.2 0.3-1 0.2-1-3 0.2-3 0.3-2.5 0.5q-2.5 0.5-10.5 1l-8 0.5 0.2-0.3 0.3-0.2 0.3-0.2 0.2-0.3 1-0.5 1-0.5 7.5-1.5q7.5-1.5 9-2l1.5-0.5 0.2-0.3 0.3-0.2 0.3-0.2 0.2-0.3 0.2-0.3 0.3-0.2 0.3-0.2 0.2-0.3 0.2-0.3 0.3-0.2 0.3-0.2 0.2-0.3 0.2-0.3 0.3-0.2 0.3-0.2 0.2-0.3 0.2-0.3 0.3-0.2v-5l-0.3-0.2-0.2-0.3-0.2-0.3-0.3-0.2-0.3-0.2-0.2-0.3-1.5-0.5-1.5-0.5-2-0.5q-2-0.5-17 2.5l-15 3-0.2-0.3-0.3-0.2-0.3 0.2-0.2 0.3-3 0.3-3 0.2 0.2-0.5 0.3-0.5v-4l0.3-0.2 0.2-0.3v-0.5l9.5-1.8q9.5-1.7 14.5-3.2t15-1 18.5 0.5 11.7-1.3q3.3-1.2 3.6-2.2 0.2-1 1.2-1.2 1-0.3 1.2-0.6l0.3-0.2 0.3-1 0.2-1h2l0.2-1 0.3-1 0.5-1 0.5-1v4l-0.5 2.5q-0.5 2.5-0.8 2.7l-0.2 0.3-0.2 0.3-0.3 0.2-0.3 0.2-0.2 0.3-0.2 0.3-0.3 0.2-0.3 0.2-0.2 0.3 0.2 0.3 0.3 0.2 0.3 0.2 0.2 0.3h1l1-0.3 1-0.2v-2l1.5-0.2 1.5-0.3 0.2-0.3 0.3-0.2 3.3-2.2q3.2-2.3 4.2-2.8l1-0.5 0.2-0.3 0.3-0.2 0.3-0.2 0.2-0.3 1-0.3 1-0.2v-2l3-1.5q3-1.5 3-0.5t-1 1-1 1-1 1-1 1zm-22.8 12.2q0.3-0.2 0.6 0 0.2 0.3-0.3 0.3t-0.3-0.3z" fill="#070707" stroke="#070707"/>
  <path d="m548 466l1-0.5 0.5-0.3 0.5-0.2h1q1 0 1.5 1.2 0.5 1.3 1.5 1.6 1 0.2 4.2 7.2 3.3 7 3.8 23t1.8 19q1.2 3 2.2 3t2.5 1.8q1.5 1.7 2.5 2.2l1 0.5 1 0.5 1 0.5 1 0.5 1 0.5-1 0.5-1 0.5-5 2q-5 2-9.2 8.3-4.3 6.2-6.3 11.2t0.3 8.8q2.2 3.7 7.2 3.7t8.2-5.7q3.3-5.8 3.8-7.3t0.8-2.5l0.2-1h0.5l0.3 0.2 0.2 0.3 2 0.3 2 0.2 0.2 1 0.3 1 0.3 0.2 0.2 0.3 0.2 0.3 0.3 0.2 0.3-0.2 0.2-0.3 0.5-0.3 0.5-0.2-4.8 15q-4.7 15-13 30.2-8.2 15.3-9.4 17.6-1.3 2.2-1.6 2.2h-0.4q-0.3 0-0.6 0.5l-0.2 0.5h-0.2q-0.3 0-0.6 0.5l-0.2 0.5v0.2q0 0.3-0.5 0.6l-0.5 0.2-0.5-0.2q-0.5-0.3-3.5-4l-3-3.8 0.2-0.5q0.3-0.5 0.6-0.5h0.2l0.2-2q0.3-2 2.8-9t3-21.5l0.5-14.5-0.5-1-0.5-1-0.5 1-0.5 1-0.3 0.2-0.2 0.3-0.2 0.3-0.3 0.2-0.5 1-0.5 1-0.3 0.2-0.2 0.3-0.2 0.3-0.3 0.2-2.7 4.5q-2.8 4.5-6.6 8-3.7 3.5-6 6-2.2 2.5-3.2 2.7l-1 0.3-0.2 0.3-0.3 0.2-0.3 0.2-0.2 0.3-1 0.5-1 0.5-0.2 0.3-0.3 0.2-0.3 0.2-0.2 0.3-1 0.3-1 0.2v-0.5l-1-0.5-1-0.5 0.2-0.3 0.3-0.2 0.3-2.5 0.2-2.5 0.5-0.2 0.5-0.3 0.2-0.3 0.3-0.2 0.3-0.2 0.2-0.3 2.5-0.7q2.5-0.8 2.5-1.8t1.2-1.5q1.3-0.5 1.6-1.5 0.2-1 1.2-1.2l1-0.3 0.2-0.3 0.3-0.2 0.5-1 0.5-1 0.3-0.2 0.2-0.3 0.2-0.3 0.3-0.2 0.3-0.2 0.2-0.3 0.2-0.3 0.3-0.2 0.3-2.5 0.2-2.5-2.5 0.2-2.5 0.3-1 0.5-1 0.5-0.2 0.3-0.3 0.2-0.3 0.2-0.2 0.3-1 0.5q-1 0.5-4 2.2-3 1.8-3 2.8t-1.8 1.5l-1.7 0.5-0.3 0.2-0.2 0.3-0.2 0.3-0.3 0.2-0.3 0.2-0.2 0.3-1 0.5-1 0.5-0.2 0.3-0.3 0.2-0.3 0.2-0.2 0.3-0.2 0.3-0.3 0.2-0.3 0.2-0.2 0.3-0.2 0.3-0.3 0.2-0.3 0.2-0.2 0.3-0.2 0.3-0.3 0.2-0.3 0.2-0.2 0.3-0.2 0.3-0.3 0.2-0.3 0.2-0.2 0.3-1 0.3-1 0.2 0.2-1 0.3-1 0.3-0.2 0.2-0.3 0.2-0.3 0.3-0.2 0.3-0.2 0.2-0.3 0.2-0.3 0.3-0.2 0.3-0.2 0.2-0.3 1-0.3 1-0.2 0.2-1 0.3-1 0.3-0.2 0.2-0.3 0.2-0.3 0.3-0.2 0.3-0.2 0.2-0.3 0.2-0.3 0.3-0.2 0.3-0.2 0.2-0.3 0.2-0.3 0.3-0.2 0.3-0.2 0.2-0.3 10.5-12.3q10.5-12.2 11.7-12.7 1.3-0.5 1.6-1.5 0.2-1 9.7-8.2 9.5-7.3 10.5-7.8l1-0.5 1-0.5 1-0.5 0.2-0.3 0.3-0.2 0.3-1 0.2-1-1.5-0.2q-1.5-0.3-6-4.8t-9.3-15.2l-4.7-10.8-0.3-0.2-0.2-0.3v-0.5h0.5l0.3-0.2 0.2-0.3 1-0.5 1-0.5-0.2-0.3-0.3-0.2-0.3-0.2-0.2-0.3 0.2-0.3 0.3-0.2 0.3-0.2 0.2-0.3 0.5-0.3 0.5-0.2h1q1 0 1.2 1.5l0.3 1.5 0.3 0.2 0.2 0.3 0.2 0.3 0.3 0.2 0.3 0.2 0.2 0.3 0.2 0.3 0.3 0.2 0.3 0.2 0.2 0.3h2l1-0.3 1-0.2 0.2-1 0.3-1 0.5-1 0.5-1 0.5-1.5 0.5-1.5v-3l-0.5-2q-0.5-2-1-3t-2.8-4.2l-2.2-3.3-0.2-0.3-0.3-0.2-0.3-0.2-0.2-0.3-0.2-0.3q-0.3-0.2-1.6-1.7l-1.2-1.5 1-0.2 1-0.3 1-0.5z" fill="#090909" stroke="#090909"/>
  <path d="m573.5 429.8l1.5-0.8 2 1.8q2 1.7 7.5 4.2t7.5 3 8 0.5h8l-0.2 0.3-0.3 0.2-0.3 0.2-0.2 0.3-0.2 0.3-0.3 0.2-0.3 0.2-0.2 0.3-0.2 0.3-0.3 0.2-0.3 0.2-0.2 0.3-0.2 0.3-0.3 0.2-0.3 0.2-0.2 0.3-3.2 5.3q-3.3 5.2-2.8 14.2t6.5 21 7 17 0.5 12.5-1.8 10.7q-1.2 3.3-1.2 3.6v0.2l-0.5 0.2q-0.5 0.3-0.5 0.6v0.2l-0.5 0.2q-0.5 0.3-0.7 0.6l-0.3 0.2-0.3 0.2-0.2 0.3-0.2 0.3-0.3 0.2-0.3-0.2-0.2-0.3-0.2-0.3-0.3-0.2-0.3 0.2-0.2 0.3-0.2 0.3-0.3 0.2-0.3-0.2-0.2-0.3-1-0.3-1-0.2v-3l0.2-1.5q0.3-1.5 0.8-3t1-8.5-1.5-11.5l-2-4.5-0.3-0.2-0.2-0.3-0.2-0.3-0.3-0.2-0.3-0.2-0.2-0.3-0.2-0.3-0.3-0.2-0.3-0.2-0.2-0.3-1-0.5-1-0.5h-4l-1 0.3-1 0.2-0.2 1-0.3 1-2.5 21.5q-2.5 21.5-3 23.5l-0.5 2-0.3 2.5-0.2 2.5-0.5 0.2-0.5 0.3-0.2 0.3-0.3 0.2-0.3-0.2-0.2-0.3-0.2-0.3-0.3-0.2-0.3-1-0.2-1-2-0.2-2-0.3-0.2-0.3-0.3-0.2h-0.5l0.2-1 0.3-1 0.5-1q0.5-1 1.5-8t1.5-33.5 1.5-32 3.7-12q2.8-6.5 3.8-6.7l1-0.3 0.2-0.3 0.3-0.2 0.5-1 0.5-1 0.3-1 0.2-1-2-0.2-2-0.3-2.5-0.5q-2.5-0.5-6.5-1.5l-4-1-1.5-0.5-1.5-0.5-2-0.3-2-0.2v-0.5l3-0.5 3-0.5 2-0.5 2-0.5-1-0.3-1-0.2v-2l1-0.2 1-0.3-2.5-0.5q-2.5-0.5-2.7-1.8-0.3-1.2 0.4-1.4 0.8-0.3 2.3-1z" fill="#070707" stroke="#070707"/>
  <path d="m375 531.5l-0.5-7.5 0.5 1 0.5 1 0.5 2.5 0.5 2.5 0.5 1 0.5 1 6.5 22.5q6.5 22.5 7.5 28.5t1.5 11.5l0.5 5.5 0.3-0.2 0.2-0.3 0.2-0.3 0.3-0.2 0.3-0.2 0.2-0.3 5.5-2q5.5-2 13.5-1.5t16 2 9.5 1.8l1.5 0.2v0.5l0.2 0.3 0.3 0.2 0.3 0.2 0.2 0.3-0.2 0.3-0.3 0.2-0.3 0.2-0.2 0.3-0.2 0.3-0.3 0.2-0.3 0.2-0.2 0.3-0.2 0.3-0.3 0.2-0.3 0.5-0.2 0.5h-12l-0.2 1-0.3 1v3l0.5 1 0.5 1 0.3 0.2 0.2 0.3 0.2 0.3 0.3 0.2 0.3 0.2 0.2 0.3 1 0.5 1 0.5 0.2 0.3 0.3 0.2 0.3 0.2 0.2 0.3 1 0.5q1 0.5 2.5 1l1.5 0.5v1l-0.2 0.3-0.3 0.2v4l-0.3 0.5-0.2 0.5-1.5-0.2-1.5-0.3-0.2-0.3-0.3-0.2-0.3-0.2-0.2-0.3-2-0.5q-2-0.5-7.5-3.5t-6-4.3q-0.5-1.2-4-3-3.5-1.7-9.5-2.7t-10 0.7l-4 1.8v-2h-2l-0.2 1-0.3 1-0.5 1q-0.5 1-3.2-2-2.8-3-3.8-3.2-1-0.3-1.5-1.6-0.5-1.2-2-1.2t-2-2-1.5-2-1.5-1.2q-0.5-1.3-3.7-7.6-3.3-6.2-4.6-6.7-1.2-0.5-1.2-4.5t2.5-4 2.7-1.5l0.3-1.5 0.3-0.2 0.2-0.3-0.2-0.3-0.3-0.2-0.3-0.2-0.2-0.3v-0.5l1 0.2 1 0.3 1 0.5 1 0.5 0.2 0.3 0.3 0.2v-2l-0.5-1-0.5-1-0.5-1-0.5-1-0.5-1q-0.5-1-2.5-6l-2-5-0.5-1.5-0.5-1.5-0.3-2.5-0.2-2.5 1.5 0.2 1.5 0.3 1 0.5 1 0.5 0.5 0.3 0.5 0.2 0.2 1 0.3 1 0.5 1 0.5 1 0.5 1 0.5 1 0.3 1 0.2 1 1 0.2 1 0.3 1 0.3 1 0.2 0.2-1 0.3-1v-8.5q0-8.5-0.5-16z" fill="#0f0f0f" stroke="#0f0f0f"/>
  <path d="m446 477l-1-0.5-0.2-0.3-0.3-0.2-0.5-1-0.5-1 0.5-4.5q0.5-4.5 1.8-5.7 1.2-1.3 6.7-0.6 5.5 0.8 5.3 6.8-0.3 6-2.6 7.2-2.2 1.3-5.2 0.8t-4-1z" fill="#fbfbfb" stroke="#fbfbfb"/>
  <path d="m387 617l0.5-1h0.5l1 0.2 1 0.3 1 0.5 1 0.5 21 11.7q21 11.8 24.5 15.6 3.5 3.7 6.7 8 3.3 4.2 4.3 6.2t1.5 4l0.5 2 0.3 0.2 0.2 0.3h1v-0.5l0.5-0.2q0.5-0.3 0.5-0.6v-0.2l1 0.8q1 0.7 1.2 1l0.3 0.2 0.3 0.5 0.2 0.5-1 0.2-1 0.3 0.5 0.3 0.5 0.2v0.5l-0.2 0.3-0.3 0.2-0.3 0.2-0.2 0.3-3.2 2.3q-3.3 2.2-3.6 2.4l-0.2 0.3-0.2 0.3-0.3 0.2-0.5 1-0.5 1-0.3 0.2-0.2 0.3-0.2 0.3-0.3 0.2-0.3 0.2-0.2 0.3-0.2 0.3-0.3 0.2-0.5 1-0.5 1-0.3 0.2-0.2 0.3-0.2 0.3-0.3 0.2v-3l0.5-1 0.5-1v-2q0-2-0.5-3.5t-2.2-3q-1.8-1.5-1.8-2.5t-6.5-3.2q-6.5-2.3-21.5-3.8t-23.5-6-14.5-11.5l-6-7-0.2-0.3-0.3-0.2-0.3-1.5-0.2-1.5 1-0.2 1-0.3 1-0.5 1-0.5-1-0.5-1-0.5 1.5-0.3 1.5-0.2v-2h0.5l0.3 0.2 0.2 0.3 0.2 0.3 0.3 0.2 0.5 1 0.5 1 3.7 5.2q3.8 5.3 9.8 8.8t13 3.5h7l0.2-0.3 0.3-0.2 0.3-0.2 0.2-0.3 0.2-0.3 0.3-0.2 0.3-0.2 0.2-0.3 0.2-0.3 0.3-0.2 0.3-0.2 0.2-0.3 0.2-0.3 0.3-0.2v-2l-0.3-0.2-0.2-0.3-0.2-0.3-0.3-0.2-0.5-1-0.5-1-0.5-1-0.5-1-0.3-0.2q-0.2-0.3-10.2-6.8l-10-6.5-0.2-0.3-0.3-0.2-0.3-0.2-0.2-0.3-0.2-0.3-0.3-0.2-0.3-0.2-0.2-0.3-0.2-0.3-0.3-0.2-0.3-0.2q-0.2-0.3-0.7-0.6l-0.5-0.2v-0.5l1-0.5 1-0.5h2l0.2 0.3 0.3 0.2 0.5-1z" fill="#080808" stroke="#080808"/>
  <path d="m458 566l-0.5 1-0.3 0.2q-0.2 0.3-5.7 0.3h-5.5l-1-0.3q-1-0.2-0.8-6.2 0.3-6 3-7.2 2.8-1.3 5.8-0.3t4.2 1.7q1.3 0.8 1.3 5.3t-0.5 5.5z" fill="#fbfbfb" stroke="#fbfbfb"/>
  <path d="m474.8 419l0.2-3 12.5 6q12.5 6 16 9.8 3.5 3.7 9.7 10 6.3 6.2 6.6 7.2 0.2 1 1.2 1t1.5 1.2q0.5 1.3 1.5 1.6 1 0.2 4.5 6.2t4.5 6 5.2 9q4.3 9 4.8 11l0.5 2 0.3 1 0.2 1-0.5 0.2-0.5 0.3-0.2 0.3-0.3 0.2-0.3 0.2-0.2 0.3 0.2 0.3 0.3 0.2 0.3 0.2 0.2 0.3-1 0.5-1 0.5-0.2 0.3-0.3 0.2h-0.5l-0.2-1-0.3-1-0.5-1-0.5-1-0.5-2q-0.5-2-4.5-9.5t-5.7-9q-1.8-1.5-5.3-5.7l-3.5-4.3-1-0.5-1-0.5-0.2-0.3-0.3-0.2-0.3-0.2-0.2-0.3h-4l-0.2 0.3-0.3 0.2-0.3 0.2-0.2 0.3-0.8 0.7q-0.7 0.8-0.7 2.8t0.3 3l0.2 1h-0.2q-0.3 0-0.6 1l-0.2 1-1-0.2-1-0.3-0.2-0.3-0.3-0.2-0.3 0.2-0.2 0.3-0.2 0.3-0.3 0.2-0.3-1-0.2-1 1-0.2 1-0.3-1-0.3-1-0.2-0.2-1-0.3-1-0.3-0.2q-0.2-0.3-1.2-0.6-1-0.2-1.5-2.2l-0.5-2 1 0.2 1 0.3 0.2 0.3 0.3 0.2 0.3 0.2 0.2 0.3 0.2 0.3 0.3 0.2v-3l-0.5-1.5-0.5-1.5-0.3-0.2-0.2-0.3-0.2-0.3-0.3-0.2-0.5-1-0.5-1-0.5-1.5q-0.5-1.5-2.5-5t-7.3-8q-5.2-4.5-5.4-5.5-0.3-1-6-4.5l-5.8-3.5h0.2q0.3 0 0.6-3z" fill="#0e0e0e" stroke="#0e0e0e"/>
  <path d="m971.2 565.5l0.8-0.5v35h-0.5l-3.5 21.5q-3.5 21.5-3.8 21.5h-0.2v-0.5l-1-0.3-1-0.2-0.2-1-0.3-1-0.3-0.2-0.2-0.3h-1.5q-1.5 0-2 1.3-0.5 1.2-1.5 1.2t-0.8-1l0.3-1v-1h-0.5l0.2-1q0.3-1 3.3-11t7.5-35.5 5.2-26z" fill="#0f0f0f" stroke="#0f0f0f"/>
 </g>
</svg>
