<?xml version="1.0" encoding="UTF-8"?>
<svg version="1.0" viewBox="0 0 587.24 519.2" xmlns="http://www.w3.org/2000/svg">
 <g transform="translate(-90.685 -20.882)">
  <path d="m301.32 540.03c0-0.39004 8.5408-9.3437 18.98-19.897 26.464-26.754 37.668-45.225 48.675-80.243 9.6798-30.796 11.626-40.279 11.626-56.655 0-10.295 0.68194-15.506 2.0294-15.506 3.4296 0 23.792-10.949 26.267-14.124 1.2834-1.6462 5.7796-9.0743 9.9917-16.507 7.1766-12.664 7.652-14.364 7.5579-27.027-0.08377-11.272-0.89314-14.859-4.8795-21.622-6.262-10.624-13.31-18.16-22.952-24.541-6.6818-4.4218-9.6284-5.1896-19.917-5.1896-11.048 0-12.925 0.58556-22.073 6.8858-6.386 4.3982-10.696 8.8892-11.931 12.431-7.4033 21.237 9.1471 41.759 30.1 37.324 16.223-3.4345 18.445-26.558 3.1025-32.285-8.6376-3.2243-16.098 6.3772-11.979 15.417 2.9306 6.432-2.459 5.8903-5.8046-0.58333-7.4016-14.322-1.5316-27.678 13.263-30.178 9.2686-1.5659 20.488 3.4496 29.097 13.007 5.3988 5.994 6.9141 9.4683 8.574 19.658 3.0399 18.661-0.48181 31.595-11.272 41.4-10.794 9.8086-18.676 13.321-29.89 13.321h-9.269l1.433 6.7569c0.78817 3.7162 1.3781 15.27 1.3109 25.676-0.12944 20.058-2.2627 29.593-10.481 46.848-4.9467 10.385-17.989 26.876-19.838 25.082-0.59208-0.57429 1.3268-5.4813 4.2641-10.904 11.284-20.833 15.682-54.744 9.5833-73.882-4.3812-13.748-10.19-22.07-26.87-38.497-8.4989-8.3703-16.804-18.568-19.81-24.323-6.7637-12.952-6.6327-12.615-4.8954-12.599 0.82585 0.00766 3.3025 3.1683 5.5038 7.0237 5.0808 8.8988 20.374 21.94 32.034 27.317 6.8203 3.1452 12.379 4.1825 22.881 4.2697 17.488 0.14525 22.829-3.4201 7.242-4.8335-13.109-1.1887-19.19-4.2458-30.649-15.407-7.2377-7.0497-9.3291-10.51-10.966-18.141-2.5685-11.977-2.5776-29.683-0.02002-38.982 2.4504-8.9099 18.12-30.442 25.194-34.621 7.624-4.5036 6.4279-6.3007-3.3223-4.9917-14.835 1.9917-29.109 10.22-38.913 22.43-7.3522 9.1576-9.6299 10.876-14.415 10.874-8.7126-0.00328-29.769-4.5224-40.914-8.7811-13.499-5.1579-32.927-21.513-41.071-34.574-3.6198-5.8054-8.203-11.07-10.185-11.698-10.547-3.3452-38.176-20.671-51.032-32.003-12.802-11.283-40.069-43.835-39.9-47.633 0.03297-0.74086 1.7304 0.68004 3.7721 3.1576 19.063 23.133 42.856 41.091 67.233 50.747 9.2003 3.6442 17.224 3.217 17.224-0.91693 0-2.6706-7.4369-10.19-10.078-10.19-4.1035 0-36.826-22.855-47.296-33.035-27.34-26.579-47.373-67.576-46.947-96.073l0.1846-12.336 2.3254 9.9101c8.7233 37.175 30.281 67.772 65.636 93.154 17.407 12.497 44.637 27.569 49.808 27.569 1.3394 0 2.4262 4.773 2.9745 13.063 1.1891 17.982 6.5323 29.443 19.485 41.798 23.549 22.462 47.492 24.123 74.08 5.1403 12.769-9.1166 17.131-23.188 12.458-40.182-3.7364-13.587-16.446-23.424-30.264-23.424-8.1334 0-13.218 3.1802-18.343 11.473-6.2407 10.098-4.5117 19.587 5.0386 27.652 5.5811 4.7134 12.279 5.2068 17.836 1.314 8.2242-5.7605 3.0904-18.817-7.3987-18.817-6.4704 0-6.1276-3.0286 0.50789-4.486 10.586-2.3252 22.739 7.3604 24.745 19.722 2.5425 15.667-24.771 32.629-44.352 27.542-9.4066-2.4438-21.5-11.625-27.246-20.686-9.0118-14.21-10.684-30.11-5.1386-48.864 0.49111-1.6609-2.7549-3.4619-10.087-5.5964-23.692-6.8976-38.075-15.525-55.245-33.14-10.415-10.684-19.045-23.865-16.979-25.932 0.55074-0.55076 2.7038 1.163 4.7846 3.8083 9.2595 11.772 21.651 21.729 35.77 28.742 14.803 7.3533 15.694 7.5544 36.037 8.1369 20.372 0.58337 21.258 0.4431 37.976-6.0159 12.38-4.7829 21.059-6.8948 31.359-7.6306 15.735-1.1241 18.4 1.8656 3.2609 3.6586-11.225 1.3295-26.706 8.1991-35.116 15.583-7.8813 6.9199-16.747 21.852-18.454 31.078-2.213 11.967 1.1092 11.282 7.3797-1.5228 6.6654-13.611 18.438-23.973 31.78-27.97 17.29-5.18 46.072 6.4569 59.689 24.132 7.8969 10.251 13.698 22.059 13.756 28 0.08247 8.4472 5.2317 3.8864 8.954-7.9307 3.034-9.6322 1.2148-24.832-4.2682-35.663l-4.12-8.138 5.9319-8.8084c9.9282-14.742 32.618-30.03 56.525-38.083 11.05-3.7223 36.756-5.3471 43.521-2.7509 1.5195 0.58309 8.0331-1.3044 14.474-4.1945 31.746-14.244 58.645-20.252 88.934-19.866 17.798 0.22714 17.875 0.24675 6.3064 1.6074-36.36 4.2763-86.488 23.559-86.488 33.27 0 5.0958 4.0823 4.5918 21.863-2.6992 19.192-7.8701 55.152-16.222 69.672-16.182 11.874 0.032773 49.951 6.2591 60.597 9.9087 15.614 5.3526 41.686 18.897 36.375 18.897-0.773 0-8.2833-2.4276-16.69-5.3946-19.527-6.8922-51.476-11.275-66.411-9.1107-31.048 4.4996-64.017 14.389-82.371 24.708-7.6459 4.2986-14.54 7.8156-15.321 7.8156-0.78081 0-5.456-2.8698-10.389-6.3772-18.878-13.422-36.39-14.392-58.661-3.2504-20.862 10.437-31.48 27.38-31.09 49.609 0.41831 23.797 11.421 35.808 32.632 35.621 18.859-0.16592 32.067-12.694 30.314-28.755-0.94591-8.6669-4.819-17.608-8.6908-20.064-4.1344-2.6217-16.592-1.6344-20.628 1.6349-8.0956 6.5577-10.085 15.864-4.4769 20.94 4.4581 4.0346 12.442 2.1031 15.06-3.6434 2.6588-5.8355 4.9722-5.3697 4.9722 1.0012 0 3.8984-1.7626 6.7346-6.7568 10.872-8.7533 7.2515-12.51 8.0776-20.864 4.5873-7.8407-3.276-13.742-13.728-13.742-24.337 0-8.2166 6.0566-21.443 12.188-26.615 22.65-19.107 50.793-17.865 71.654 3.1632l9.4485 9.5241 6.0189-5.7486c12.37-11.815 20.96-15.411 50.164-21.001 13.53-2.59 38.745-1.8696 40.617 1.1604 1.2883 2.0846-7.4535-0.24545-23.941 3.0118-14.314 2.828-15.871 3.481-26.586 8.9916-25.252 12.987-35.69 26.018-44.17 55.141-5.3853 18.496-12.103 32.822-17.809 37.978-5.4244 4.9018-6.1273 2.8528-1.972-5.7479 4.71-9.7485 8.9356-27.966 8.9689-38.667 0.03318-10.631-5.4848-25.53-11.957-32.286-6.1967-6.468-9.3476-6.7104-4.3313-0.33329 5.4556 6.9357 9.7216 23.082 8.3556 31.624-2.9218 18.272-22.046 40.249-39.666 45.583-9.9555 3.0138-38.344 3.6207-47.433 1.014-8.8114-2.5271-7.5284 1.622 3.6155 11.692 10.302 9.3089 18.986 13.812 33.98 17.622l9.7138 2.4681 4.1949 11.524c5.103 14.019 6.9685 38.828 4.2321 56.281-2.1424 13.664-9.7494 31.441-17.248 40.308-4.6305 5.4749-4.9208 6.9198-5.4313 27.027-0.45737 18.017-1.3729 23.716-6.0293 37.53-6.7937 20.154-14.887 37.459-23.333 49.89-7.8929 11.617-7.5368 11.202-8.6532 10.086-0.50359-0.50359 1.8971-7.0034 5.3349-14.444 9.8143-21.242 15.564-43.197 16.691-63.738 0.70802-12.902 0.33425-19.37-1.295-22.415l-2.2903-4.2794-3.357 4.1457c-1.8464 2.2802-3.3697 5.8802-3.3852 8.0002-0.10555 14.412-14.794 64.688-22.604 77.367-17.731 28.787-43.741 54.671-67.009 66.685-5.2028 2.6864-9.4596 4.5651-9.4596 4.1751z"/>
 </g>
</svg>
