<?xml version="1.0" encoding="UTF-8"?>
<svg width="337" height="328" version="1.0" viewBox="0 0 336.073 327.228" xmlns="http://www.w3.org/2000/svg">
 <g fill="none" stroke-miterlimit="10">
  <path d="m284.44 194.03c0-64.252-52.148-116.4-116.4-116.4-64.253 0-116.4 52.147-116.4 116.4s52.147 116.4 116.4 116.4c64.252 1e-3 116.4-52.147 116.4-116.4z" stroke="#000" stroke-width="33.6"/>
  <path d="m284.44 194.03c0-64.252-52.148-116.4-116.4-116.4-64.253 0-116.4 52.147-116.4 116.4s52.147 116.4 116.4 116.4c64.252 1e-3 116.4-52.147 116.4-116.4z" stroke="#fff" stroke-width="16.8"/>
  <path d="m319.32 292.22c-5.68-79.359-71.717-140.84-151.28-140.84s-145.6 61.482-151.28 140.84m-9.401-16.283c20.65 10.031 43.309 15.242 66.266 15.242 83.719 0 151.67-67.945 151.67-151.67 0-50.333-24.971-97.386-66.653-125.6m18.802 1e-3c-41.682 28.213-66.652 75.267-66.652 125.6 0 83.72 67.945 151.67 151.67 151.67 22.957 0 45.615-5.211 66.266-15.242" stroke="#000" stroke-width="33.6"/>
  <path d="m318.83 286.8c-8.299-77.029-73.318-135.42-150.79-135.42-77.475 0-142.5 58.391-150.79 135.42m-4.949-8.57c19.317 8.54 40.206 12.951 61.328 12.951 83.719 0 151.67-67.945 151.67-151.67 2.8422e-14 -48.41-23.111-93.912-62.201-122.47m9.895 0c-39.09 28.556-62.199 74.058-62.199 122.47 0 83.72 67.945 151.67 151.67 151.67 21.121 0 42.01-4.411 61.328-12.951" stroke="#fff" stroke-width="16.8"/>
  <path d="m126.23 157.25c-9.337 2.677-18.396 6.246-27.05 10.655m121.6 8.296c2.35-9.424 3.789-19.053 4.297-28.753m-67.985 101.16c6.987 6.748 14.606 12.809 22.753 18.099m66.076-159.19c-16.209-14.595-36.193-24.342-57.674-28.13m-134.07 90.43c-1.691 7.956-2.543 16.067-2.543 24.201 0 13.578 2.375 27.052 7.02 39.812m145.35 70.892c20.744-6.74 39.178-19.174 53.199-35.883" stroke="#000" stroke-width="33.6"/>
  <path d="m128.78 156.54c-11.092 2.972-21.81 7.194-31.949 12.584m123.29 9.639c2.971-11.092 4.674-22.485 5.074-33.961m-69.988 101.95c8.12 8.12 17.135 15.291 26.873 21.377m66.815-157.84c-17.682-17.075-40.316-28.115-64.658-31.536m-129.14 87.108c-2.296 9.21-3.458 18.667-3.458 28.159 0 14.944 2.877 29.748 8.476 43.604m140.01 68.287c23.629-6.775 44.506-20.857 59.641-40.228" stroke="#fff" stroke-width="16.8"/>
 </g>
</svg>
