<?xml version="1.0" encoding="utf-8"?>
<svg version="1.1" id="Layer_1" xmlns="http://www.w3.org/2000/svg" xmlns:xlink="http://www.w3.org/1999/xlink" x="0px" y="0px"
	 viewBox="0 0 2600.451 569.777" enable-background="new 0 0 2600.451 569.777" xml:space="preserve">
<g>
	<g>
		<path d="M1218.6,245.245c1.446-0.835,32.191,21.343,34.047,24.559c5.042,8.732-46.443-4.81-45.801-6.68
			C1207.884,260.114,1217.08,246.122,1218.6,245.245z M1206.846,306.652c-0.642-1.869,50.843-15.412,45.801-6.68
			c-1.857,3.216-32.602,25.393-34.047,24.559C1217.08,323.654,1207.884,309.662,1206.846,306.652z M1153.014,248.708
			c9.515-13.332,58.379-16.12,57.996-3.31c-0.244,8.179-14.797,20.543-23.298,19.799c-4.653-0.411-12.959,1.215-18.463,3.609
			C1155.395,274.834,1144.236,261.018,1153.014,248.708z M1169.249,300.971c5.504,2.394,13.81,4.02,18.463,3.609
			c8.502-0.744,23.054,11.62,23.298,19.799c0.384,12.81-48.481,10.022-57.996-3.31
			C1144.236,308.758,1155.395,294.943,1169.249,300.971z M1130.086,266.688c6.356-3.67,8.862-2.998,12.532,3.358
			c5.413,9.375,5.567,9.201-7.095,8.092C1122.446,276.993,1120.253,272.365,1130.086,266.688z M1135.522,291.639
			c12.662-1.109,12.508-1.283,7.095,8.092c-3.67,6.356-6.176,7.027-12.532,3.358
			C1120.253,297.412,1122.446,292.784,1135.522,291.639z M1088.87,225.259c7.926-1.258,12.769,7.005,6.298,10.741
			c-2.724,1.572-3.56,3.61-1.852,4.527c11.293,6.078,8.352,30.305-3.121,25.713C1065.487,256.352,1064.606,229.103,1088.87,225.259z
			 M1090.196,303.537c11.473-4.592,14.413,19.635,3.121,25.713c-1.707,0.917-0.871,2.955,1.852,4.527
			c6.47,3.736,1.628,11.999-6.298,10.741C1064.606,340.674,1065.487,313.425,1090.196,303.537z M1075.999,284.888
			c-3.658-6.837-6.318-12.987-5.276-13.589c3.896-2.249,48.093,8.894,50.274,12.673c0.146,0.252,0.169,0.56,0.084,0.915
			c0.085,0.355,0.061,0.663-0.084,0.915c-2.182,3.779-46.378,14.923-50.274,12.673
			C1069.682,297.876,1072.341,291.726,1075.999,284.888z M355.109,284.888c-1.816-1.315-3.701-5.071-0.153-7.119
			c4.28-2.471,3.483,5.163,2.082,7.119c1.401,1.956,2.198,9.59-2.082,7.119C351.408,289.959,353.292,286.203,355.109,284.888z
			 M324.661,208.396c-0.51-3.202-2.307-5.024-4.001-4.046c-3.95,2.281,0.932,10.898,6.262,11.059
			c6.039,0.179,5.361,23.523,11.274,33.766c5.249,9.092,0.178,10.613-15.935,4.772c-34.899-12.647-36.937-57.856-2.68-59.444
			c13.324-0.621,15.807,1.31,13.379,10.373C330.71,213.28,325.767,215.376,324.661,208.396z M332.959,364.901
			c2.428,9.063-0.055,10.994-13.379,10.373c-34.257-1.588-32.219-46.797,2.68-59.444c16.114-5.841,21.185-4.32,15.935,4.772
			c-5.914,10.243-5.236,33.586-11.274,33.766c-5.33,0.16-10.212,8.778-6.262,11.059c1.694,0.978,3.492-0.844,4.001-4.046
			C325.767,354.401,330.71,356.496,332.959,364.901z M417.323,247.355c1.952,7.513,5.236,14.566,7.298,15.672
			c4.662,2.512-1.374,5.657-16.317,8.501c-13.491,2.569-38.029-2.34-37.872-7.58c0.201-6.756,5.61-6.9,10.792-0.286
			c6.874,8.773,19.029,2.149,14.904-8.122c-2.051-5.108-0.29-9.684,5.778-15.018C412.907,230.854,413.053,230.917,417.323,247.355z
			 M401.908,329.255c-6.069-5.334-7.829-9.91-5.778-15.018c4.125-10.271-8.03-16.894-14.904-8.122
			c-5.183,6.614-10.591,6.47-10.792-0.286c-0.157-5.239,24.38-10.148,37.872-7.58c14.943,2.844,20.979,5.989,16.317,8.501
			c-2.062,1.106-5.346,8.159-7.298,15.672C413.053,338.86,412.907,338.923,401.908,329.255z M406.542,224.38
			c-7.443,10.785-15.52,16.236-36.612,24.715c-26.512,10.658-36.704-35.677-14.272-64.909c14.65-19.094,44.98-13.025,36.046,7.214
			c-4.08,9.233-9.416,9.377-14.603,0.393c-3.706-6.42-4.095-6.322-6.214,1.588c-2.118,7.905-1.662,8.629,7.307,11.519
			c12.067,3.889,17.398,0.828,20.823-11.954c2.706-10.101,2.706-10.101,10.949-4.22C419.809,195.75,418.76,206.682,406.542,224.38z
			 M409.965,381.051c-8.243,5.881-8.243,5.881-10.949-4.22c-3.425-12.782-8.756-15.843-20.823-11.954
			c-8.969,2.89-9.425,3.613-7.307,11.519c2.12,7.91,2.508,8.008,6.214,1.588c5.187-8.984,10.523-8.84,14.603,0.393
			c8.934,20.238-21.396,26.308-36.046,7.214c-22.433-29.231-12.24-75.567,14.272-64.909c21.092,8.478,29.169,13.93,36.612,24.715
			C418.76,363.095,419.809,374.027,409.965,381.051z M941.343,184.023c21.651,7.924-26.718,6.711-30.04,0.958
			C909.246,181.419,932.212,180.685,941.343,184.023z M911.303,384.796c3.322-5.753,51.691-6.966,30.04,0.958
			C932.212,389.092,909.246,388.358,911.303,384.796z M923.602,232.558c0.879-10.016,0.879-10.016,26.561-2.259
			c29.032,8.768,33.612,13.353,24.499,24.533c-14.829,18.189-42.558,24.889-49.96,12.069c-5.035-8.72,0.07-20.091,7.957-17.725
			c4.84,1.455,5.509,2.68,3.058,5.612c-4.408,5.282-0.746,10.142,5.102,6.766c8.434-4.87,3.743-15.521-7.632-17.322
			C923.421,242.688,922.782,241.913,923.602,232.558z M933.185,325.544c11.375-1.801,16.067-12.453,7.632-17.322
			c-5.847-3.376-9.509,1.484-5.102,6.766c2.451,2.932,1.783,4.156-3.058,5.612c-7.887,2.366-12.992-9.005-7.957-17.725
			c7.402-12.82,35.131-6.12,49.96,12.069c9.113,11.181,4.533,15.766-24.499,24.533c-25.682,7.757-25.682,7.757-26.561-2.259
			C922.782,327.864,923.421,327.088,933.185,325.544z M891.857,187.996c2.38,4.122-3.411,7.156-16.268,8.519
			c-9.982,1.059-9.982,1.059-3.344-4.493C880.225,185.352,889.259,183.496,891.857,187.996z M872.245,377.754
			c-6.638-5.552-6.638-5.552,3.344-4.493c12.857,1.364,18.647,4.398,16.268,8.519C889.259,386.28,880.225,384.424,872.245,377.754z
			 M816.386,158.116c12.162-0.564,55.534,9.997,57.861,14.085c4.707,8.278-54.801,33.804-70.266,30.144
			C766.253,193.408,775.622,160.008,816.386,158.116z M803.981,367.431c15.465-3.66,74.973,21.866,70.266,30.144
			c-2.327,4.089-45.699,14.649-57.861,14.085C775.622,409.769,766.253,376.369,803.981,367.431z M848.1,202.111
			c1.676-2.146,5.252-4.21,7.945-4.587C862.598,196.596,844.027,207.317,848.1,202.111z M856.045,372.253
			c-2.693-0.377-6.268-2.441-7.945-4.587C844.027,362.46,862.598,373.181,856.045,372.253z M753.113,284.888
			c-10.124-12.889-22.371-19.46-42.692-24.644c-23.233-5.93-27.206-8.085-26.158-14.211c3.348-19.624,47.518-68.18,63.79-70.13
			c3.903-0.469,10.848-3.433,15.432-6.592c24.18-16.644-9.902,23.72,37.713,45.468c11.341,5.177,11.714,5.728,7.239,10.63
			c-9.632,10.552-14.645,42.624-8.843,56.571c0.441,1.06,0.844,2.028,1.21,2.907c-0.366,0.879-0.769,1.847-1.21,2.907
			c-5.802,13.947-0.789,46.019,8.843,56.571c4.475,4.902,4.102,5.453-7.239,10.63c-47.615,21.748-13.533,62.112-37.713,45.468
			c-4.583-3.159-11.529-6.122-15.432-6.592c-16.272-1.95-60.442-50.506-63.79-70.13c-1.048-6.126,2.925-8.281,26.158-14.211
			C730.742,304.348,742.989,297.777,753.113,284.888z M644.444,284.888c7.466-9.284,18.365-16.573,20.832-12.05
			c1.644,3.014,1.89,7.56,1.183,12.05c0.707,4.49,0.461,9.036-1.183,12.05C662.809,301.461,651.91,294.172,644.444,284.888z
			 M582.413,284.888c10.912-17.143,38.75-37.327,55.776-32.767c4.027,1.082,8.633,1.206,10.235,0.282
			c4.417-2.55,20.291,3.404,19.266,7.228c-0.494,1.845-6.358,6.506-13.032,10.359c-7.018,4.052-11.121,8.304-13.95,14.898
			c2.829,6.595,6.932,10.846,13.95,14.898c6.674,3.853,12.538,8.514,13.032,10.359c1.025,3.825-14.849,9.779-19.266,7.228
			c-1.602-0.925-6.208-0.8-10.235,0.282C621.163,322.216,593.325,302.031,582.413,284.888z M909.836,284.888
			c0.359-0.64,0.703-1.287,1.032-1.94c5.417-10.755,5.417-10.755,22.529-5.63c17.333,5.192,38.629-3.879,52.548-22.381
			c4.655-6.187,21.522,8.198,37.041,29.951c-15.519,21.753-32.386,36.139-37.041,29.951c-13.919-18.502-35.216-27.574-52.548-22.381
			c-17.112,5.125-17.112,5.125-22.529-5.63C910.539,286.175,910.195,285.529,909.836,284.888z M694.296,284.888
			c-3.962-9.196-0.192-22.867,8.68-19.316c11.406,4.564,17.254,11.987,18.55,19.316c-1.296,7.329-7.144,14.752-18.55,19.316
			C694.104,307.755,690.334,294.085,694.296,284.888z M726.029,284.888c-0.195-2.126-0.635-4.335-1.339-6.602
			c-1.802-5.815,0.225-5.393,10.617,2.192c1.876,1.37,3.651,2.846,5.316,4.41c-1.665,1.564-3.44,3.04-5.316,4.41
			c-10.392,7.585-12.42,8.007-10.617,2.192C725.394,289.223,725.834,287.015,726.029,284.888z M676.761,284.888
			c1.199-25.197,10.108-21.724,10.383,0C686.869,306.612,677.96,310.085,676.761,284.888z M655.417,173.12
			c2.91-0.977,2.525-4.28-1.078-9.28c-6.418-8.9-10.988-36.889-6.147-37.655c7.9-1.252,86.59,33.02,84.424,36.77
			c0,0-34.951,31.738-49.948,59.112c-21.459,39.161-10.217,14.577-44.339,19.082c-21.418,2.818,1.023-8.327,9.07-48.889
			C649.322,182.571,652.928,173.955,655.417,173.12z M647.4,377.516c-8.047-40.563-30.489-51.707-9.07-48.889
			c34.121,4.505,22.88-20.078,44.339,19.082c14.996,27.374,49.948,59.112,49.948,59.112c2.165,3.75-76.524,38.022-84.424,36.77
			c-4.842-0.766-0.272-28.754,6.147-37.655c3.603-5,3.989-8.303,1.078-9.28C652.928,395.822,649.322,387.206,647.4,377.516z
			 M485.538,284.888c-1.046-0.976-2.045-1.834-2.973-2.54c-10.627-8.102-10.742-8.493-3.808-12.496
			c26.177-15.113,44.616-74.094,39.701-127.002c-1.769-19.042-1.677-34.867,0.199-35.17c4.436-0.714,86.044,32.318,101.857,41.226
			c30.071,16.944,6.556,104.151-25.752,95.495c-16.89-4.528-20.344-33.666-3.65-30.812c9.199,1.57,10.873-4.697,2.447-9.163
			c-25.763-13.651-33.475,28.645-8.263,45.326c9.86,6.524,9.86,6.524-1.973,25.198c-2.206,3.481-4.193,6.891-5.822,9.938
			c1.629,3.047,3.616,6.457,5.822,9.938c11.832,18.675,11.832,18.675,1.973,25.198c-25.211,16.681-17.5,58.977,8.263,45.326
			c8.426-4.466,6.752-10.733-2.447-9.163c-16.694,2.853-13.24-26.284,3.65-30.812c32.307-8.657,55.822,78.551,25.752,95.495
			c-15.813,8.909-97.421,41.94-101.857,41.226c-1.876-0.303-1.968-16.128-0.199-35.17c4.915-52.908-13.524-111.889-39.701-127.002
			c-6.934-4.004-6.819-4.394,3.808-12.496C483.492,286.722,484.492,285.865,485.538,284.888z M1302.385,284.888
			c-3.96-20.653-5.107-44.175-3.508-71.16c1.854-31.342-3.691-67.784-9.779-64.269c-1.748,1.009-1.831,4.167-0.184,7.021
			c5.407,9.366-3.768,103.311-10.464,107.177c-9.674,5.585-56.177-34.295-56.936-48.827c-0.427-8.241-3.022-18.526-5.762-22.86
			c-4.376-6.918-4.558-6.457-1.503,3.775c20.641,69.067-47.584-3.478-72.706,51.824c-5.482,12.068-24.027,21.258-31.188,15.46
			c-10.346-8.379-3.229-42.407,10.531-50.351c8.727-5.038,20.894,1.343,18.634,9.78c-2.132,7.968-6.101,9.637-9.385,3.948
			c-3.594-6.226-11.065-2.545-5.29,4.114c5.635,6.509,19.297-1.379,19.687-11.367c0.638-16.288-22.934-19.916-34.852-5.365
			c-6.404,7.82-9.563,9.432-17.174,8.763c-18.1-1.583-31.725,15.838-23.51,30.065c8.888,15.394-6.477,1.947-20.244-17.715
			c-14.154-20.222-14.762-22.045-11.224-33.774c7.488-24.819,54.957-37.907,54.056-14.904c-0.342,8.714-10.099,15.652-15.402,10.952
			c-6.195-5.499,12.155-8.57,2.138-11.247c-7.314-1.96-10.943,5.17-6.525,12.822c5.306,9.191,17.979,7.429,22.93-3.188
			c15.833-33.976-47.374-34.614-64.504-0.653c-3.015,5.978-6.142,10.513-6.948,10.079c-11.292-6.077-36.903-34.02-95.931-35.754
			c-19.966-0.587-28.613-3.183-43.135-12.952c-29.269-19.686-75.368-22.207-119.442-6.527c-20.803,7.401-24.772,7.586-33.387,1.56
			c-23.355-16.325-81.633-37.538-112.144-79.168c-41.744-56.955,22.459,81.561,3.398,65.466
			c-14.046-11.866-96.063-39.979-139.843-97.744c-11.989-15.819-21.8-26.867-21.806-24.55
			c-0.091,42.716,87.882,192.871,1.02,243.021c-13.884,8.016-22.323,5.151-31.471-10.695c-8.17-14.151-3.212-23.692,12.333-23.731
			c10.933-0.028,12.316-0.738,11.494-5.912c-1.326-8.374-17.956-12.679-27.557-7.137c-7.405,4.275-7.943,3.988-6.017-3.208
			c1.931-7.195,3.877-7.743,21.748-6.124c26.564,2.409,54.696-9.032,54.277-22.074c-0.276-8.595-0.865-8.514-20.584,2.871
			c-26.987,15.581-42.902,14.54-72.069-4.721c-29.164-19.255-44.906-17.451-60.539,6.948c-5.879,9.17-7.036,9.567-18.122,6.225
			c-22.982-6.934-43.656,15.442-35.959,38.918c12.91,39.371-63.562-38.95-44.028-60.356c2.601-2.849,7.612-12.488,11.135-21.424
			c9.738-24.681,37.926-35.231,58.651-21.947c16.819,10.777,9.871,35.445-8.586,30.5c-8.837-2.368-9.796-6.208-2.595-10.366
			c7.452-4.303,5.199-10.642-3.302-9.293c-14.276,2.259-11.708,21.95,3.502,26.851c12.102,3.898,23.212-3.765,27.234-18.779
			c7.923-29.57-36.912-44.036-72.707-23.463c-4.938,2.838-12.483,4.22-16.769,3.072c-11.481-3.079-24.09,7.646-20.241,17.212
			c1.71,4.254,4.64,6.855,6.512,5.774c5.265-3.04-4.895-9.886,4.061-15.057c10.027-5.789,13.917-0.387,7.236,10.038
			c-17.58,27.423,6.394,35.785-67.365,39.029c-42.587,1.876-46.531,3.696-23.265,10.733c39.029,11.803,62.122,47.223,85.895,58.311
			c10.58,4.93,9.612,1.353-1.502-5.552c-10.852-6.739-47.698-47.461-44.578-49.263c7.487-4.323,39.358-12.325,40.59-10.193
			c5.811,10.066-6.835,9.884,21.689,41.808c17.97,20.117,18.355,20.878,14.6,28.935c-5.348,11.478,3.419,21.907,14.543,17.299
			c8.114-3.362,8.106-3.596-0.119-4.588c-8.603-1.037-11.601-9.107-4.832-13.015c13.125-7.578,28.966,6.641,20.546,18.443
			c-12.704,17.805-49.046,6.914-87.696-26.284c-61.666-52.969-79.307-57.191-145.116-34.725
			c-25.81,8.813-68.618,39.296-22.107,18.259c67.995-30.744,91.506-26.535,162.08,29.004c13.864,10.909,28.232,19.036,41.711,24.226
			c-13.478,5.19-27.847,13.317-41.711,24.226c-70.573,55.538-94.084,59.748-162.08,29.004c-46.512-21.037-3.704,9.446,22.107,18.259
			c65.809,22.465,83.45,18.243,145.116-34.725c38.65-33.198,74.992-44.088,87.696-26.284c8.419,11.802-7.421,26.02-20.546,18.443
			c-6.769-3.908-3.771-11.978,4.832-13.015c8.226-0.992,8.233-1.226,0.119-4.588c-11.123-4.608-19.891,5.821-14.543,17.299
			c3.755,8.057,3.37,8.819-14.6,28.935c-28.523,31.924-15.877,31.743-21.689,41.808c-1.231,2.132-33.102-5.87-40.59-10.193
			c-3.121-1.802,33.725-42.524,44.578-49.263c11.114-6.905,12.082-10.482,1.502-5.552c-23.773,11.087-46.866,46.508-85.895,58.311
			c-23.266,7.037-19.322,8.857,23.265,10.733c73.759,3.243,49.785,11.606,67.365,39.029c6.68,10.425,2.79,15.827-7.236,10.038
			c-8.956-5.171,1.203-12.017-4.061-15.057c-1.872-1.081-4.801,1.52-6.512,5.774c-3.849,9.566,8.76,20.291,20.241,17.212
			c4.286-1.148,11.831,0.233,16.769,3.072c35.796,20.573,80.63,6.107,72.707-23.463c-4.023-15.013-15.132-22.677-27.234-18.779
			c-15.211,4.9-17.778,24.591-3.502,26.851c8.501,1.349,10.754-4.99,3.302-9.293c-7.201-4.158-6.242-7.998,2.595-10.366
			c18.457-4.946,25.405,19.723,8.586,30.5c-20.725,13.284-48.913,2.734-58.651-21.947c-3.523-8.936-8.534-18.575-11.135-21.424
			c-19.533-21.405,56.939-99.726,44.028-60.356c-7.697,23.475,12.976,45.852,35.959,38.918c11.086-3.341,12.242-2.945,18.122,6.225
			c15.634,24.399,31.375,26.204,60.539,6.948c29.167-19.262,45.082-20.303,72.069-4.721c19.719,11.385,20.308,11.466,20.584,2.871
			c0.419-13.042-27.712-24.483-54.277-22.074c-17.871,1.619-19.818,1.071-21.748-6.124c-1.926-7.197-1.387-7.483,6.017-3.208
			c9.601,5.543,26.23,1.237,27.557-7.137c0.822-5.174-0.561-5.883-11.494-5.912c-15.545-0.039-20.503-9.579-12.333-23.73
			c9.148-15.845,17.587-18.711,31.471-10.695c86.861,50.149-1.111,200.305-1.02,243.021c0.006,2.317,9.816-8.731,21.806-24.55
			c43.78-57.765,125.798-85.878,139.843-97.744c19.06-16.095-45.142,122.421-3.398,65.466
			c30.511-41.63,88.789-62.843,112.144-79.168c8.615-6.026,12.584-5.841,33.387,1.56c44.074,15.679,90.174,13.159,119.442-6.527
			c14.521-9.769,23.169-12.365,43.135-12.952c59.028-1.734,84.639-29.677,95.931-35.754c0.805-0.434,3.933,4.101,6.948,10.079
			c17.129,33.962,80.337,33.323,64.504-0.653c-4.951-10.617-17.624-12.379-22.93-3.188c-4.418,7.653-0.789,14.782,6.525,12.822
			c10.017-2.678-8.333-5.749-2.138-11.247c5.303-4.701,15.06,2.237,15.402,10.952c0.901,23.003-46.568,9.915-54.056-14.904
			c-3.538-11.729-2.93-13.552,11.224-33.774c13.767-19.662,29.132-33.109,20.244-17.715c-8.214,14.228,5.41,31.649,23.51,30.065
			c7.611-0.669,10.77,0.942,17.174,8.763c11.917,14.55,35.49,10.923,34.852-5.365c-0.39-9.988-14.052-17.876-19.687-11.367
			c-5.775,6.658,1.696,10.339,5.29,4.114c3.284-5.688,7.253-4.02,9.385,3.948c2.261,8.436-9.907,14.818-18.634,9.78
			c-13.76-7.945-20.877-41.973-10.531-50.351c7.161-5.798,25.707,3.393,31.188,15.46c25.122,55.303,93.347-17.242,72.706,51.824
			c-3.055,10.232-2.873,10.693,1.503,3.775c2.739-4.334,5.334-14.619,5.762-22.86c0.759-14.532,47.262-54.412,56.936-48.827
			c6.696,3.866,15.872,97.811,10.464,107.177c-1.648,2.854-1.564,6.012,0.184,7.021c6.089,3.515,11.633-32.927,9.779-64.269
			C1297.278,329.064,1298.425,305.541,1302.385,284.888z M299.18,284.888c3.717-3.143,6.298-7.394,7.457-12.785
			c1.962-9.116,2.379-9.259,21.749-7.502c21.288,1.93,24.366,3.716,18.609,10.824c-2.524,3.115-2.576,6.453-0.604,9.463
			c-1.972,3.009-1.92,6.348,0.604,9.463c5.757,7.108,2.679,8.894-18.609,10.824c-19.371,1.757-19.788,1.614-21.749-7.502
			C305.478,292.282,302.898,288.031,299.18,284.888z M803.22,284.888c-2.654-18.656-6.854-66.981,44.954-61.481
			c54.086,5.741,60.462-9.639,58.567,20.805c-0.963,15.482-6.124,29.817-13.749,40.676c7.625,10.859,12.785,25.194,13.749,40.676
			c1.895,30.444-4.481,15.064-58.567,20.805C796.366,351.869,800.566,303.545,803.22,284.888z M835.37,284.888
			c-0.868-7.134,2.155-14.544,10.276-19.233c10.093-5.827,17.081-1.459,12.884,8.049c-4.828,10.94,5.629,13.661,12.149,3.164
			c5.976-9.62,0.394-19.037-13.134-22.154c-21.332-4.914-34.089,12.004-32.465,30.175c-1.624,18.172,11.134,35.089,32.465,30.175
			c13.529-3.117,19.11-12.535,13.134-22.154c-6.52-10.497-16.977-7.776-12.149,3.164c4.197,9.508-2.791,13.876-12.884,8.049
			C837.525,299.433,834.502,292.022,835.37,284.888z"/>
		<path d="M1016.692,284.888c-0.919-3.405-2.856-6.806-5.91-9.897c-5.787-5.854-18.751-4.522-26.036,2.676
			c-2.075,2.05-3.29,4.55-3.789,7.221c0.5,2.671,1.714,5.171,3.789,7.221c7.285,7.198,20.249,8.53,26.036,2.676
			C1013.836,291.695,1015.773,288.294,1016.692,284.888z"/>
		<path d="M732.081,223.172c-4.888-8.466-6.569-8.919-14.994-4.055c-9.82,5.669-9.998,14.256-0.461,21.982
			C725.812,248.541,738.337,234.009,732.081,223.172z"/>
		<path d="M732.081,346.605c-4.888,8.466-6.569,8.919-14.994,4.055c-9.82-5.669-9.998-14.256-0.461-21.982
			C725.812,321.236,738.337,335.768,732.081,346.605z"/>
		<path d="M742.901,213.217c9.186,7.442,21.711-7.09,15.455-17.927c-4.888-8.466-6.569-8.919-14.994-4.055
			C733.542,196.904,733.364,205.49,742.901,213.217z"/>
		<path d="M742.901,356.56c9.186-7.442,21.711,7.09,15.455,17.927c-4.888,8.466-6.569,8.919-14.994,4.055
			C733.542,372.873,733.364,364.287,742.901,356.56z"/>
		<path d="M651.677,228.491c-0.787,2.937,0.825,7.168,3.581,9.403c6.373,5.16,15.535-2.486,12.722-10.616
			C665.455,219.981,653.725,220.851,651.677,228.491z"/>
		<path d="M651.677,341.286c-0.787-2.937,0.825-7.168,3.581-9.403c6.373-5.159,15.535,2.486,12.722,10.616
			C665.455,349.796,653.725,348.926,651.677,341.286z"/>
		<path d="M207.568,118.33c59.778-26.843,123.704-20.548,143.772,14.159c9.747,16.86,69.703,46.926,90.805,45.54
			c27.367-1.801,36.329-13.331,27.812-35.773c-6.394-16.843-25.24-19.021-34.183-3.951c-7.712,12.99-0.184,26.653,11.921,21.639
			c8.114-3.362,8.106-3.596-0.119-4.588c-9.686-1.166-11.309-9.276-2.833-14.169c13.745-7.936,27.682,6.789,18.547,19.597
			c-12.697,17.801-49.009,6.927-87.715-26.273c-50.802-43.568-69.207-51.916-102.025-46.274
			c-30.618,5.262-63.916,18.207-76.729,29.825C185.695,128.149,185.695,128.149,207.568,118.33z"/>
		<path d="M207.568,451.447c59.778,26.843,123.704,20.548,143.772-14.159c9.747-16.86,69.703-46.926,90.805-45.54
			c27.367,1.801,36.329,13.331,27.812,35.773c-6.394,16.843-25.24,19.021-34.183,3.951c-7.712-12.991-0.184-26.653,11.921-21.639
			c8.114,3.363,8.106,3.596-0.119,4.588c-9.686,1.166-11.309,9.276-2.833,14.169c13.745,7.936,27.682-6.789,18.547-19.597
			c-12.697-17.801-49.009-6.927-87.715,26.273c-50.802,43.568-69.207,51.916-102.025,46.274
			c-30.618-5.262-63.916-18.207-76.729-29.825C185.695,441.628,185.695,441.628,207.568,451.447z"/>
		<path d="M378.253,120.395c1.205,2.088,8.503,7.536,16.222,12.113c14.734,8.735,21.084,7.984,6.912-0.821
			c-27.554-17.113-48.439-48.546-35.011-52.685c39.281-12.107,64.206-37.595,55.865-57.127
			c-7.666-17.938-40.211-11.814-32.961,6.204c4.28,10.645,10.65,5.097,7.028-1.177c-4.453-7.713,11.549-12.545,17.299-5.221
			c16.638,21.186-18.992,44.16-71.726,46.25c-44.735,1.773-49.046,3.575-25.22,10.548C332.786,83.2,372.306,110.095,378.253,120.395
			z"/>
		<path d="M378.253,449.382c1.205-2.088,8.503-7.536,16.222-12.113c14.734-8.735,21.084-7.984,6.912,0.821
			c-27.554,17.113-48.439,48.546-35.011,52.685c39.281,12.107,64.206,37.594,55.865,57.127
			c-7.666,17.938-40.211,11.814-32.961-6.204c4.28-10.645,10.65-5.097,7.028,1.177c-4.453,7.713,11.549,12.545,17.299,5.221
			c16.638-21.186-18.992-44.16-71.726-46.25c-44.735-1.773-49.046-3.575-25.22-10.548
			C332.786,486.576,372.306,459.681,378.253,449.382z"/>
	</g>
	<g>
		<path d="M1393.605,263.124c0.642,1.869-50.843,15.412-45.801,6.68c1.857-3.216,32.602-25.393,34.047-24.559
			C1383.371,246.122,1392.568,260.114,1393.605,263.124z M1381.851,324.532c-1.446,0.835-32.191-21.343-34.047-24.559
			c-5.042-8.732,46.443,4.81,45.801,6.68C1392.568,309.662,1383.371,323.654,1381.851,324.532z M1431.202,268.806
			c-5.504-2.394-13.81-4.02-18.463-3.609c-8.502,0.744-23.054-11.62-23.298-19.799c-0.384-12.81,48.481-10.022,57.996,3.31
			C1456.215,261.018,1445.056,274.834,1431.202,268.806z M1447.437,321.068c-9.515,13.332-58.379,16.12-57.996,3.31
			c0.244-8.179,14.797-20.543,23.298-19.799c4.653,0.411,12.959-1.215,18.463-3.609
			C1445.056,294.943,1456.215,308.758,1447.437,321.068z M1464.929,278.138c-12.662,1.109-12.508,1.283-7.095-8.092
			c3.67-6.356,6.176-7.027,12.532-3.358C1480.198,272.365,1478.005,276.993,1464.929,278.138z M1470.365,303.089
			c-6.356,3.67-8.862,2.998-12.532-3.358c-5.413-9.375-5.567-9.201,7.095-8.092C1478.005,292.784,1480.198,297.412,1470.365,303.089
			z M1510.255,266.24c-11.473,4.592-14.413-19.635-3.121-25.713c1.707-0.917,0.871-2.955-1.852-4.527
			c-6.47-3.736-1.628-11.999,6.298-10.741C1535.845,229.103,1534.964,256.352,1510.255,266.24z M1511.581,344.518
			c-7.926,1.258-12.769-7.005-6.298-10.741c2.724-1.572,3.56-3.61,1.852-4.527c-11.293-6.078-8.353-30.305,3.121-25.713
			C1534.964,313.425,1535.845,340.674,1511.581,344.518z M1529.728,298.477c-3.896,2.249-48.093-8.895-50.274-12.673
			c-0.146-0.252-0.169-0.56-0.084-0.915c-0.085-0.355-0.061-0.663,0.084-0.915c2.182-3.779,46.378-14.923,50.274-12.673
			c1.042,0.601-1.617,6.751-5.276,13.589C1528.11,291.726,1530.769,297.876,1529.728,298.477z M2245.496,292.007
			c-4.28,2.471-3.483-5.163-2.082-7.119c-1.402-1.956-2.198-9.59,2.082-7.119c3.547,2.048,1.663,5.804-0.153,7.119
			C2247.159,286.203,2249.043,289.959,2245.496,292.007z M2267.492,204.876c-2.428-9.063,0.055-10.994,13.379-10.373
			c34.257,1.588,32.219,46.797-2.68,59.444c-16.114,5.841-21.185,4.32-15.935-4.772c5.914-10.243,5.236-33.587,11.274-33.766
			c5.33-0.16,10.212-8.778,6.262-11.059c-1.694-0.978-3.492,0.844-4.001,4.046C2274.684,215.376,2269.741,213.28,2267.492,204.876z
			 M2275.79,361.381c0.51,3.202,2.307,5.024,4.001,4.046c3.95-2.281-0.932-10.898-6.262-11.059
			c-6.039-0.179-5.361-23.523-11.274-33.766c-5.25-9.092-0.178-10.613,15.935-4.772c34.899,12.647,36.938,57.856,2.68,59.444
			c-13.324,0.621-15.807-1.31-13.379-10.373C2269.741,356.496,2274.684,354.401,2275.79,361.381z M2198.543,240.522
			c6.069,5.334,7.829,9.91,5.779,15.018c-4.125,10.271,8.03,16.894,14.904,8.122c5.183-6.614,10.592-6.47,10.792,0.286
			c0.157,5.239-24.38,10.148-37.872,7.58c-14.943-2.844-20.979-5.989-16.317-8.501c2.062-1.106,5.346-8.159,7.298-15.672
			C2187.397,230.917,2187.544,230.854,2198.543,240.522z M2183.128,322.422c-1.952-7.513-5.236-14.566-7.298-15.672
			c-4.662-2.512,1.374-5.657,16.317-8.501c13.491-2.569,38.029,2.34,37.872,7.58c-0.201,6.756-5.61,6.9-10.792,0.286
			c-6.874-8.773-19.029-2.149-14.904,8.122c2.051,5.108,0.29,9.684-5.779,15.018C2187.544,338.923,2187.397,338.86,2183.128,322.422
			z M2190.486,188.726c8.243-5.881,8.243-5.881,10.949,4.22c3.425,12.782,8.756,15.843,20.823,11.954
			c8.969-2.89,9.425-3.614,7.307-11.519c-2.12-7.91-2.508-8.008-6.215-1.588c-5.187,8.984-10.523,8.84-14.603-0.393
			c-8.934-20.238,21.396-26.308,36.046-7.214c22.433,29.231,12.24,75.567-14.271,64.909c-21.092-8.478-29.169-13.93-36.612-24.715
			C2181.691,206.682,2180.642,195.75,2190.486,188.726z M2193.909,345.397c7.443-10.785,15.52-16.236,36.612-24.715
			c26.512-10.658,36.704,35.677,14.271,64.909c-14.65,19.094-44.98,13.025-36.046-7.214c4.08-9.233,9.416-9.377,14.603-0.393
			c3.706,6.42,4.095,6.322,6.215-1.588c2.118-7.905,1.662-8.629-7.307-11.519c-12.067-3.889-17.398-0.828-20.823,11.954
			c-2.706,10.101-2.706,10.101-10.949,4.22C2180.642,374.027,2181.691,363.095,2193.909,345.397z M1689.148,184.981
			c-3.322,5.753-51.691,6.966-30.04-0.958C1668.239,180.685,1691.205,181.419,1689.148,184.981z M1659.108,385.754
			c-21.651-7.924,26.718-6.711,30.04-0.958C1691.205,388.358,1668.239,389.092,1659.108,385.754z M1667.266,244.233
			c-11.375,1.801-16.067,12.453-7.632,17.322c5.847,3.376,9.509-1.484,5.101-6.766c-2.451-2.932-1.782-4.156,3.058-5.612
			c7.887-2.366,12.992,9.005,7.957,17.725c-7.402,12.82-35.131,6.12-49.96-12.069c-9.113-11.181-4.533-15.766,24.499-24.533
			c25.682-7.757,25.682-7.757,26.561,2.259C1677.669,241.913,1677.03,242.688,1667.266,244.233z M1676.849,337.218
			c-0.879,10.016-0.879,10.016-26.561,2.259c-29.032-8.768-33.612-13.353-24.499-24.533c14.829-18.189,42.558-24.889,49.96-12.069
			c5.035,8.72-0.07,20.091-7.957,17.725c-4.84-1.455-5.509-2.68-3.058-5.612c4.408-5.282,0.746-10.142-5.101-6.766
			c-8.435,4.87-3.743,15.521,7.632,17.322C1677.03,327.088,1677.669,327.864,1676.849,337.218z M1728.206,192.023
			c6.638,5.552,6.638,5.552-3.344,4.493c-12.857-1.364-18.647-4.398-16.268-8.519
			C1711.192,183.496,1720.226,185.352,1728.206,192.023z M1708.594,381.78c-2.38-4.122,3.411-7.156,16.268-8.519
			c9.982-1.059,9.982-1.059,3.344,4.493C1720.226,384.424,1711.192,386.28,1708.594,381.78z M1796.47,202.346
			c-15.465,3.66-74.973-21.866-70.266-30.144c2.327-4.089,45.699-14.649,57.861-14.085
			C1824.829,160.008,1834.198,193.408,1796.47,202.346z M1784.065,411.66c-12.162,0.564-55.534-9.997-57.861-14.085
			c-4.707-8.278,54.801-33.804,70.266-30.144C1834.198,376.369,1824.829,409.769,1784.065,411.66z M1744.406,197.524
			c2.693,0.377,6.268,2.441,7.945,4.587C1756.424,207.317,1737.853,196.596,1744.406,197.524z M1752.351,367.666
			c-1.676,2.146-5.252,4.21-7.945,4.587C1737.853,373.181,1756.424,362.46,1752.351,367.666z M1890.03,309.532
			c23.233,5.93,27.206,8.085,26.158,14.211c-3.348,19.624-47.518,68.18-63.79,70.13c-3.903,0.469-10.849,3.433-15.432,6.592
			c-24.18,16.644,9.902-23.72-37.713-45.468c-11.341-5.177-11.714-5.728-7.239-10.63c9.632-10.553,14.645-42.624,8.843-56.571
			c-0.441-1.06-0.844-2.028-1.21-2.907c0.367-0.879,0.769-1.847,1.21-2.907c5.802-13.947,0.789-46.019-8.843-56.571
			c-4.475-4.902-4.102-5.453,7.239-10.63c47.615-21.748,13.533-62.112,37.713-45.468c4.583,3.159,11.529,6.122,15.432,6.592
			c16.272,1.95,60.442,50.506,63.79,70.13c1.048,6.126-2.925,8.281-26.158,14.211c-20.321,5.184-32.568,11.755-42.692,24.644
			C1857.462,297.777,1869.709,304.348,1890.03,309.532z M1935.174,296.939c-1.644-3.014-1.891-7.56-1.183-12.05
			c-0.708-4.49-0.461-9.036,1.183-12.05c2.467-4.523,13.367,2.767,20.832,12.05C1948.541,294.172,1937.642,301.461,1935.174,296.939
			z M1962.262,317.655c-4.027-1.082-8.633-1.206-10.235-0.282c-4.417,2.55-20.291-3.404-19.266-7.228
			c0.494-1.845,6.358-6.506,13.032-10.359c7.019-4.052,11.121-8.304,13.95-14.898c-2.829-6.595-6.932-10.846-13.95-14.898
			c-6.674-3.853-12.538-8.514-13.032-10.359c-1.025-3.825,14.849-9.779,19.266-7.228c1.602,0.925,6.208,0.8,10.235-0.282
			c17.026-4.56,44.864,15.624,55.776,32.767C2007.126,302.031,1979.288,322.216,1962.262,317.655z M1689.583,286.828
			c-5.417,10.755-5.417,10.755-22.529,5.63c-17.333-5.192-38.629,3.879-52.548,22.381c-4.655,6.187-21.522-8.198-37.041-29.951
			c15.519-21.753,32.386-36.139,37.041-29.951c13.919,18.502,35.216,27.574,52.548,22.381c17.112-5.125,17.112-5.125,22.529,5.63
			c0.329,0.653,0.673,1.3,1.032,1.94C1690.256,285.529,1689.912,286.175,1689.583,286.828z M1897.475,304.205
			c-11.406-4.564-17.254-11.987-18.55-19.316c1.296-7.329,7.144-14.752,18.55-19.316c8.872-3.55,12.642,10.12,8.68,19.316
			C1910.117,294.085,1906.347,307.755,1897.475,304.205z M1875.761,291.491c1.802,5.815-0.225,5.393-10.617-2.192
			c-1.876-1.37-3.651-2.846-5.316-4.41c1.665-1.564,3.44-3.04,5.316-4.41c10.392-7.585,12.42-8.008,10.617-2.192
			c-0.704,2.267-1.144,4.476-1.339,6.602C1874.617,287.015,1875.057,289.223,1875.761,291.491z M1913.307,284.888
			c0.274-21.724,9.184-25.197,10.383,0C1922.491,310.085,1913.582,306.612,1913.307,284.888z M1953.051,192.261
			c8.047,40.563,30.489,51.707,9.07,48.889c-34.121-4.505-22.88,20.078-44.339-19.082c-14.996-27.374-49.947-59.112-49.947-59.112
			c-2.165-3.75,76.524-38.022,84.424-36.77c4.842,0.766,0.271,28.754-6.147,37.655c-3.603,5-3.989,8.303-1.078,9.28
			C1947.523,173.955,1951.129,182.571,1953.051,192.261z M1945.034,396.657c-2.91,0.977-2.525,4.28,1.078,9.28
			c6.418,8.9,10.989,36.889,6.147,37.655c-7.9,1.252-86.59-33.02-84.424-36.77c0,0,34.951-31.738,49.947-59.112
			c21.459-39.161,10.218-14.577,44.339-19.082c21.418-2.818-1.023,8.327-9.07,48.889
			C1951.129,387.206,1947.523,395.822,1945.034,396.657z M2117.886,287.429c10.627,8.102,10.742,8.493,3.808,12.496
			c-26.177,15.113-44.616,74.094-39.701,127.002c1.769,19.042,1.677,34.867-0.199,35.17c-4.436,0.714-86.044-32.318-101.857-41.226
			c-30.071-16.944-6.556-104.151,25.751-95.495c16.89,4.528,20.344,33.666,3.65,30.812c-9.199-1.57-10.873,4.697-2.447,9.163
			c25.763,13.651,33.475-28.645,8.263-45.326c-9.86-6.524-9.86-6.524,1.973-25.198c2.206-3.481,4.193-6.891,5.822-9.938
			c-1.629-3.047-3.616-6.457-5.822-9.938c-11.832-18.675-11.832-18.675-1.973-25.198c25.211-16.681,17.5-58.977-8.263-45.326
			c-8.426,4.466-6.752,10.733,2.447,9.163c16.694-2.853,13.24,26.284-3.65,30.812c-32.307,8.657-55.822-78.551-25.751-95.495
			c15.813-8.909,97.422-41.94,101.857-41.226c1.876,0.303,1.968,16.128,0.199,35.17c-4.915,52.908,13.524,111.889,39.701,127.002
			c6.934,4.004,6.819,4.394-3.808,12.496c-0.927,0.707-1.927,1.564-2.973,2.54C2115.959,285.865,2116.959,286.722,2117.886,287.429z
			 M1301.574,356.048c-1.854,31.342,3.691,67.784,9.779,64.269c1.748-1.009,1.831-4.167,0.184-7.021
			c-5.407-9.366,3.768-103.311,10.464-107.177c9.674-5.585,56.177,34.295,56.936,48.827c0.427,8.241,3.022,18.526,5.762,22.86
			c4.376,6.918,4.558,6.457,1.503-3.775c-20.641-69.067,47.584,3.478,72.706-51.824c5.482-12.068,24.028-21.258,31.189-15.46
			c10.346,8.379,3.229,42.407-10.531,50.351c-8.727,5.038-20.894-1.343-18.634-9.78c2.132-7.968,6.101-9.637,9.386-3.948
			c3.594,6.226,11.065,2.545,5.29-4.114c-5.635-6.509-19.297,1.379-19.688,11.367c-0.638,16.288,22.935,19.916,34.852,5.365
			c6.404-7.82,9.563-9.432,17.174-8.763c18.1,1.583,31.725-15.838,23.51-30.065c-8.888-15.394,6.477-1.947,20.244,17.715
			c14.154,20.222,14.762,22.045,11.224,33.774c-7.488,24.819-54.957,37.907-54.056,14.904c0.342-8.714,10.099-15.652,15.402-10.952
			c6.195,5.499-12.155,8.57-2.138,11.247c7.314,1.96,10.943-5.17,6.525-12.822c-5.306-9.191-17.98-7.429-22.93,3.188
			c-15.833,33.976,47.374,34.614,64.504,0.653c3.015-5.978,6.142-10.513,6.948-10.079c11.292,6.077,36.903,34.02,95.931,35.754
			c19.966,0.587,28.614,3.183,43.135,12.952c29.269,19.686,75.368,22.207,119.442,6.527c20.803-7.401,24.772-7.586,33.387-1.56
			c23.355,16.325,81.633,37.538,112.144,79.168c41.744,56.955-22.459-81.561-3.398-65.466
			c14.046,11.866,96.063,39.979,139.843,97.744c11.989,15.819,21.8,26.867,21.806,24.55c0.091-42.716-87.882-192.871-1.02-243.021
			c13.885-8.016,22.323-5.151,31.471,10.695c8.17,14.151,3.213,23.692-12.333,23.73c-10.933,0.028-12.316,0.738-11.494,5.912
			c1.326,8.374,17.956,12.679,27.557,7.137c7.405-4.275,7.943-3.988,6.018,3.208c-1.931,7.195-3.877,7.743-21.748,6.124
			c-26.564-2.409-54.696,9.032-54.277,22.074c0.276,8.595,0.865,8.514,20.584-2.871c26.987-15.581,42.902-14.54,72.069,4.721
			c29.164,19.255,44.906,17.451,60.539-6.948c5.879-9.17,7.036-9.567,18.122-6.225c22.982,6.934,43.656-15.442,35.959-38.918
			c-12.91-39.371,63.562,38.95,44.028,60.356c-2.601,2.849-7.612,12.488-11.135,21.424c-9.738,24.681-37.926,35.231-58.651,21.947
			c-16.819-10.777-9.871-35.445,8.586-30.5c8.837,2.368,9.796,6.208,2.595,10.366c-7.452,4.303-5.199,10.642,3.302,9.293
			c14.276-2.259,11.708-21.95-3.502-26.851c-12.102-3.898-23.212,3.765-27.234,18.779c-7.923,29.57,36.912,44.036,72.707,23.463
			c4.938-2.838,12.483-4.22,16.769-3.072c11.481,3.079,24.09-7.646,20.241-17.212c-1.71-4.254-4.64-6.855-6.512-5.774
			c-5.265,3.04,4.895,9.886-4.061,15.057c-10.027,5.789-13.917,0.387-7.236-10.038c17.58-27.423-6.394-35.785,67.365-39.029
			c42.587-1.876,46.531-3.696,23.265-10.733c-39.029-11.803-62.122-47.223-85.895-58.311c-10.58-4.93-9.612-1.353,1.502,5.552
			c10.852,6.739,47.698,47.461,44.578,49.263c-7.487,4.323-39.358,12.325-40.59,10.193c-5.811-10.066,6.834-9.884-21.689-41.808
			c-17.97-20.117-18.354-20.878-14.6-28.935c5.348-11.478-3.419-21.907-14.543-17.299c-8.114,3.362-8.106,3.596,0.119,4.588
			c8.603,1.037,11.601,9.107,4.832,13.015c-13.125,7.578-28.966-6.641-20.546-18.443c12.704-17.805,49.046-6.914,87.696,26.284
			c61.666,52.969,79.307,57.191,145.116,34.725c25.81-8.813,68.618-39.296,22.106-18.259
			c-67.995,30.744-91.506,26.535-162.08-29.004c-13.864-10.909-28.232-19.036-41.711-24.226
			c13.478-5.19,27.847-13.317,41.711-24.226c70.573-55.538,94.084-59.748,162.08-29.004c46.512,21.037,3.704-9.446-22.106-18.259
			c-65.809-22.465-83.45-18.243-145.116,34.725c-38.65,33.198-74.992,44.088-87.696,26.284c-8.419-11.802,7.421-26.02,20.546-18.443
			c6.769,3.908,3.771,11.978-4.832,13.015c-8.226,0.992-8.233,1.226-0.119,4.588c11.123,4.608,19.891-5.821,14.543-17.299
			c-3.755-8.057-3.371-8.819,14.6-28.935c28.523-31.924,15.878-31.743,21.689-41.808c1.231-2.132,33.102,5.87,40.59,10.193
			c3.121,1.802-33.725,42.524-44.578,49.263c-11.114,6.905-12.082,10.482-1.502,5.552c23.772-11.088,46.866-46.508,85.895-58.311
			c23.266-7.037,19.322-8.857-23.265-10.733c-73.759-3.243-49.785-11.606-67.365-39.029c-6.68-10.425-2.79-15.827,7.236-10.038
			c8.957,5.171-1.203,12.017,4.061,15.057c1.872,1.081,4.801-1.52,6.512-5.774c3.849-9.566-8.76-20.291-20.241-17.212
			c-4.286,1.148-11.832-0.233-16.769-3.072c-35.796-20.573-80.63-6.107-72.707,23.463c4.023,15.013,15.132,22.677,27.234,18.779
			c15.211-4.9,17.778-24.591,3.502-26.851c-8.501-1.349-10.754,4.99-3.302,9.293c7.201,4.158,6.242,7.998-2.595,10.366
			c-18.457,4.946-25.405-19.723-8.586-30.5c20.725-13.284,48.913-2.734,58.651,21.947c3.523,8.937,8.534,18.575,11.135,21.424
			c19.533,21.405-56.939,99.726-44.028,60.356c7.698-23.475-12.976-45.852-35.959-38.918c-11.086,3.341-12.242,2.945-18.122-6.225
			c-15.634-24.399-31.375-26.204-60.539-6.948c-29.167,19.262-45.082,20.303-72.069,4.721
			c-19.719-11.385-20.308-11.466-20.584-2.871c-0.419,13.042,27.712,24.483,54.277,22.074c17.871-1.619,19.817-1.071,21.748,6.124
			c1.926,7.197,1.387,7.483-6.018,3.208c-9.601-5.543-26.23-1.237-27.557,7.137c-0.822,5.174,0.561,5.883,11.494,5.912
			c15.545,0.039,20.503,9.579,12.333,23.731c-9.148,15.845-17.586,18.711-31.471,10.695c-86.861-50.15,1.111-200.305,1.02-243.021
			c-0.006-2.317-9.816,8.731-21.806,24.55c-43.78,57.765-125.798,85.878-139.843,97.744c-19.06,16.095,45.142-122.421,3.398-65.466
			c-30.511,41.63-88.789,62.843-112.144,79.168c-8.615,6.026-12.584,5.841-33.387-1.56c-44.074-15.679-90.174-13.159-119.442,6.527
			c-14.521,9.769-23.168,12.365-43.135,12.952c-59.028,1.734-84.639,29.677-95.931,35.754c-0.805,0.434-3.933-4.101-6.948-10.079
			c-17.13-33.962-80.337-33.323-64.504,0.653c4.951,10.617,17.624,12.379,22.93,3.188c4.418-7.653,0.789-14.782-6.525-12.822
			c-10.017,2.678,8.333,5.749,2.138,11.247c-5.303,4.701-15.06-2.237-15.402-10.952c-0.901-23.003,46.568-9.915,54.056,14.904
			c3.538,11.729,2.93,13.552-11.224,33.774c-13.767,19.662-29.132,33.109-20.244,17.715c8.214-14.228-5.41-31.649-23.51-30.065
			c-7.611,0.669-10.77-0.942-17.174-8.763c-11.917-14.55-35.49-10.923-34.852,5.365c0.39,9.988,14.052,17.876,19.688,11.367
			c5.775-6.658-1.696-10.339-5.29-4.114c-3.284,5.688-7.253,4.02-9.386-3.948c-2.261-8.437,9.907-14.818,18.634-9.78
			c13.76,7.945,20.877,41.973,10.531,50.351c-7.161,5.798-25.707-3.393-31.189-15.46c-25.122-55.303-93.347,17.242-72.706-51.824
			c3.055-10.232,2.873-10.693-1.503-3.775c-2.739,4.334-5.334,14.619-5.762,22.86c-0.759,14.532-47.262,54.412-56.936,48.827
			c-6.696-3.866-15.872-97.811-10.464-107.177c1.648-2.854,1.564-6.012-0.184-7.021c-6.089-3.515-11.633,32.927-9.779,64.269
			c1.599,26.984,0.453,50.507-3.508,71.16C1302.026,305.541,1303.173,329.064,1301.574,356.048z M2293.814,297.673
			c-1.962,9.116-2.379,9.259-21.749,7.502c-21.288-1.93-24.366-3.716-18.609-10.824c2.524-3.115,2.576-6.453,0.604-9.463
			c1.972-3.009,1.919-6.348-0.604-9.463c-5.757-7.108-2.678-8.894,18.609-10.824c19.37-1.757,19.788-1.614,21.749,7.502
			c1.159,5.391,3.74,9.642,7.457,12.785C2297.553,288.031,2294.973,292.282,2293.814,297.673z M1752.277,346.369
			c-54.086-5.741-60.462,9.639-58.567-20.805c0.963-15.482,6.124-29.817,13.749-40.676c-7.625-10.859-12.786-25.194-13.749-40.676
			c-1.895-30.444,4.481-15.064,58.567-20.805c51.808-5.5,47.608,42.825,44.954,61.481
			C1799.885,303.545,1804.085,351.869,1752.277,346.369z M1754.805,304.122c-10.093,5.827-17.081,1.459-12.884-8.049
			c4.828-10.94-5.629-13.661-12.149-3.164c-5.976,9.62-0.395,19.037,13.134,22.154c21.332,4.914,34.089-12.004,32.465-30.175
			c1.624-18.172-11.134-35.089-32.465-30.175c-13.529,3.117-19.11,12.535-13.134,22.154c6.52,10.497,16.977,7.776,12.149-3.164
			c-4.197-9.508,2.791-13.876,12.884-8.049c8.122,4.689,11.144,12.1,10.276,19.233
			C1765.949,292.022,1762.926,299.433,1754.805,304.122z"/>
		<path d="M1583.759,284.888c0.919-3.405,2.856-6.806,5.91-9.897c5.787-5.854,18.751-4.522,26.036,2.676
			c2.075,2.05,3.29,4.55,3.789,7.221c-0.5,2.671-1.714,5.171-3.789,7.221c-7.285,7.198-20.249,8.53-26.036,2.676
			C1586.615,291.695,1584.678,288.294,1583.759,284.888z"/>
		<path d="M1868.37,223.172c4.888-8.466,6.569-8.919,14.994-4.055c9.82,5.669,9.998,14.256,0.461,21.982
			C1874.639,248.541,1862.114,234.009,1868.37,223.172z"/>
		<path d="M1868.37,346.605c4.888,8.466,6.569,8.919,14.994,4.055c9.82-5.669,9.998-14.256,0.461-21.982
			C1874.639,321.236,1862.114,335.768,1868.37,346.605z"/>
		<path d="M1857.55,213.217c-9.186,7.442-21.711-7.09-15.455-17.927c4.888-8.466,6.569-8.919,14.994-4.055
			C1866.909,196.904,1867.087,205.49,1857.55,213.217z"/>
		<path d="M1857.55,356.56c-9.186-7.442-21.711,7.09-15.455,17.927c4.888,8.466,6.569,8.919,14.994,4.055
			C1866.909,372.873,1867.087,364.287,1857.55,356.56z"/>
		<path d="M1948.774,228.491c0.787,2.937-0.825,7.168-3.581,9.403c-6.373,5.16-15.535-2.486-12.722-10.616
			C1934.996,219.981,1946.726,220.851,1948.774,228.491z"/>
		<path d="M1948.774,341.286c0.787-2.937-0.825-7.168-3.581-9.403c-6.373-5.159-15.535,2.486-12.722,10.616
			C1934.996,349.796,1946.726,348.926,1948.774,341.286z"/>
		<path d="M2392.883,118.33c-59.778-26.843-123.704-20.548-143.772,14.159c-9.747,16.86-69.703,46.926-90.805,45.54
			c-27.367-1.801-36.329-13.331-27.812-35.773c6.394-16.843,25.24-19.021,34.183-3.951c7.712,12.99,0.184,26.653-11.921,21.639
			c-8.114-3.362-8.106-3.596,0.119-4.588c9.686-1.166,11.309-9.276,2.833-14.169c-13.745-7.936-27.682,6.789-18.547,19.597
			c12.697,17.801,49.009,6.927,87.715-26.273c50.802-43.568,69.207-51.916,102.025-46.274c30.618,5.262,63.916,18.207,76.729,29.825
			C2414.756,128.149,2414.756,128.149,2392.883,118.33z"/>
		<path d="M2392.883,451.447c-59.778,26.843-123.704,20.548-143.772-14.159c-9.747-16.86-69.703-46.926-90.805-45.54
			c-27.367,1.801-36.329,13.331-27.812,35.773c6.394,16.843,25.24,19.021,34.183,3.951c7.712-12.991,0.184-26.653-11.921-21.639
			c-8.114,3.363-8.106,3.596,0.119,4.588c9.686,1.166,11.309,9.276,2.833,14.169c-13.745,7.936-27.682-6.789-18.547-19.597
			c12.697-17.801,49.009-6.927,87.715,26.273c50.802,43.568,69.207,51.916,102.025,46.274c30.618-5.262,63.916-18.207,76.729-29.825
			C2414.756,441.628,2414.756,441.628,2392.883,451.447z"/>
		<path d="M2222.198,120.395c-1.206,2.088-8.503,7.536-16.222,12.113c-14.734,8.735-21.084,7.984-6.912-0.821
			c27.554-17.113,48.439-48.546,35.011-52.685c-39.281-12.107-64.206-37.595-55.865-57.127c7.666-17.938,40.21-11.814,32.961,6.204
			c-4.28,10.645-10.65,5.097-7.029-1.177c4.453-7.713-11.549-12.545-17.299-5.221c-16.638,21.186,18.992,44.16,71.726,46.25
			c44.735,1.773,49.046,3.575,25.219,10.548C2267.665,83.2,2228.145,110.095,2222.198,120.395z"/>
		<path d="M2222.198,449.382c-1.206-2.088-8.503-7.536-16.222-12.113c-14.734-8.735-21.084-7.984-6.912,0.821
			c27.554,17.113,48.439,48.546,35.011,52.685c-39.281,12.107-64.206,37.594-55.865,57.127c7.666,17.938,40.21,11.814,32.961-6.204
			c-4.28-10.645-10.65-5.097-7.029,1.177c4.453,7.713-11.549,12.545-17.299,5.221c-16.638-21.186,18.992-44.16,71.726-46.25
			c44.735-1.773,49.046-3.575,25.219-10.548C2267.665,486.576,2228.145,459.681,2222.198,449.382z"/>
	</g>
</g>
</svg>
